<?xml version="1.0" standalone="no"?>
<!DOCTYPE svg PUBLIC "-//W3C//DTD SVG 1.1//EN" "http://www.w3.org/Graphics/SVG/1.1/DTD/svg11.dtd" >
<svg>
<metadata>
Created by FontForge 20090622 at Thu Oct  5 17:19:24 2017
 By deploy user
Copyright (c) Mark Simonson, 2005. All rights reserved.
</metadata>
<defs>
<font id="ProximaNova-Medium" horiz-adv-x="559" >
  <font-face 
    font-family="ProximaNova-Medium"
    font-weight="400"
    font-stretch="normal"
    units-per-em="1000"
    panose-1="2 11 6 3 3 5 2 6 2 4"
    ascent="775"
    descent="-225"
    x-height="483"
    bbox="-172 -276 1100 908"
    underline-thickness="20"
    underline-position="-113"
    unicode-range="U+000D-U+FB04"
  />
<missing-glyph horiz-adv-x="500" 
d="M74 -90v842h351v-842h-351zM393 722h-288v-782h288v782z" />
    <glyph glyph-name="f_b" unicode="fb" horiz-adv-x="874" 
d="M14 0zM94 0v404h-80v79h80v32q0 78 41 120t106 42q47 0 79 -18l-21 -67q-17 11 -43 11q-34 0 -53 -22t-19 -66v-32h98v-79h-98v-404h-90zM458 138q18 -29 55.5 -49.5t78.5 -20.5q34 0 61 13t46 36t29 54.5t10 69.5t-10 70t-29 55t-46 36t-61 13q-41 0 -78.5 -21.5
t-55.5 -50.5v-205zM368 0v667h90v-254q29 39 69.5 60.5t88.5 21.5q47 0 86.5 -18t68 -51t44.5 -80t16 -105q0 -59 -16 -106t-44.5 -79.5t-68 -50t-86.5 -17.5q-49 0 -90 22.5t-68 58.5v-69h-90z" />
    <glyph glyph-name="f_f" unicode="ff" horiz-adv-x="592" 
d="M14 0zM94 0v404h-80v79h80v32q0 78 41 120t106 42q47 0 79 -18l-21 -67q-19 11 -43 11q-34 0 -53 -22t-19 -66v-32h98v-79h-98v-404h-90zM390 0v404h-80v79h80v32q0 78 41 120t106 42q47 0 79 -18l-21 -67q-19 11 -43 11q-34 0 -53 -22t-19 -66v-32h98v-79h-98v-404h-90z
" />
    <glyph glyph-name="f_h" unicode="fh" horiz-adv-x="856" 
d="M14 0zM94 0v404h-80v79h80v32q0 78 41 120t106 42q47 0 79 -18l-21 -67q-17 11 -43 11q-34 0 -53 -22t-19 -66v-32h98v-79h-98v-404h-90zM694 0v311q0 60 -28 82t-75 22q-42 0 -77.5 -21.5t-55.5 -48.5v-345h-90v667h90v-252q12 15 30 29t40 25.5t47.5 18.5t53.5 7
q155 0 155 -154v-341h-90z" />
    <glyph glyph-name="fi" unicode="fi" horiz-adv-x="529" 
d="M14 0zM94 0v404h-80v79h80v32q0 78 41 120t106 42q47 0 79 -18l-21 -67q-17 11 -43 11q-34 0 -53 -22t-19 -66v-32h98v-79h-98v-404h-90zM412 547q-23 0 -40.5 17t-17.5 41t17.5 40.5t40.5 16.5q24 0 41 -16.5t17 -40.5t-17 -41t-41 -17zM368 0v483h90v-483h-90z" />
    <glyph glyph-name="f_j" unicode="fj" horiz-adv-x="529" 
d="M14 0zM94 0v404h-80v79h80v32q0 78 41 120t106 42q47 0 79 -18l-21 -67q-17 11 -43 11q-34 0 -53 -22t-19 -66v-32h98v-79h-98v-404h-90zM412 547q-23 0 -40.5 17t-17.5 41t17.5 40.5t40.5 16.5q24 0 41 -16.5t17 -40.5t-17 -41t-41 -17zM307 -196q-31 0 -55 6l11 75
q7 -2 16 -3t17 -1q31 0 51.5 18.5t20.5 62.5v521h90v-521q0 -75 -38.5 -116.5t-112.5 -41.5z" />
    <glyph glyph-name="f_k" unicode="fk" horiz-adv-x="816" 
d="M14 0zM94 0v404h-80v79h80v32q0 78 41 120t106 42q47 0 79 -18l-21 -67q-17 11 -43 11q-34 0 -53 -22t-19 -66v-32h98v-79h-98v-404h-90zM692 0l-161 208l-73 -74v-134h-90v667h90v-429l233 245h113l-208 -219l210 -264h-114z" />
    <glyph glyph-name="fl" unicode="fl" horiz-adv-x="529" 
d="M14 0zM94 0v404h-80v79h80v32q0 78 41 120t106 42q47 0 79 -18l-21 -67q-17 11 -43 11q-34 0 -53 -22t-19 -66v-32h98v-79h-98v-404h-90zM368 0v667h90v-667h-90z" />
    <glyph glyph-name="f_f_i" unicode="ffi" horiz-adv-x="825" 
d="M14 0zM390 0v404h-80v79h80v32q0 78 41 120t106 42q47 0 79 -18l-21 -67q-17 11 -43 11q-34 0 -53 -22t-19 -66v-32h98v-79h-98v-404h-90zM708 547q-23 0 -40.5 17t-17.5 41t17.5 40.5t40.5 16.5q24 0 41 -16.5t17 -40.5t-17 -41t-41 -17zM664 0v483h90v-483h-90zM94 0
v404h-80v79h80v32q0 78 41 120t106 42q47 0 79 -18l-21 -67q-19 11 -43 11q-34 0 -53 -22t-19 -66v-32h98v-79h-98v-404h-90z" />
    <glyph glyph-name="f_f_j" unicode="ffj" horiz-adv-x="825" 
d="M14 0zM390 0v404h-80v79h80v32q0 78 41 120t106 42q47 0 79 -18l-21 -67q-17 11 -43 11q-34 0 -53 -22t-19 -66v-32h98v-79h-98v-404h-90zM708 547q-23 0 -40.5 17t-17.5 41t17.5 40.5t40.5 16.5q24 0 41 -16.5t17 -40.5t-17 -41t-41 -17zM603 -196q-31 0 -55 6l11 75
q7 -2 16 -3t17 -1q31 0 51.5 18.5t20.5 62.5v521h90v-521q0 -75 -38.5 -116.5t-112.5 -41.5zM94 0v404h-80v79h80v32q0 78 41 120t106 42q47 0 79 -18l-21 -67q-19 11 -43 11q-34 0 -53 -22t-19 -66v-32h98v-79h-98v-404h-90z" />
    <glyph glyph-name="f_f_l" unicode="ffl" horiz-adv-x="825" 
d="M14 0zM390 0v404h-80v79h80v32q0 78 41 120t106 42q47 0 79 -18l-21 -67q-17 11 -43 11q-34 0 -53 -22t-19 -66v-32h98v-79h-98v-404h-90zM664 0v667h90v-667h-90zM94 0v404h-80v79h80v32q0 78 41 120t106 42q47 0 79 -18l-21 -67q-19 11 -43 11q-34 0 -53 -22t-19 -66
v-32h98v-79h-98v-404h-90z" />
    <glyph glyph-name=".notdef" horiz-adv-x="500" 
d="M74 -90v842h351v-842h-351zM393 722h-288v-782h288v782z" />
    <glyph glyph-name="NULL" horiz-adv-x="0" 
 />
    <glyph glyph-name="NULL" horiz-adv-x="0" 
 />
    <glyph glyph-name="CR" unicode="&#xd;" horiz-adv-x="0" 
 />
    <glyph glyph-name="space" unicode=" " horiz-adv-x="258" 
 />
    <glyph glyph-name="uni00A0" unicode="&#xa0;" horiz-adv-x="258" 
 />
    <glyph glyph-name="uni2009" unicode="&#x2009;" horiz-adv-x="51" 
 />
    <glyph glyph-name="zero" unicode="0" horiz-adv-x="614" 
d="M307 -12q-69 0 -118.5 30.5t-81 80t-46.5 111t-15 123.5t15 123.5t46.5 110.5t81 79.5t118.5 30.5t118.5 -30.5t81 -79.5t46.5 -110.5t15 -123.5t-15 -123.5t-46.5 -111t-81 -80t-118.5 -30.5zM307 77q44 0 74.5 21.5t49 57.5t27 82t8.5 95t-8.5 95t-27 81.5t-49 57
t-74.5 21.5t-74.5 -21.5t-49.5 -57t-27 -81.5t-8 -95t8 -95t27 -82t49.5 -57.5t74.5 -21.5z" />
    <glyph glyph-name="zero.pzero" horiz-adv-x="614" 
d="M307 -12q-46 0 -83 14t-66 38l-25 -40h-75l56 88q-35 51 -51.5 115t-16.5 130q0 62 15 123.5t46.5 110.5t81 79.5t118.5 30.5q45 0 81.5 -13.5t65.5 -37.5l26 41h75l-56 -89q35 -50 52 -114.5t17 -130.5q0 -62 -15 -123.5t-46.5 -111t-81 -80t-118.5 -30.5zM307 77
q44 0 74.5 21.5t49 57.5t27 82t8.5 95q0 42 -6 81.5t-19 72.5l-233 -368q18 -20 42.5 -31t56.5 -11zM148 333q0 -42 5.5 -81t18.5 -72l232 367q-18 19 -42 30t-55 11q-44 0 -74.5 -21.5t-49.5 -57t-27 -81.5t-8 -95z" />
    <glyph glyph-name="one" unicode="1" horiz-adv-x="359" 
d="M185 0v536l-108 -113l-59 61l179 183h88v-667h-100z" />
    <glyph glyph-name="two" unicode="2" horiz-adv-x="591" 
d="M52 0v79l162.5 128.5t113.5 103t67 86.5t22 79q0 29 -11 50.5t-29.5 35t-42 20t-47.5 6.5q-60 0 -105 -22.5t-76 -59.5l-59 65q42 52 105.5 79t133.5 27q45 0 87 -12.5t74.5 -38t52 -63t19.5 -87.5q0 -49 -22.5 -96t-63 -94t-97 -96t-125.5 -102h311v-88h-470z" />
    <glyph glyph-name="three" unicode="3" horiz-adv-x="565" 
d="M271 -12q-87 0 -150 32t-95 77l56 65q32 -38 80.5 -61.5t105.5 -23.5q69 0 108 30.5t39 83.5q0 56 -42 80.5t-115 24.5h-42t-30 -1v91q8 -1 30 -1h42q30 0 57 6t47 18t31.5 30.5t11.5 44.5q0 25 -11 44.5t-30.5 33t-45.5 20t-56 6.5q-53 0 -95 -19.5t-79 -57.5l-53 62
q38 45 96.5 74.5t139.5 29.5q51 0 94 -12t74 -35.5t48.5 -56.5t17.5 -75q0 -35 -13.5 -61.5t-34.5 -45.5t-46.5 -31t-50.5 -16q24 -2 51 -13t50 -31.5t38.5 -50t15.5 -68.5q0 -42 -17 -77.5t-48.5 -61t-76.5 -40t-102 -14.5z" />
    <glyph glyph-name="four" unicode="4" horiz-adv-x="569" 
d="M347 0v160h-317v82l280 425h137v-419h92v-88h-92v-160h-100zM347 576l-218 -328h218v328z" />
    <glyph glyph-name="five" unicode="5" horiz-adv-x="595" 
d="M303 -12q-86 0 -144.5 28t-97.5 77l59 68q33 -41 78 -62.5t104 -21.5q33 0 59.5 10t45.5 27.5t29.5 41.5t10.5 51q0 60 -39 95.5t-104 35.5q-44 0 -80.5 -14t-69.5 -46l-72 23v366h422v-88h-322v-213q24 24 64 41.5t89 17.5q42 0 80.5 -14t68 -41.5t47 -67.5t17.5 -91
t-18.5 -92.5t-51 -70.5t-77.5 -44.5t-98 -15.5z" />
    <glyph glyph-name="six" unicode="6" horiz-adv-x="596" 
d="M312 -12q-72 0 -122.5 28t-82.5 75.5t-46.5 109.5t-14.5 131q0 70 17.5 132.5t52.5 110t88 75t125 27.5q63 0 109.5 -21t78.5 -56l-49 -76q-26 29 -57.5 46.5t-81.5 17.5q-45 0 -79.5 -20t-57 -54t-34 -77.5t-11.5 -89.5v-11.5t1 -10.5q11 17 29.5 34.5t42.5 31.5t52 23
t59 9q45 0 85 -13.5t70.5 -40.5t48 -67t17.5 -93q0 -45 -17 -85t-48 -70.5t-75.5 -48t-99.5 -17.5zM307 77q36 0 63 12t45 30.5t27 41.5t9 45q0 33 -11.5 58t-31.5 41t-46 24t-56 8q-47 0 -89 -24.5t-68 -64.5q3 -29 12.5 -59.5t28.5 -55.5t47.5 -40.5t69.5 -15.5z" />
    <glyph glyph-name="seven" unicode="7" horiz-adv-x="523" 
d="M121 0l260 579h-352v88h468v-69l-266 -598h-110z" />
    <glyph glyph-name="eight" unicode="8" horiz-adv-x="588" 
d="M295 -12q-51 0 -96 12t-78.5 35t-53.5 57t-20 78q0 33 12.5 60.5t33.5 49.5t49 38t59 26q-29 9 -54.5 22.5t-45.5 33t-31.5 45.5t-11.5 58q0 45 20.5 78t54.5 54.5t76 31.5t86 10q42 0 84.5 -10t76 -31.5t54.5 -54.5t21 -78q0 -32 -12 -58t-31.5 -45.5t-46 -33
t-54.5 -22.5q31 -10 59 -26t49 -38t33.5 -49.5t12.5 -60.5q0 -44 -19.5 -77.5t-53.5 -57t-78.5 -35.5t-94.5 -12zM295 384q15 3 38 9.5t44.5 18.5t37 30.5t15.5 45.5q0 24 -10.5 42.5t-29 31t-43 19.5t-52.5 7q-59 0 -97.5 -26t-38.5 -74q0 -27 15.5 -45.5t37 -30.5
t45 -18.5t38.5 -9.5zM295 77q29 0 55.5 7.5t46.5 21t32 33t12 43.5q0 29 -17 50.5t-41 35.5t-48.5 21.5t-39.5 9.5q-16 -2 -41 -9.5t-48.5 -21.5t-40.5 -35.5t-17 -50.5q0 -24 11.5 -43.5t32 -33t47 -21t56.5 -7.5z" />
    <glyph glyph-name="nine" unicode="9" horiz-adv-x="596" 
d="M267 -11q-63 0 -109.5 21t-78.5 56l48 75q26 -29 58 -46t82 -17q48 0 82.5 21t56.5 55t32.5 77t10.5 87v23q-12 -17 -30.5 -34.5t-42.5 -32t-52.5 -23.5t-58.5 -9q-45 0 -85.5 13.5t-70.5 40.5t-48 67.5t-18 93.5q0 45 17 85t48 70t75.5 48t99.5 18q72 0 122.5 -28
t83 -75.5t47 -110t14.5 -131.5q0 -70 -17.5 -132.5t-53 -109.5t-88.5 -74.5t-124 -27.5zM290 329q46 0 88 24t68 65q-2 29 -12 59.5t-28.5 55t-47.5 40.5t-70 16q-36 0 -62.5 -12t-44.5 -30.5t-27 -41.5t-9 -45q0 -33 11.5 -58t31.5 -41t46 -24t56 -8z" />
    <glyph glyph-name="zero.tnum" horiz-adv-x="605" 
d="M43 0zM304 -12q-69 0 -118.5 30.5t-81 80t-46.5 111t-15 123.5t15 123.5t46.5 110.5t81 79.5t118.5 30.5t118.5 -30.5t81 -79.5t46.5 -110.5t15 -123.5t-15 -123.5t-46.5 -111t-81 -80t-118.5 -30.5zM304 77q44 0 74.5 21.5t49 57.5t27 82t8.5 95t-8.5 95t-27 81.5
t-49 57t-74.5 21.5t-74.5 -21.5t-49.5 -57t-27 -81.5t-8 -95t8 -95t27 -82t49.5 -57.5t74.5 -21.5z" />
    <glyph glyph-name="zero.tzero" horiz-adv-x="605" 
d="M43 0zM304 -12q-46 0 -83 14t-66 38l-25 -40h-75l56 88q-35 51 -51.5 115t-16.5 130q0 62 15 123.5t46.5 110.5t81 79.5t118.5 30.5q45 0 81.5 -13.5t65.5 -37.5l26 41h75l-56 -89q35 -50 52 -114.5t17 -130.5q0 -62 -15 -123.5t-46.5 -111t-81 -80t-118.5 -30.5zM304 77
q44 0 74.5 21.5t49 57.5t27 82t8.5 95q0 42 -6 81.5t-19 72.5l-233 -368q18 -20 42.5 -31t56.5 -11zM145 333q0 -42 5.5 -81t18.5 -72l232 367q-18 19 -42 30t-55 11q-44 0 -74.5 -21.5t-49.5 -57t-27 -81.5t-8 -95z" />
    <glyph glyph-name="one.tnum" horiz-adv-x="605" 
d="M292 0v536l-123 -129l-59 61l194 199h88v-667h-100z" />
    <glyph glyph-name="one.tnum_alt" horiz-adv-x="605" 
d="M142 0v88h145v448l-144 -151l-59 61l216 221h87v-579h151v-88h-396z" />
    <glyph glyph-name="two.tnum" horiz-adv-x="605" 
d="M64 0zM69 0v79l162.5 128.5t113.5 103t67 86.5t22 79q0 29 -11 50.5t-29.5 35t-42 20t-47.5 6.5q-60 0 -105 -22.5t-76 -59.5l-59 65q42 52 105.5 79t133.5 27q45 0 87 -12.5t74.5 -38t52 -63t19.5 -87.5q0 -49 -22.5 -96t-63 -94t-97 -96t-125.5 -102h311v-88h-470z" />
    <glyph glyph-name="three.tnum" horiz-adv-x="605" 
d="M56 0zM301 -12q-87 0 -150 32t-95 77l56 65q32 -38 80.5 -61.5t105.5 -23.5q69 0 108 30.5t39 83.5q0 56 -42 80.5t-115 24.5h-42t-30 -1v91q8 -1 30 -1h42q30 0 57 6t47 18t31.5 30.5t11.5 44.5q0 25 -11 44.5t-30.5 33t-45.5 20t-56 6.5q-53 0 -95 -19.5t-79 -57.5
l-53 62q38 45 96.5 74.5t139.5 29.5q51 0 94 -12t74 -35.5t48.5 -56.5t17.5 -75q0 -35 -13.5 -61.5t-34.5 -45.5t-46.5 -31t-50.5 -16q24 -2 51 -13t50 -31.5t38.5 -50t15.5 -68.5q0 -42 -17 -77.5t-48.5 -61t-76.5 -40t-102 -14.5z" />
    <glyph glyph-name="four.tnum" horiz-adv-x="605" 
d="M46 0zM363 0v160h-317v82l280 425h137v-419h92v-88h-92v-160h-100zM363 576l-218 -328h218v328z" />
    <glyph glyph-name="five.tnum" horiz-adv-x="605" 
d="M65 0zM307 -12q-86 0 -144.5 28t-97.5 77l59 68q33 -41 78 -62.5t104 -21.5q33 0 59.5 10t45.5 27.5t29.5 41.5t10.5 51q0 60 -39 95.5t-104 35.5q-44 0 -80.5 -14t-69.5 -46l-72 23v366h422v-88h-322v-213q24 24 64 41.5t89 17.5q42 0 80.5 -14t68 -41.5t47 -67.5
t17.5 -91t-18.5 -92.5t-51 -70.5t-77.5 -44.5t-98 -15.5z" />
    <glyph glyph-name="six.tnum" horiz-adv-x="605" 
d="M54 0zM320 -12q-72 0 -122.5 28t-82.5 75.5t-46.5 109.5t-14.5 131q0 70 17.5 132.5t52.5 110t88 75t125 27.5q63 0 109.5 -21t78.5 -56l-49 -76q-26 29 -57.5 46.5t-81.5 17.5q-45 0 -79.5 -20t-57 -54t-34 -77.5t-11.5 -89.5v-11.5t1 -10.5q11 17 29.5 34.5t42.5 31.5
t52 23t59 9q45 0 85 -13.5t70.5 -40.5t48 -67t17.5 -93q0 -45 -17 -85t-48 -70.5t-75.5 -48t-99.5 -17.5zM315 77q36 0 63 12t45 30.5t27 41.5t9 45q0 33 -11.5 58t-31.5 41t-46 24t-56 8q-47 0 -89 -24.5t-68 -64.5q3 -29 12.5 -59.5t28.5 -55.5t47.5 -40.5t69.5 -15.5z
" />
    <glyph glyph-name="seven.tnum" horiz-adv-x="605" 
d="M69 0zM161 0l260 579h-352v88h468v-69l-266 -598h-110z" />
    <glyph glyph-name="eight.tnum" horiz-adv-x="605" 
d="M55 0zM303 -12q-51 0 -96 12t-78.5 35t-53.5 57t-20 78q0 33 12.5 60.5t33.5 49.5t49 38t59 26q-29 9 -54.5 22.5t-45.5 33t-31.5 45.5t-11.5 58q0 45 20.5 78t54.5 54.5t76 31.5t86 10q42 0 84.5 -10t76 -31.5t54.5 -54.5t21 -78q0 -32 -12 -58t-31.5 -45.5t-46 -33
t-54.5 -22.5q31 -10 59 -26t49 -38t33.5 -49.5t12.5 -60.5q0 -44 -19.5 -77.5t-53.5 -57t-78.5 -35.5t-94.5 -12zM303 384q15 3 38 9.5t44.5 18.5t37 30.5t15.5 45.5q0 24 -10.5 42.5t-29 31t-43 19.5t-52.5 7q-59 0 -97.5 -26t-38.5 -74q0 -27 15.5 -45.5t37 -30.5
t45 -18.5t38.5 -9.5zM303 77q29 0 55.5 7.5t46.5 21t32 33t12 43.5q0 29 -17 50.5t-41 35.5t-48.5 21.5t-39.5 9.5q-16 -2 -41 -9.5t-48.5 -21.5t-40.5 -35.5t-17 -50.5q0 -24 11.5 -43.5t32 -33t47 -21t56.5 -7.5z" />
    <glyph glyph-name="nine.tnum" horiz-adv-x="605" 
d="M45 0zM269 -11q-63 0 -109.5 21t-78.5 56l48 75q26 -29 58 -46t82 -17q48 0 82.5 21t56.5 55t32.5 77t10.5 87v23q-12 -17 -30.5 -34.5t-42.5 -32t-52.5 -23.5t-58.5 -9q-45 0 -85.5 13.5t-70.5 40.5t-48 67.5t-18 93.5q0 45 17 85t48 70t75.5 48t99.5 18q72 0 122.5 -28
t83 -75.5t47 -110t14.5 -131.5q0 -70 -17.5 -132.5t-53 -109.5t-88.5 -74.5t-124 -27.5zM292 329q46 0 88 24t68 65q-2 29 -12 59.5t-28.5 55t-47.5 40.5t-70 16q-36 0 -62.5 -12t-44.5 -30.5t-27 -41.5t-9 -45q0 -33 11.5 -58t31.5 -41t46 -24t56 -8z" />
    <glyph glyph-name="zero.tonum" horiz-adv-x="605" 
d="M43 0zM565 275q0 -54 -15.5 -106t-47.5 -92t-81 -64.5t-117 -24.5t-117 24.5t-81 64.5t-47.5 92t-15.5 106q0 55 15.5 106.5t47.5 91.5t81 64.5t117 24.5t117 -24.5t81 -64.5t47.5 -91.5t15.5 -106.5zM463 275q0 38 -9 74t-28.5 63.5t-49.5 44t-72 16.5t-72 -16.5
t-49.5 -44t-28.5 -63.5t-9 -74t9 -74t28.5 -63.5t49.5 -44t72 -16.5t72 16.5t49.5 44t28.5 63.5t9 74z" />
    <glyph glyph-name="zero.tonumzero" horiz-adv-x="605" 
d="M564 275q0 -54 -15.5 -106t-47.5 -92t-81 -64.5t-117 -24.5q-46 0 -83.5 11.5t-66.5 31.5l-23 -31h-77l55 73q-34 41 -50 93t-16 109q0 55 15.5 106.5t47.5 91.5t81 64.5t117 24.5q44 0 79 -10t64 -29l20 27h77l-50 -67q36 -42 53.5 -96t17.5 -112zM462 275q0 35 -7.5 67
t-23.5 59l-221 -294q38 -30 93 -30q42 0 72 16.5t49.5 44t28.5 63.5t9 74zM144 275q0 -32 6 -62.5t20 -56.5l219 291q-17 12 -38.5 19t-47.5 7q-42 0 -72 -16.5t-49.5 -44t-28.5 -63.5t-9 -74z" />
    <glyph glyph-name="one.tonum" horiz-adv-x="605" 
d="M144 0zM311 0v419l-108 -113l-59 61l179 183h88v-550h-100z" />
    <glyph glyph-name="two.tonum" horiz-adv-x="605" 
d="M59 0zM76 0v80q93 36 160 73t109.5 73.5t62.5 71.5t20 68q0 24 -10 43.5t-27 33.5t-40 22t-49 8q-57 0 -104.5 -22t-79.5 -60l-59 65q21 26 48.5 45.5t59.5 33t67 20.5t70 7q49 0 90.5 -12.5t71.5 -36t46.5 -57t16.5 -75.5q0 -44 -21.5 -86t-58 -80t-86 -70.5
t-105.5 -56.5h260v-88h-442z" />
    <glyph glyph-name="three.tonum" horiz-adv-x="605" 
d="M56 0zM301 -128q-87 0 -150 32t-95 77l56 65q32 -38 80.5 -61.5t105.5 -23.5q69 0 108 30.5t39 83.5q0 56 -42 80.5t-115 24.5h-42t-30 -1v91q8 -1 30 -1h42q30 0 57 6t47 18t31.5 30.5t11.5 44.5q0 25 -11 44.5t-30.5 33t-45.5 20t-56 6.5q-53 0 -95 -19.5t-79 -57.5
l-53 62q38 45 96.5 74.5t139.5 29.5q51 0 94 -12t74 -35.5t48.5 -56.5t17.5 -75q0 -35 -13.5 -61.5t-34.5 -45.5t-46.5 -31t-50.5 -16q24 -2 51 -13t50 -31.5t38.5 -50t15.5 -68.5q0 -42 -17 -77.5t-48.5 -61t-76.5 -40t-102 -14.5z" />
    <glyph glyph-name="four.tonum" horiz-adv-x="605" 
d="M46 0zM463 47v-164h-100v164h-317v82l280 421h137v-415h92v-88h-92zM363 459l-218 -324h218v324z" />
    <glyph glyph-name="five.tonum" horiz-adv-x="605" 
d="M65 0zM307 -128q-86 0 -144.5 28t-97.5 77l59 68q33 -41 78 -62.5t104 -21.5q33 0 59.5 10t45.5 27.5t29.5 41.5t10.5 51q0 60 -39 95.5t-104 35.5q-44 0 -80.5 -14t-69.5 -46l-72 23v366h422v-88h-322v-213q24 24 64 41.5t89 17.5q42 0 80.5 -14t68 -41.5t47 -67.5
t17.5 -91t-18.5 -92.5t-51 -70.5t-77.5 -44.5t-98 -15.5z" />
    <glyph glyph-name="six.tonum" horiz-adv-x="605" 
d="M54 0zM320 -12q-72 0 -122.5 28t-82.5 75.5t-46.5 109.5t-14.5 131q0 70 17.5 132.5t52.5 110t88 75t125 27.5q63 0 109.5 -21t78.5 -56l-49 -76q-26 29 -57.5 46.5t-81.5 17.5q-45 0 -79.5 -20t-57 -54t-34 -77.5t-11.5 -89.5v-11.5t1 -10.5q11 17 29.5 34.5t42.5 31.5
t52 23t59 9q45 0 85 -13.5t70.5 -40.5t48 -67t17.5 -93q0 -45 -17 -85t-48 -70.5t-75.5 -48t-99.5 -17.5zM315 77q36 0 63 12t45 30.5t27 41.5t9 45q0 33 -11.5 58t-31.5 41t-46 24t-56 8q-47 0 -89 -24.5t-68 -64.5q3 -29 12.5 -59.5t28.5 -55.5t47.5 -40.5t69.5 -15.5z
" />
    <glyph glyph-name="seven.tonum" horiz-adv-x="605" 
d="M69 0zM161 -116l260 579h-352v88h468v-69l-266 -598h-110z" />
    <glyph glyph-name="eight.tonum" horiz-adv-x="605" 
d="M55 0zM303 -12q-51 0 -96 12t-78.5 35t-53.5 57t-20 78q0 33 12.5 60.5t33.5 49.5t49 38t59 26q-29 9 -54.5 22.5t-45.5 33t-31.5 45.5t-11.5 58q0 45 20.5 78t54.5 54.5t76 31.5t86 10q42 0 84.5 -10t76 -31.5t54.5 -54.5t21 -78q0 -32 -12 -58t-31.5 -45.5t-46 -33
t-54.5 -22.5q31 -10 59 -26t49 -38t33.5 -49.5t12.5 -60.5q0 -44 -19.5 -77.5t-53.5 -57t-78.5 -35.5t-94.5 -12zM303 384q15 3 38 9.5t44.5 18.5t37 30.5t15.5 45.5q0 24 -10.5 42.5t-29 31t-43 19.5t-52.5 7q-59 0 -97.5 -26t-38.5 -74q0 -27 15.5 -45.5t37 -30.5
t45 -18.5t38.5 -9.5zM303 77q29 0 55.5 7.5t46.5 21t32 33t12 43.5q0 29 -17 50.5t-41 35.5t-48.5 21.5t-39.5 9.5q-16 -2 -41 -9.5t-48.5 -21.5t-40.5 -35.5t-17 -50.5q0 -24 11.5 -43.5t32 -33t47 -21t56.5 -7.5z" />
    <glyph glyph-name="nine.tonum" horiz-adv-x="605" 
d="M45 0zM269 -126q-63 0 -109.5 21t-78.5 56l48 75q26 -29 58 -46t82 -17q48 0 82.5 21t56.5 55t32.5 77t10.5 87v23q-12 -17 -30.5 -34.5t-42.5 -32t-52.5 -23.5t-58.5 -9q-45 0 -85.5 13.5t-70.5 40.5t-48 67.5t-18 93.5q0 45 17 85t48 70t75.5 48t99.5 18
q72 0 122.5 -28t83 -75.5t47 -110t14.5 -131.5q0 -70 -17.5 -132.5t-53 -109.5t-88.5 -74.5t-124 -27.5zM292 214q46 0 88 24t68 65q-2 29 -12 59.5t-28.5 55t-47.5 40.5t-70 16q-36 0 -62.5 -12t-44.5 -30.5t-27 -41.5t-9 -45q0 -33 11.5 -58t31.5 -41t46 -24t56 -8z" />
    <glyph glyph-name="zero.onum" horiz-adv-x="614" 
d="M568 275q0 -54 -15.5 -106t-47.5 -92t-81 -64.5t-117 -24.5t-117 24.5t-81 64.5t-47.5 92t-15.5 106q0 55 15.5 106.5t47.5 91.5t81 64.5t117 24.5t117 -24.5t81 -64.5t47.5 -91.5t15.5 -106.5zM466 275q0 38 -9 74t-28.5 63.5t-49.5 44t-72 16.5t-72 -16.5t-49.5 -44
t-28.5 -63.5t-9 -74t9 -74t28.5 -63.5t49.5 -44t72 -16.5t72 16.5t49.5 44t28.5 63.5t9 74z" />
    <glyph glyph-name="zero.onumzero" horiz-adv-x="614" 
d="M47 0zM569 275q0 -54 -15.5 -106t-47.5 -92t-81 -64.5t-117 -24.5q-46 0 -83.5 11.5t-66.5 31.5l-23 -31h-77l55 73q-34 41 -50 93t-16 109q0 55 15.5 106.5t47.5 91.5t81 64.5t117 24.5q44 0 79 -10t64 -29l20 27h77l-50 -67q36 -42 53.5 -96t17.5 -112zM467 275
q0 35 -7.5 67t-23.5 59l-221 -294q38 -30 93 -30q42 0 72 16.5t49.5 44t28.5 63.5t9 74zM149 275q0 -32 6 -62.5t20 -56.5l219 291q-17 12 -38.5 19t-47.5 7q-42 0 -72 -16.5t-49.5 -44t-28.5 -63.5t-9 -74z" />
    <glyph glyph-name="one.onum" horiz-adv-x="359" 
d="M185 0v419l-108 -113l-59 61l179 183h88v-550h-100z" />
    <glyph glyph-name="two.onum" horiz-adv-x="579" 
d="M57 0v80q93 36 160 73t109.5 73.5t62.5 71.5t20 68q0 24 -10 43.5t-27 33.5t-40 22t-49 8q-57 0 -104.5 -22t-79.5 -60l-59 65q21 26 48.5 45.5t59.5 33t67 20.5t70 7q49 0 90.5 -12.5t71.5 -36t46.5 -57t16.5 -75.5q0 -44 -21.5 -86t-58 -80t-86 -70.5t-105.5 -56.5h260
v-88h-442z" />
    <glyph glyph-name="three.onum" horiz-adv-x="561" 
d="M22 0zM267 -126q-87 0 -150 32t-95 77l56 65q32 -38 80.5 -61.5t105.5 -23.5q69 0 108 30.5t39 83.5q0 56 -42 80.5t-115 24.5h-42t-30 -1v91q8 -1 30 -1h42q30 0 57 6t47 18t31.5 30.5t11.5 44.5q0 25 -11 44.5t-30.5 33t-45.5 20t-56 6.5q-53 0 -95 -19.5t-79 -57.5
l-53 62q38 45 96.5 74.5t139.5 29.5q51 0 94 -12t74 -35.5t48.5 -56.5t17.5 -75q0 -35 -13.5 -61.5t-34.5 -45.5t-46.5 -31t-50.5 -16q24 -2 51 -13t50 -31.5t38.5 -50t15.5 -68.5q0 -42 -17 -77.5t-48.5 -61t-76.5 -40t-102 -14.5z" />
    <glyph glyph-name="four.onum" horiz-adv-x="569" 
d="M447 47v-164h-100v164h-317v82l280 421h137v-415h92v-88h-92zM347 459l-218 -324h218v324z" />
    <glyph glyph-name="five.onum" horiz-adv-x="595" 
d="M61 0zM303 -128q-86 0 -144.5 28t-97.5 77l59 68q33 -41 78 -62.5t104 -21.5q33 0 59.5 10t45.5 27.5t29.5 41.5t10.5 51q0 60 -39 95.5t-104 35.5q-44 0 -80.5 -14t-69.5 -46l-72 23v366h422v-88h-322v-213q24 24 64 41.5t89 17.5q42 0 80.5 -14t68 -41.5t47 -67.5
t17.5 -91t-18.5 -92.5t-51 -70.5t-77.5 -44.5t-98 -15.5z" />
    <glyph glyph-name="six.onum" horiz-adv-x="596" 
d="M46 0zM312 -12q-72 0 -122.5 28t-82.5 75.5t-46.5 109.5t-14.5 131q0 70 17.5 132.5t52.5 110t88 75t125 27.5q63 0 109.5 -21t78.5 -56l-49 -76q-26 29 -57.5 46.5t-81.5 17.5q-45 0 -79.5 -20t-57 -54t-34 -77.5t-11.5 -89.5v-11.5t1 -10.5q11 17 29.5 34.5t42.5 31.5
t52 23t59 9q45 0 85 -13.5t70.5 -40.5t48 -67t17.5 -93q0 -45 -17 -85t-48 -70.5t-75.5 -48t-99.5 -17.5zM307 77q36 0 63 12t45 30.5t27 41.5t9 45q0 33 -11.5 58t-31.5 41t-46 24t-56 8q-47 0 -89 -24.5t-68 -64.5q3 -29 12.5 -59.5t28.5 -55.5t47.5 -40.5t69.5 -15.5z
" />
    <glyph glyph-name="seven.onum" horiz-adv-x="523" 
d="M29 0zM121 -116l260 579h-352v88h468v-69l-266 -598h-110z" />
    <glyph glyph-name="eight.onum" horiz-adv-x="588" 
d="M47 0zM295 -12q-51 0 -96 12t-78.5 35t-53.5 57t-20 78q0 33 12.5 60.5t33.5 49.5t49 38t59 26q-29 9 -54.5 22.5t-45.5 33t-31.5 45.5t-11.5 58q0 45 20.5 78t54.5 54.5t76 31.5t86 10q42 0 84.5 -10t76 -31.5t54.5 -54.5t21 -78q0 -32 -12 -58t-31.5 -45.5t-46 -33
t-54.5 -22.5q31 -10 59 -26t49 -38t33.5 -49.5t12.5 -60.5q0 -44 -19.5 -77.5t-53.5 -57t-78.5 -35.5t-94.5 -12zM295 384q15 3 38 9.5t44.5 18.5t37 30.5t15.5 45.5q0 24 -10.5 42.5t-29 31t-43 19.5t-52.5 7q-59 0 -97.5 -26t-38.5 -74q0 -27 15.5 -45.5t37 -30.5
t45 -18.5t38.5 -9.5zM295 77q29 0 55.5 7.5t46.5 21t32 33t12 43.5q0 29 -17 50.5t-41 35.5t-48.5 21.5t-39.5 9.5q-16 -2 -41 -9.5t-48.5 -21.5t-40.5 -35.5t-17 -50.5q0 -24 11.5 -43.5t32 -33t47 -21t56.5 -7.5z" />
    <glyph glyph-name="nine.onum" horiz-adv-x="596" 
d="M43 0zM267 -126q-63 0 -109.5 21t-78.5 56l48 75q26 -29 58 -46t82 -17q48 0 82.5 21t56.5 55t32.5 77t10.5 87v23q-12 -17 -30.5 -34.5t-42.5 -32t-52.5 -23.5t-58.5 -9q-45 0 -85.5 13.5t-70.5 40.5t-48 67.5t-18 93.5q0 45 17 85t48 70t75.5 48t99.5 18
q72 0 122.5 -28t83 -75.5t47 -110t14.5 -131.5q0 -70 -17.5 -132.5t-53 -109.5t-88.5 -74.5t-124 -27.5zM290 214q46 0 88 24t68 65q-2 29 -12 59.5t-28.5 55t-47.5 40.5t-70 16q-36 0 -62.5 -12t-44.5 -30.5t-27 -41.5t-9 -45q0 -33 11.5 -58t31.5 -41t46 -24t56 -8z" />
    <glyph glyph-name="A" unicode="A" horiz-adv-x="666" 
d="M546 0l-54 138h-319l-54 -138h-114l265 667h125l265 -667h-114zM332 565l-130 -338h261z" />
    <glyph glyph-name="B" unicode="B" horiz-adv-x="638" 
d="M74 0v667h313q45 0 80 -13t59 -35.5t36.5 -54t12.5 -67.5q0 -32 -9.5 -58t-25.5 -45.5t-37 -32t-44 -17.5q27 -4 50.5 -19t41 -37t27.5 -50t10 -58q0 -39 -13 -72t-37.5 -57t-60.5 -37.5t-82 -13.5h-321zM368 384q51 0 77.5 27.5t26.5 69.5t-26.5 70t-77.5 28h-194v-195
h194zM373 88q53 0 82.5 28t29.5 77q0 21 -7 39.5t-21 32.5t-35 22.5t-49 8.5h-199v-208h199z" />
    <glyph glyph-name="C" unicode="C" horiz-adv-x="679" 
d="M392 -12q-73 0 -136 25t-109.5 70.5t-73.5 109t-27 140.5t27 140.5t73.5 109t109.5 70.5t136 25q48 0 87 -11t71.5 -30t57.5 -45t45 -55l-85 -45q-26 42 -72.5 69.5t-103.5 27.5q-52 0 -96.5 -19t-77 -53t-51 -81t-18.5 -103t18.5 -103t51 -81t77 -53t96.5 -19
q57 0 103.5 27.5t72.5 69.5l85 -45q-20 -29 -45.5 -55t-57.5 -45t-71 -30t-87 -11z" />
    <glyph glyph-name="D" unicode="D" horiz-adv-x="705" 
d="M74 0v667h238q78 0 142 -25t109 -70t70 -106t25 -133t-25 -133.5t-70 -105.5t-109 -69t-142 -25h-238zM312 88q58 0 103 19.5t76 52.5t47.5 77.5t16.5 95.5t-16 96t-46.5 78.5t-76 52.5t-104.5 19h-138v-491h138z" />
    <glyph glyph-name="E" unicode="E" horiz-adv-x="573" 
d="M74 0v667h448v-88h-348v-195h341v-88h-341v-208h348v-88h-448z" />
    <glyph glyph-name="F" unicode="F" horiz-adv-x="556" 
d="M74 0v667h448v-88h-348v-195h341v-88h-341v-296h-100z" />
    <glyph glyph-name="G" unicode="G" horiz-adv-x="715" 
d="M392 -13q-72 0 -135 25t-110 70t-74 109t-27 142t27 141.5t74 109t110 70t135 24.5q47 0 86 -10t71.5 -28t59 -42t47.5 -52l-81 -47q-29 38 -76.5 64t-106.5 26q-52 0 -96.5 -19t-77 -53t-51 -81t-18.5 -103t18.5 -103t51 -81.5t77 -53.5t96.5 -19q28 0 53 6t47 15.5
t39.5 21.5t29.5 23v120h-214v88h314v-245q-48 -54 -116 -86t-153 -32z" />
    <glyph glyph-name="G.alt1" horiz-adv-x="739" 
d="M384 -13q-69 0 -130 25t-107.5 70t-73.5 109t-27 142t27 141.5t74 109t110 70t135 24.5q47 0 86 -10t71.5 -28t59 -42t47.5 -52l-81 -47q-29 38 -76.5 64t-106.5 26q-52 0 -96.5 -19t-77 -53t-51 -81t-18.5 -103t18.5 -103t51 -81.5t77 -53.5t96.5 -19q47 0 83 15.5
t62.5 41t42.5 59t22 70.5h-255v88h364q0 -81 -22 -148t-63.5 -115t-102.5 -74t-139 -26z" />
    <glyph glyph-name="H" unicode="H" horiz-adv-x="717" 
d="M543 0v298h-369v-298h-100v667h100v-280h369v280h100v-667h-100z" />
    <glyph glyph-name="I" unicode="I" horiz-adv-x="249" 
d="M74 0v667h100v-667h-100z" />
    <glyph glyph-name="J" unicode="J" horiz-adv-x="478" 
d="M185 -12q-53 0 -96.5 17t-78.5 56l48 76q21 -24 49.5 -42t70.5 -18q58 0 91.5 35.5t33.5 94.5v460h100v-461q0 -56 -16.5 -97t-46 -68t-69.5 -40t-86 -13z" />
    <glyph glyph-name="K" unicode="K" horiz-adv-x="611" 
d="M475 0l-238 290l-63 -71v-219h-100v667h100v-331l279 331h124l-275 -316l297 -351h-124z" />
    <glyph glyph-name="L" unicode="L" horiz-adv-x="513" 
d="M74 0v667h100v-579h303v-88h-403z" />
    <glyph glyph-name="M" unicode="M" horiz-adv-x="822" 
d="M648 0v522l-216 -522h-42l-216 522v-522h-100v667h143l194 -471l194 471h143v-667h-100z" />
    <glyph glyph-name="N" unicode="N" horiz-adv-x="714" 
d="M543 0l-369 504v-504h-100v667h103l363 -492v492h100v-667h-97z" />
    <glyph glyph-name="O" unicode="O" horiz-adv-x="765" 
d="M382 -12q-75 0 -136.5 26t-106 72t-69 109.5t-24.5 137.5t24.5 137.5t69 109.5t106 72t136.5 26t136.5 -26t106 -72t69 -109.5t24.5 -137.5t-24.5 -137.5t-69 -109.5t-106 -72t-136.5 -26zM382 77q53 0 96 19.5t73.5 54t47 81t16.5 101.5t-16.5 102t-47 81t-73.5 53.5
t-96 19.5q-54 0 -97 -19.5t-73 -53.5t-46.5 -81t-16.5 -102t16.5 -101.5t46.5 -81t73 -54t97 -19.5z" />
    <glyph glyph-name="P" unicode="P" horiz-adv-x="597" 
d="M74 0v667h281q51 0 91 -16.5t67 -44.5t41 -65t14 -79t-14 -79t-41.5 -65t-67 -44.5t-90.5 -16.5h-181v-257h-100zM342 345q54 0 88.5 32t34.5 85t-34.5 85t-88.5 32h-168v-234h168z" />
    <glyph glyph-name="Q" unicode="Q" horiz-adv-x="765" 
d="M382 -12q-75 0 -136.5 26t-106 72t-69 109.5t-24.5 137.5t24.5 137.5t69 109.5t106 72t136.5 26t136.5 -26t106 -72t69 -109.5t24.5 -137.5q0 -73 -23.5 -135t-66.5 -108l59 -65l-69 -59l-61 67q-38 -22 -81.5 -33.5t-93.5 -11.5zM382 77q63 0 111 27l-89 98l70 59
l88 -98q26 34 39.5 77t13.5 93q0 55 -16.5 102t-47 81t-73.5 53.5t-96 19.5q-54 0 -97 -19.5t-73 -53.5t-46.5 -81t-16.5 -102t16.5 -101.5t46.5 -81t73 -54t97 -19.5z" />
    <glyph glyph-name="R" unicode="R" horiz-adv-x="618" 
d="M458 0l-159 257h-125v-257h-100v667h281q48 0 87 -14.5t67.5 -41.5t44 -65t15.5 -84q0 -45 -14 -79.5t-37 -59t-53 -38.5t-62 -18l171 -267h-116zM342 345q54 0 89 32t35 85t-35 85t-89 32h-168v-234h168z" />
    <glyph glyph-name="S" unicode="S" horiz-adv-x="590" 
d="M296 -12q-90 0 -155 29t-108 77l57 77q34 -38 87 -66t123 -28q40 0 68 9.5t45.5 24t25 33t7.5 36.5q0 26 -13 44t-35.5 30t-51.5 21t-61 17q-40 10 -81 23t-74.5 34t-54.5 54t-21 84q0 41 17.5 76t48.5 60.5t74.5 39.5t95.5 14q78 0 138 -24t105 -69l-58 -74
q-38 41 -88.5 59.5t-104.5 18.5q-56 0 -90.5 -26t-34.5 -68q0 -23 12.5 -38t34 -26.5t49.5 -19.5t59 -16q41 -11 83 -24.5t76 -36t55.5 -57t21.5 -87.5q0 -39 -14 -75.5t-44.5 -64t-78.5 -44.5t-115 -17z" />
    <glyph glyph-name="T" unicode="T" horiz-adv-x="573" 
d="M237 0v579h-207v88h513v-88h-206v-579h-100z" />
    <glyph glyph-name="U" unicode="U" horiz-adv-x="710" 
d="M355 -12q-70 0 -122.5 19.5t-88 55.5t-53 86t-17.5 112v406h101v-403q0 -86 46 -136.5t134 -50.5t133.5 50.5t45.5 136.5v403h101v-405q0 -62 -17.5 -112.5t-52.5 -86.5t-87.5 -55.5t-122.5 -19.5z" />
    <glyph glyph-name="V" unicode="V" horiz-adv-x="666" 
d="M270 0l-265 667h114l213 -558l214 558h114l-265 -667h-125z" />
    <glyph glyph-name="W" unicode="W" horiz-adv-x="893" 
d="M585 0l-139 515l-138 -515h-107l-191 667h112l138 -535l146 535h81l145 -535l138 535h112l-190 -667h-107z" />
    <glyph glyph-name="X" unicode="X" horiz-adv-x="656" 
d="M528 0l-200 272l-200 -272h-121l256 342l-241 325h121l185 -256l184 256h121l-239 -324l254 -343h-120z" />
    <glyph glyph-name="Y" unicode="Y" horiz-adv-x="632" 
d="M266 0v279l-261 388h115l196 -298l194 298h116l-260 -388v-279h-100z" />
    <glyph glyph-name="Z" unicode="Z" horiz-adv-x="587" 
d="M46 0v82l358 497h-358v88h487v-82l-358 -497h365v-88h-494z" />
    <glyph glyph-name="a" unicode="a" horiz-adv-x="532" 
d="M370 0v53q-29 -32 -69 -48.5t-89 -16.5q-30 0 -60 10t-54 30t-39 50t-15 70q0 41 15 71t39 49.5t54 28.5t60 9q49 0 89.5 -16t68.5 -48v80q0 45 -33 70.5t-85 25.5q-81 0 -145 -64l-39 62q80 79 198 79q39 0 74.5 -9t62 -29.5t42 -52.5t15.5 -78v-326h-90zM246 51
q38 0 71 14t53 41v82q-20 27 -53 41t-71 14q-49 0 -80 -26.5t-31 -69.5t31 -69.5t80 -26.5z" />
    <glyph glyph-name="a.alt1" horiz-adv-x="578" 
d="M416 0v69q-27 -36 -68.5 -58.5t-89.5 -22.5q-47 0 -87 17.5t-68.5 50t-44.5 79.5t-16 106q0 58 16 105t44.5 80t68.5 51t87 18t88 -21.5t70 -60.5v70h90v-483h-90zM282 68q42 0 78.5 20.5t55.5 49.5v205q-19 29 -55.5 50t-78.5 21q-34 0 -61 -13t-46 -36t-29 -54.5
t-10 -69.5t10 -69.5t29 -54.5t46 -36t61 -13z" />
    <glyph glyph-name="b" unicode="b" horiz-adv-x="578" 
d="M162 138q18 -29 55.5 -49.5t78.5 -20.5q34 0 61 13t46 36t29 54.5t10 69.5t-10 70t-29 55t-46 36t-61 13q-41 0 -78.5 -21.5t-55.5 -50.5v-205zM72 0v667h90v-254q29 39 69.5 60.5t88.5 21.5q47 0 86.5 -18t68 -51t44.5 -80t16 -105q0 -59 -16 -106t-44.5 -79.5t-68 -50
t-86.5 -17.5q-49 0 -90 22.5t-68 58.5v-69h-90z" />
    <glyph glyph-name="c" unicode="c" horiz-adv-x="496" 
d="M288 -12q-55 0 -100 19.5t-77.5 53.5t-50.5 80.5t-18 100.5t18 100.5t50.5 80.5t77.5 53t100 19q69 0 112 -25t69 -60l-60 -55q-42 60 -117 60q-36 0 -64.5 -13t-49 -36t-31.5 -55t-11 -69q0 -38 11 -69.5t31.5 -55t49 -36.5t64.5 -13q73 0 117 60l60 -55
q-26 -35 -69 -60t-112 -25z" />
    <glyph glyph-name="d" unicode="d" horiz-adv-x="578" 
d="M416 0v69q-27 -36 -68.5 -58.5t-89.5 -22.5q-47 0 -87 17.5t-68.5 50t-44.5 79.5t-16 106q0 58 16 105t44.5 80t68.5 51t87 18t88 -21.5t70 -60.5v254h90v-667h-90zM282 68q42 0 78.5 20.5t55.5 49.5v206q-19 29 -55.5 50t-78.5 21q-34 0 -61 -13t-46 -36t-29 -55
t-10 -70t10 -69.5t29 -54.5t46 -36t61 -13z" />
    <glyph glyph-name="e" unicode="e" horiz-adv-x="560" 
d="M292 -12q-54 0 -100 18.5t-79 51.5t-52 80t-19 104q0 52 18 98.5t50 80.5t76.5 54t97.5 20q54 0 97.5 -20t74 -55t47 -83t16.5 -103v-22h-382q3 -31 15 -58t33 -47.5t50.5 -32.5t65.5 -12q38 0 77 14.5t66 42.5l42 -59q-36 -35 -85.5 -53.5t-108.5 -18.5zM431 277
q-1 24 -9.5 49.5t-26.5 46.5t-45.5 34.5t-65.5 13.5q-36 0 -63 -13t-45.5 -34t-28 -46.5t-11.5 -50.5h295z" />
    <glyph glyph-name="f" unicode="f" horiz-adv-x="296" 
d="M94 0v404h-80v79h80v32q0 78 41 120t106 42q47 0 79 -18l-21 -67q-19 11 -43 11q-34 0 -53 -22t-19 -66v-32h98v-79h-98v-404h-90z" />
    <glyph glyph-name="f.alt1" horiz-adv-x="296" 
d="M94 0v404h-80v79h80v32q0 78 41 120t106 42q47 0 79 -18l-21 -67q-17 11 -43 11q-34 0 -53 -22t-19 -66v-32h98v-79h-98v-404h-90z" />
    <glyph glyph-name="g" unicode="g" horiz-adv-x="577" 
d="M266 -196q-61 0 -108 15.5t-90 56.5l43 66q30 -35 67.5 -49.5t87.5 -14.5q28 0 55 7t48 23.5t34 43t13 64.5v63q-28 -36 -69 -59.5t-90 -23.5q-47 0 -86.5 17t-68 49t-44.5 78.5t-16 105.5q0 58 16 104t44.5 78.5t68 49.5t86.5 17q48 0 89 -21.5t70 -60.5v70h90v-464
q0 -62 -21 -103.5t-54.5 -66.5t-76.5 -35t-88 -10zM282 76q41 0 78 21.5t56 50.5v196q-19 29 -56 50t-78 21q-34 0 -61 -12.5t-46 -35t-29 -53.5t-10 -68q0 -38 10 -69t29 -53.5t46 -35t61 -12.5z" />
    <glyph glyph-name="h" unicode="h" horiz-adv-x="560" 
d="M398 0v311q0 60 -28 82t-75 22q-42 0 -77.5 -21.5t-55.5 -48.5v-345h-90v667h90v-252q12 15 30 29t40 25.5t47.5 18.5t53.5 7q155 0 155 -154v-341h-90z" />
    <glyph glyph-name="i" unicode="i" horiz-adv-x="233" 
d="M116 547q-23 0 -40.5 17t-17.5 41t17.5 40.5t40.5 16.5q24 0 41 -16.5t17 -40.5t-17 -41t-41 -17zM72 0v483h90v-483h-90z" />
    <glyph glyph-name="j" unicode="j" horiz-adv-x="233" 
d="M116 547q-23 0 -40.5 17t-17.5 41t17.5 40.5t40.5 16.5q24 0 41 -16.5t17 -40.5t-17 -41t-41 -17zM11 -196q-31 0 -55 6l11 75q7 -2 16 -3t17 -1q31 0 51.5 18.5t20.5 62.5v521h90v-521q0 -75 -38.5 -116.5t-112.5 -41.5z" />
    <glyph glyph-name="k" unicode="k" horiz-adv-x="520" 
d="M396 0l-161 208l-73 -74v-134h-90v667h90v-429l233 245h113l-208 -219l210 -264h-114z" />
    <glyph glyph-name="l" unicode="l" horiz-adv-x="233" 
d="M72 0v667h90v-667h-90z" />
    <glyph glyph-name="l.alt1" horiz-adv-x="277" 
d="M187 -12q-58 0 -86.5 31t-28.5 88v560h90v-540q0 -26 12 -42.5t35 -16.5q16 0 28.5 5.5t19.5 13.5l24 -68q-14 -14 -36.5 -22.5t-57.5 -8.5z" />
    <glyph glyph-name="m" unicode="m" horiz-adv-x="820" 
d="M659 0v322q0 42 -19.5 67.5t-64.5 25.5q-18 0 -36 -6t-34 -15.5t-28.5 -22t-21.5 -25.5v-346h-90v322q0 42 -19.5 67.5t-65.5 25.5q-18 0 -35 -6t-32.5 -16t-28.5 -22.5t-22 -25.5v-345h-90v483h90v-68q7 11 22.5 25t36 26t45.5 20.5t52 8.5q55 0 87.5 -25.5t43.5 -64.5
q10 17 27 33t38.5 29t46 20.5t51.5 7.5q67 0 102 -36.5t35 -109.5v-349h-90z" />
    <glyph glyph-name="n" unicode="n" 
d="M398 0v309q0 60 -28 83t-75 23q-42 0 -77.5 -21.5t-55.5 -48.5v-345h-90v483h90v-68q12 15 29.5 29t39.5 25.5t48 18.5t54 7q77 0 116 -39.5t39 -116.5v-339h-90z" />
    <glyph glyph-name="o" unicode="o" horiz-adv-x="572" 
d="M286 -12q-56 0 -101.5 20t-77 54.5t-48.5 80.5t-17 99q0 52 17 98t48.5 80.5t77 54.5t101.5 20q57 0 102 -20t76.5 -54.5t48.5 -80.5t17 -98q0 -53 -17 -99t-48.5 -80.5t-76.5 -54.5t-102 -20zM286 68q36 0 64 14t47 38t29 55.5t10 66.5q0 34 -10 65.5t-29 55.5t-47 38
t-64 14t-64 -14t-47 -38t-29 -55.5t-10 -65.5q0 -35 10 -66.5t29 -55.5t47 -38t64 -14z" />
    <glyph glyph-name="p" unicode="p" horiz-adv-x="575" 
d="M320 -12q-48 0 -88.5 21t-69.5 61v-254h-90v667h90v-69q26 36 67.5 58.5t90.5 22.5q47 0 86.5 -17.5t68 -50t44.5 -79.5t16 -106t-16 -106t-44.5 -80t-68 -50.5t-86.5 -17.5zM296 68q34 0 60.5 13t45.5 36t29 55t10 70q0 37 -10 69t-29 55t-45.5 36t-60.5 13
q-41 0 -78.5 -21t-55.5 -50v-205q18 -29 55 -50t79 -21z" />
    <glyph glyph-name="q" unicode="q" horiz-adv-x="575" 
d="M279 68q41 0 78.5 21t55.5 50v205q-9 15 -23.5 27.5t-32.5 22.5t-38 15.5t-40 5.5q-34 0 -61 -13t-45.5 -36t-28.5 -55t-10 -69q0 -38 10 -70t28.5 -55t45.5 -36t61 -13zM254 -12q-47 0 -86.5 17.5t-68 50.5t-44 80t-15.5 106t15.5 106t44 79.5t68 50t86.5 17.5
q50 0 91.5 -22.5t67.5 -58.5v69h90v-667h-90v254q-29 -40 -70 -61t-89 -21z" />
    <glyph glyph-name="r" unicode="r" horiz-adv-x="338" 
d="M72 0v483h90v-74q28 36 69 60.5t89 24.5v-91q-14 3 -31 3t-36 -6t-36.5 -15.5t-32 -22.5t-22.5 -26v-336h-90z" />
    <glyph glyph-name="s" unicode="s" horiz-adv-x="468" 
d="M231 -12q-61 0 -112.5 18.5t-88.5 56.5l43 66q25 -27 69 -48t93 -21q51 0 77.5 21t26.5 53q0 17 -9.5 28.5t-25.5 20t-37.5 14t-44.5 10.5q-31 7 -62.5 16t-57 24.5t-42 40.5t-16.5 64q0 29 12 55t35.5 45.5t58 31t78.5 11.5q63 0 108 -20t76 -49l-40 -63
q-21 26 -59 42.5t-84 16.5t-72.5 -19t-26.5 -48q0 -15 9 -25.5t24.5 -17.5t35.5 -12.5t43 -10.5q31 -7 64 -16.5t59.5 -26t43.5 -42.5t17 -68q0 -31 -12.5 -58t-37.5 -47t-61 -31.5t-84 -11.5z" />
    <glyph glyph-name="t" unicode="t" horiz-adv-x="306" 
d="M205 -12q-57 0 -86 31t-29 88v297h-80v79h80v132h90v-132h98v-79h-98v-277q0 -26 12 -42.5t35 -16.5q16 0 29 5.5t20 13.5l23 -68q-14 -14 -36.5 -22.5t-57.5 -8.5z" />
    <glyph glyph-name="u" unicode="u" 
d="M398 0v66q-28 -30 -72 -54t-100 -24q-154 0 -154 154v341h90v-311q0 -60 27.5 -82t74.5 -22q42 0 78 20.5t56 47.5v347h90v-483h-90z" />
    <glyph glyph-name="v" unicode="v" horiz-adv-x="497" 
d="M200 0l-199 483h96l151 -379l151 379h97l-199 -483h-97z" />
    <glyph glyph-name="w" unicode="w" horiz-adv-x="744" 
d="M491 0l-119 371l-119 -371h-93l-152 483h94l110 -368l121 368h78l121 -368l110 368h94l-152 -483h-93z" />
    <glyph glyph-name="x" unicode="x" horiz-adv-x="491" 
d="M381 0l-135 188l-136 -188h-102l181 248l-170 235h102l125 -174l124 174h102l-171 -235l182 -248h-102z" />
    <glyph glyph-name="y" unicode="y" horiz-adv-x="497" 
d="M62 -108q8 -4 19.5 -6t20.5 -2q25 0 42 10t28 37l28 64l-199 488h96l151 -379l151 379h97l-238 -575q-23 -57 -62 -80t-92 -24q-11 0 -28 2t-28 5z" />
    <glyph glyph-name="y.alt1" 
d="M256 -196q-61 0 -106.5 17.5t-83.5 54.5l43 66q28 -34 66.5 -49t80.5 -15q67 0 104.5 36.5t37.5 103.5v61q-28 -31 -72 -54.5t-100 -23.5q-154 0 -154 153v329h90v-298q0 -60 27.5 -82t74.5 -22q42 0 78 20.5t56 47.5v334h90v-465q0 -54 -18 -94t-49.5 -67t-74 -40
t-90.5 -13z" />
    <glyph glyph-name="z" unicode="z" horiz-adv-x="474" 
d="M49 0v69l252 335h-252v79h371v-67l-254 -338h258v-78h-375z" />
    <glyph glyph-name="A.smcp" horiz-adv-x="579" 
d="M346 550l230 -550h-105l-47 112h-269l-46 -112h-106l230 550h113zM290 453l-107 -260h213z" />
    <glyph glyph-name="B.smcp" horiz-adv-x="563" 
d="M72 0v550h272q79 0 122 -40t43 -101q0 -50 -28 -82t-66 -43q22 -5 41.5 -18t34 -31t22.5 -40t8 -46q0 -33 -11.5 -60t-33 -47t-53.5 -31t-72 -11h-279zM336 82q42 0 65.5 21t23.5 57q0 32 -23 56t-66 24h-171v-158h171zM331 322q40 0 61.5 20.5t21.5 52.5t-22 52.5
t-61 20.5h-166v-146h166z" />
    <glyph glyph-name="C.smcp" horiz-adv-x="583" 
d="M338 -12q-63 0 -117 21t-94 59t-62.5 91t-22.5 116q0 64 22.5 116.5t62.5 90.5t94 59t117 21q78 0 133.5 -34.5t90.5 -86.5l-76 -40q-23 35 -62 56.5t-86 21.5q-43 0 -79.5 -15t-63.5 -42t-42 -64.5t-15 -82.5q0 -44 15 -81.5t42 -64.5t63.5 -42.5t79.5 -15.5
q47 0 86.5 21t61.5 56l76 -39q-35 -53 -90.5 -87t-133.5 -34z" />
    <glyph glyph-name="D.smcp" horiz-adv-x="618" 
d="M72 0v550h208q68 0 122.5 -21t93 -57.5t59.5 -87t21 -110.5q0 -59 -21 -109.5t-59.5 -87t-93 -57t-122.5 -20.5h-208zM280 82q48 0 85.5 15t62.5 41t38 61t13 75t-12.5 75.5t-37 61.5t-62 41.5t-87.5 15.5h-115v-386h115z" />
    <glyph glyph-name="E.smcp" horiz-adv-x="512" 
d="M72 0v550h391v-82h-298v-146h292v-82h-292v-158h298v-82h-391z" />
    <glyph glyph-name="F.smcp" horiz-adv-x="496" 
d="M72 0v550h391v-82h-298v-146h292v-82h-292v-240h-93z" />
    <glyph glyph-name="G.smcp" horiz-adv-x="623" 
d="M339 -12q-62 0 -116.5 21t-94.5 58.5t-63 90.5t-23 117t23 117t63 91t94.5 58.5t116.5 20.5q75 0 131 -30.5t92 -75.5l-74 -47q-25 31 -63.5 50.5t-85.5 19.5q-43 0 -79.5 -15t-63.5 -42t-42 -64.5t-15 -82.5q0 -44 15 -81.5t42 -65t63.5 -43t79.5 -15.5q46 0 80.5 17
t54.5 35v93h-158v78h252v-206q-42 -45 -100.5 -72t-128.5 -27z" />
    <glyph glyph-name="G.smcp.alt1" horiz-adv-x="639" 
d="M335 -12q-61 0 -114.5 21t-93 58.5t-62.5 90.5t-23 117t23 117t63 91t94.5 58.5t116.5 20.5q75 0 131 -30.5t92 -75.5l-74 -47q-25 32 -63.5 51t-85.5 19q-43 0 -79.5 -15t-63.5 -42t-42 -64.5t-15 -82.5q0 -44 15 -81.5t42 -65t63.5 -43t79.5 -15.5q31 0 59.5 9.5
t51 28.5t38 45.5t21.5 61.5h-193v78h292q0 -71 -19.5 -127.5t-55.5 -96t-86.5 -60.5t-111.5 -21z" />
    <glyph glyph-name="H.smcp" horiz-adv-x="640" 
d="M475 0v241h-310v-241h-93v550h93v-227h310v227h93v-550h-93z" />
    <glyph glyph-name="I.smcp" horiz-adv-x="237" 
d="M72 0v550h93v-550h-93z" />
    <glyph glyph-name="J.smcp" horiz-adv-x="425" 
d="M157 -12q-92 0 -150 65l42 69q18 -22 43 -36.5t59 -14.5q50 0 79 28.5t29 76.5v374h94v-381q0 -47 -14.5 -81t-40.5 -56t-62 -33t-79 -11z" />
    <glyph glyph-name="K.smcp" horiz-adv-x="543" 
d="M418 0l-203 235l-50 -55v-180h-93v550h93v-263l234 263h115l-239 -261l258 -289h-115z" />
    <glyph glyph-name="L.smcp" horiz-adv-x="461" 
d="M72 0v550h93v-468h260v-82h-353z" />
    <glyph glyph-name="M.smcp" horiz-adv-x="729" 
d="M564 0v408l-178 -408h-42l-179 408v-408h-93v550h126l167 -381l166 381h127v-550h-94z" />
    <glyph glyph-name="N.smcp" horiz-adv-x="636" 
d="M470 0l-305 404v-404h-93v550h98l301 -395v395h94v-550h-95z" />
    <glyph glyph-name="O.smcp" horiz-adv-x="660" 
d="M330 -12q-65 0 -118 22t-91 60.5t-58.5 91t-20.5 113.5t20.5 113.5t58.5 91t91 60.5t118 22q64 0 117 -22t90.5 -60.5t58.5 -91t21 -113.5t-21 -113.5t-58.5 -91t-90.5 -60.5t-117 -22zM330 71q43 0 78.5 15.5t60.5 43t38.5 64.5t13.5 81t-13.5 81.5t-38.5 64.5
t-60.5 42.5t-78.5 15.5q-44 0 -79.5 -15.5t-60.5 -42.5t-38.5 -64.5t-13.5 -81.5t13.5 -81t38.5 -64.5t60.5 -43t79.5 -15.5z" />
    <glyph glyph-name="P.smcp" horiz-adv-x="531" 
d="M72 0v550h248q45 0 79.5 -14t57.5 -37t35 -54.5t12 -65.5q0 -35 -11.5 -66.5t-34.5 -55t-57.5 -37.5t-80.5 -14h-155v-206h-93zM310 288q49 0 73.5 25.5t24.5 65.5q0 38 -25 63.5t-73 25.5h-145v-180h145z" />
    <glyph glyph-name="Q.smcp" horiz-adv-x="660" 
d="M330 -12q-65 0 -118 22t-91 60.5t-58.5 91t-20.5 113.5t20.5 113.5t58.5 91t91 60.5t118 22q64 0 117 -22t90.5 -60.5t58.5 -91t21 -113.5t-20.5 -113.5t-58.5 -90.5l48 -54l-57 -48l-51 56q-65 -37 -148 -37zM330 71q49 0 89 20l-69 78l57 49l70 -79q21 26 32.5 61
t11.5 75q0 44 -13.5 81.5t-38.5 64.5t-60.5 42.5t-78.5 15.5q-44 0 -79.5 -15.5t-60.5 -42.5t-38.5 -64.5t-13.5 -81.5t13.5 -81t38.5 -64.5t60.5 -43t79.5 -15.5z" />
    <glyph glyph-name="R.smcp" horiz-adv-x="553" 
d="M402 0l-134 206h-103v-206h-93v550h248q44 0 78 -13.5t57.5 -36.5t36 -54t12.5 -67t-11 -65.5t-30 -50.5t-45 -33.5t-56 -15.5l149 -214h-109zM310 288q49 0 74 25.5t25 65.5q0 39 -25.5 64t-73.5 25h-145v-180h145z" />
    <glyph glyph-name="S.smcp" horiz-adv-x="508" 
d="M253 -12q-75 0 -132.5 24t-92.5 61l47 71q28 -29 75.5 -52.5t104.5 -23.5q66 0 95 25.5t29 58.5q0 21 -11 35t-30 23.5t-43 16.5t-51 14q-35 8 -70 18t-63.5 27.5t-46.5 44.5t-18 70q0 34 15.5 63.5t42.5 51.5t64.5 34t82.5 12q69 0 121 -21t90 -58l-47 -67
q-31 32 -75.5 48.5t-89.5 16.5q-48 0 -78 -21.5t-30 -55.5q0 -17 10 -29t27.5 -20.5t40 -15t48.5 -12.5q35 -8 72 -18.5t67 -29.5t49 -48t19 -75q0 -36 -13.5 -67t-41.5 -53.5t-69.5 -35t-97.5 -12.5z" />
    <glyph glyph-name="T.smcp" horiz-adv-x="476" 
d="M191 0v468h-166v82h426v-82h-167v-468h-93z" />
    <glyph glyph-name="U.smcp" horiz-adv-x="629" 
d="M315 -12q-61 0 -106.5 16t-76 45.5t-45.5 71t-15 92.5v337h94v-329q0 -69 38 -109.5t111 -40.5q72 0 110 40.5t38 109.5v329h95v-336q0 -103 -61 -164.5t-182 -61.5z" />
    <glyph glyph-name="V.smcp" horiz-adv-x="579" 
d="M233 0l-230 550h107l180 -447l181 447h105l-230 -550h-113z" />
    <glyph glyph-name="W.smcp" horiz-adv-x="773" 
d="M502 0l-116 410l-116 -410h-98l-165 550h104l115 -424l123 424h76l122 -425l116 425h103l-166 -550h-98z" />
    <glyph glyph-name="X.smcp" horiz-adv-x="572" 
d="M455 0l-169 219l-170 -219h-111l220 282l-207 268h111l157 -205l156 205h112l-208 -267l221 -283h-112z" />
    <glyph glyph-name="Y.smcp" horiz-adv-x="552" 
d="M231 0v231l-228 319h108l167 -240l163 240h107l-224 -319v-231h-93z" />
    <glyph glyph-name="Z.smcp" horiz-adv-x="518" 
d="M38 0v69l308 398h-308v83h435v-70l-307 -397h314v-83h-442z" />
    <glyph glyph-name="Aacute" unicode="&#xc1;" horiz-adv-x="666" 
d="M5 0zM546 0l-54 138h-319l-54 -138h-114l265 667h125l265 -667h-114zM332 565l-130 -338h261zM340 723h-66l144 144h89z" />
    <glyph glyph-name="Abreve" unicode="&#x102;" horiz-adv-x="666" 
d="M5 0zM546 0l-54 138h-319l-54 -138h-114l265 667h125l265 -667h-114zM332 565l-130 -338h261zM507 791q-30 -41 -75.5 -64.5t-99.5 -23.5t-99.5 23.5t-76.5 64.5l43 36q23 -32 56.5 -50.5t76.5 -18.5q42 0 76 18.5t57 50.5l42 -36v0z" />
    <glyph glyph-name="Acircumflex" unicode="&#xc2;" horiz-adv-x="666" 
d="M5 0zM412 723l-80 101l-78 -101h-58l94 144h84l97 -144h-59zM546 0l-54 138h-319l-54 -138h-114l265 667h125l265 -667h-114zM332 565l-130 -338h261z" />
    <glyph glyph-name="Adieresis" unicode="&#xc4;" horiz-adv-x="666" 
d="M5 0zM490 773q0 -22 -15.5 -37.5t-37.5 -15.5t-37.5 15.5t-15.5 37.5t15.5 37t37.5 15t37.5 -15t15.5 -37zM281 773q0 -22 -15 -37.5t-37 -15.5t-37 15.5t-15 37.5t15 37t37 15t37 -15t15 -37zM546 0l-54 138h-319l-54 -138h-114l265 667h125l265 -667h-114zM332 565
l-130 -338h261z" />
    <glyph glyph-name="Agrave" unicode="&#xc0;" horiz-adv-x="666" 
d="M5 0zM546 0l-54 138h-319l-54 -138h-114l265 667h125l265 -667h-114zM332 565l-130 -338h261zM326 723l-167 144h89l144 -144h-66z" />
    <glyph glyph-name="Amacron" unicode="&#x100;" horiz-adv-x="666" 
d="M5 0zM546 0l-54 138h-319l-54 -138h-114l265 667h125l265 -667h-114zM332 565l-130 -338h261zM150 736v55h363v-55h-363z" />
    <glyph glyph-name="Aogonek" unicode="&#x104;" horiz-adv-x="666" 
d="M640 -169q-28 -17 -74 -17q-20 0 -38.5 4.5t-32.5 14t-22.5 24t-8.5 33.5q0 18 9 35t24.5 31t35 25t40.5 19h-27l-54 138h-319l-54 -138h-114l265 667h125l265 -667h-20q-45 -18 -68.5 -40t-23.5 -49q0 -17 11 -26t27 -9q8 0 16 1.5t16 6.5zM332 565l-130 -338h261z" />
    <glyph glyph-name="Aring" unicode="&#xc5;" horiz-adv-x="666" 
d="M5 0zM546 0l-54 138h-319l-54 -138h-114l265 667h125l265 -667h-114zM332 565l-130 -338h261zM333 689q-21 0 -39 8t-31.5 22t-21.5 32t-8 39t8 39t21.5 32t31.5 22t39 8t39 -8t31.5 -22t21 -32t7.5 -39t-7.5 -39t-21 -32t-31.5 -22t-39 -8zM333 734q23 0 39 16.5
t16 39.5t-16 39t-39 16t-39 -16t-16 -39t16 -39.5t39 -16.5z" />
    <glyph glyph-name="Atilde" unicode="&#xc3;" horiz-adv-x="666" 
d="M5 0zM546 0l-54 138h-319l-54 -138h-114l265 667h125l265 -667h-114zM332 565l-130 -338h261zM391 721q-30 0 -46.5 16t-29.5 33q-10 14 -20 25t-25 11q-19 0 -32 -18.5t-13 -60.5h-51q0 60 25.5 97t74.5 37q29 0 45.5 -16t29.5 -33q11 -14 21 -25t25 -11q19 0 31.5 18.5
t12.5 60.5h52q0 -60 -25.5 -97t-74.5 -37z" />
    <glyph glyph-name="uni1EA0" unicode="&#x1ea0;" horiz-adv-x="666" 
d="M5 0zM546 0l-54 138h-319l-54 -138h-114l265 667h125l265 -667h-114zM332 565l-130 -338h261zM333 -186q-22 0 -37.5 15t-15.5 38q0 21 15.5 37t37.5 16t37 -16t15 -37q0 -23 -15 -38t-37 -15z" />
    <glyph glyph-name="uni1EA2" unicode="&#x1ea2;" horiz-adv-x="666" 
d="M5 0zM546 0l-54 138h-319l-54 -138h-114l265 667h125l265 -667h-114zM332 565l-130 -338h261zM257 765q8 24 27 39.5t48 15.5t51.5 -16.5t22.5 -53.5q0 -16 -4.5 -28t-13.5 -25h-44q12 13 17 25.5t5 25.5q0 19 -9.5 28t-24.5 9q-28 0 -39 -31z" />
    <glyph glyph-name="uni1EA4" unicode="&#x1ea4;" horiz-adv-x="666" 
d="M5 0zM412 682l-80 75.75l-78 -75.75h-58l94 108h84l97 -108h-59zM546 0l-54 138h-319l-54 -138h-114l265 667h125l265 -667h-114zM332 565l-130 -338h261zM505 736h-66l144 108h89z" />
    <glyph glyph-name="uni1EAC" unicode="&#x1eac;" horiz-adv-x="666" 
d="M5 0zM546 0l-54 138h-319l-54 -138h-114l265 667h125l265 -667h-114zM332 565l-130 -338h261zM411 723l-80 101l-78 -101h-58l94 144h84l97 -144h-59zM333 -186q-22 0 -37.5 15t-15.5 38q0 21 15.5 37t37.5 16t37 -16t15 -37q0 -23 -15 -38t-37 -15z" />
    <glyph glyph-name="uni1EA6" unicode="&#x1ea6;" horiz-adv-x="666" 
d="M0 0zM412 682l-80 75.75l-78 -75.75h-58l94 108h84l97 -108h-59zM546 0l-54 138h-319l-54 -138h-114l265 667h125l265 -667h-114zM332 565l-130 -338h261zM163 736l-167 108h89l144 -108h-66z" />
    <glyph glyph-name="uni1EA8" unicode="&#x1ea8;" horiz-adv-x="666" 
d="M5 0zM412 682l-80 75.75l-78 -75.75h-58l94 108h84l97 -108h-59zM546 0l-54 138h-319l-54 -138h-114l265 667h125l265 -667h-114zM332 565l-130 -338h261zM402 795.25q8 18 27 29.625t48 11.625t51.5 -12.375t22.5 -40.125q0 -12 -4.5 -21t-13.5 -18.75h-44
q12 9.75 17 19.125t5 19.125q0 14.25 -9.5 21t-24.5 6.75q-28 0 -39 -23.25z" />
    <glyph glyph-name="uni1EAE" unicode="&#x1eae;" horiz-adv-x="666" 
d="M5 0zM546 0l-54 138h-319l-54 -138h-114l265 667h125l265 -667h-114zM332 565l-130 -338h261zM340 742.414h-66l144 93.6035h89zM507 755.192q-30 -32.7998 -75.5 -51.5996t-99.5 -18.7998t-99.5 18.7998t-76.5 51.5996l43 28.7998q23 -25.5996 56.5 -40.3994
t76.5 -14.7998q42 0 76 14.7998t57 40.3994l42 -28.7998v0z" />
    <glyph glyph-name="uni1EAA" unicode="&#x1eaa;" horiz-adv-x="666" 
d="M5 0zM412 678l-80 50.5l-78 -50.5h-58l94 72h84l97 -72h-59zM546 0l-54 138h-319l-54 -138h-114l265 667h125l265 -667h-114zM332 565l-130 -338h261zM390 757q-30 0 -46.5 8t-29.5 16.5q-10 7 -20 12.5t-25 5.5q-19 0 -32 -9.25t-13 -30.25h-51q0 30 25.5 48.5
t74.5 18.5q29 0 45.5 -8t29.5 -16.5q11 -7 21 -12.5t25 -5.5q19 0 31.5 9.25t12.5 30.25h52q0 -30 -25.5 -48.5t-74.5 -18.5z" />
    <glyph glyph-name="uni1EB0" unicode="&#x1eb0;" horiz-adv-x="666" 
d="M5 0zM546 0l-54 138h-319l-54 -138h-114l265 667h125l265 -667h-114zM332 565l-130 -338h261zM327 742.414l-167 93.6035h89l144 -93.6035h-66zM507 752.192q-30 -32.7998 -75.5 -51.5996t-99.5 -18.7998t-99.5 18.7998t-76.5 51.5996l43 28.7998
q23 -25.5996 56.5 -40.3994t76.5 -14.7998q42 0 76 14.7998t57 40.3994l42 -28.7998v0z" />
    <glyph glyph-name="uni1EB2" unicode="&#x1eb2;" horiz-adv-x="666" 
d="M5 0zM546 0l-54 138h-319l-54 -138h-114l265 667h125l265 -667h-114zM332 565l-130 -338h261zM257 789.768q8 15.6006 27 25.6768q19 10.0752 48 10.0752t51.5 -10.7256t22.5 -34.7764q0 -10.4004 -4.5 -18.2012q-4.5 -7.7998 -13.5 -16.25h-44q12 8.4502 17 16.5752
q5 8.12598 5 16.5762q0 12.3506 -9.5 18.2002q-9.5 5.85059 -24.5 5.85059q-28 0 -39 -20.1514zM507 753.192q-30 -32.7998 -75.5 -51.5996t-99.5 -18.7998t-99.5 18.7998t-76.5 51.5996l43 28.7998q23 -25.5996 56.5 -40.3994t76.5 -14.7998q42 0 76 14.7998t57 40.3994
l42 -28.7998v0z" />
    <glyph glyph-name="uni1EB4" unicode="&#x1eb4;" horiz-adv-x="666" 
d="M5 0zM546 0l-54 138h-319l-54 -138h-114l265 667h125l265 -667h-114zM332 565l-130 -338h261zM508 730.909q-30 -24.4365 -75.5 -38.4424t-99.5 -14.0059t-99.5 14.0059t-76.5 38.4424l43 21.4561q23 -19.0723 56.5 -30.0977q33.5 -11.0264 76.5 -11.0264
q42 0 76 11.0264q34 11.0254 57 30.0977l42 -21.4561v0zM390 757q-30 0 -46.5 8t-29.5 16.5q-10 7 -20 12.5t-25 5.5q-19 0 -32 -9.25t-13 -30.25h-51q0 30 25.5 48.5t74.5 18.5q29 0 45.5 -8t29.5 -16.5q11 -7 21 -12.5t25 -5.5q19 0 31.5 9.25t12.5 30.25h52
q0 -30 -25.5 -48.5t-74.5 -18.5z" />
    <glyph glyph-name="uni1EB6" unicode="&#x1eb6;" horiz-adv-x="666" 
d="M5 0zM546 0l-54 138h-319l-54 -138h-114l265 667h125l265 -667h-114zM332 565l-130 -338h261zM333 -186q-22 0 -37.5 15t-15.5 38q0 21 15.5 37t37.5 16t37 -16t15 -37q0 -23 -15 -38t-37 -15zM507 791q-30 -41 -75.5 -64.5t-99.5 -23.5t-99.5 23.5t-76.5 64.5l43 36
q23 -32 56.5 -50.5t76.5 -18.5q42 0 76 18.5t57 50.5l42 -36v0z" />
    <glyph glyph-name="AE" unicode="&#xc6;" horiz-adv-x="953" 
d="M455 0v138h-254l-85 -138h-113l413 667h487v-88h-348v-195h341v-88h-341v-208h348v-88h-448zM455 565l-206 -338h206v338z" />
    <glyph glyph-name="AEacute" unicode="&#x1fc;" horiz-adv-x="953" 
d="M3 0zM514 723h-66l144 144h89zM455 0v138h-254l-85 -138h-113l413 667h487v-88h-348v-195h341v-88h-341v-208h348v-88h-448zM455 565l-206 -338h206v338z" />
    <glyph glyph-name="uni1E02" unicode="&#x1e02;" horiz-adv-x="638" 
d="M74 0zM74 0v667h313q45 0 80 -13t59 -35.5t36.5 -54t12.5 -67.5q0 -32 -9.5 -58t-25.5 -45.5t-37 -32t-44 -17.5q27 -4 50.5 -19t41 -37t27.5 -50t10 -58q0 -39 -13 -72t-37.5 -57t-60.5 -37.5t-82 -13.5h-321zM368 384q51 0 77.5 27.5t26.5 69.5t-26.5 70t-77.5 28h-194
v-195h194zM373 88q53 0 82.5 28t29.5 77q0 21 -7 39.5t-21 32.5t-35 22.5t-49 8.5h-199v-208h199zM319 719q-22 0 -37.5 15t-15.5 38q0 21 15.5 37t37.5 16t37 -16t15 -37q0 -23 -15 -38t-37 -15z" />
    <glyph glyph-name="Cacute" unicode="&#x106;" horiz-adv-x="679" 
d="M46 0zM399 723h-66l144 144h89zM392 -12q-73 0 -136 25t-109.5 70.5t-73.5 109t-27 140.5t27 140.5t73.5 109t109.5 70.5t136 25q48 0 87 -11t71.5 -30t57.5 -45t45 -55l-85 -45q-26 42 -72.5 69.5t-103.5 27.5q-52 0 -96.5 -19t-77 -53t-51 -81t-18.5 -103t18.5 -103
t51 -81t77 -53t96.5 -19q57 0 103.5 27.5t72.5 69.5l85 -45q-20 -29 -45.5 -55t-57.5 -45t-71 -30t-87 -11z" />
    <glyph glyph-name="Ccedilla" unicode="&#xc7;" horiz-adv-x="679" 
d="M386 -189q-33 0 -60.5 9.5t-42.5 21.5l20 42q19 -15 40 -22t41 -7q23 0 41 9.5t18 29.5q0 32 -36 32q-22 0 -35 -15l-38 21l21 58q-66 6 -122.5 33.5t-98 72t-65 105t-23.5 132.5q0 77 27 140.5t73.5 109t109.5 70.5t136 25q48 0 87 -11t71.5 -30t57.5 -45t45 -55
l-85 -45q-26 42 -72.5 69.5t-103.5 27.5q-52 0 -96.5 -19t-77 -53t-51 -81t-18.5 -103t18.5 -103t51 -81t77 -53t96.5 -19q57 0 103.5 27.5t72.5 69.5l85 -45q-19 -29 -43.5 -54t-55 -43.5t-68 -30.5t-82.5 -13l-15 -38q16 11 37 11q29 0 47.5 -18.5t18.5 -49.5
q0 -38 -30.5 -60t-75.5 -22z" />
    <glyph glyph-name="Ccircumflex" unicode="&#x108;" horiz-adv-x="679" 
d="M46 0zM471 723l-80 101l-78 -101h-58l94 144h84l97 -144h-59zM392 -12q-73 0 -136 25t-109.5 70.5t-73.5 109t-27 140.5t27 140.5t73.5 109t109.5 70.5t136 25q48 0 87 -11t71.5 -30t57.5 -45t45 -55l-85 -45q-26 42 -72.5 69.5t-103.5 27.5q-52 0 -96.5 -19t-77 -53
t-51 -81t-18.5 -103t18.5 -103t51 -81t77 -53t96.5 -19q57 0 103.5 27.5t72.5 69.5l85 -45q-20 -29 -45.5 -55t-57.5 -45t-71 -30t-87 -11z" />
    <glyph glyph-name="Cdotaccent" unicode="&#x10a;" horiz-adv-x="679" 
d="M46 0zM392 -12q-73 0 -136 25t-109.5 70.5t-73.5 109t-27 140.5t27 140.5t73.5 109t109.5 70.5t136 25q48 0 87 -11t71.5 -30t57.5 -45t45 -55l-85 -45q-26 42 -72.5 69.5t-103.5 27.5q-52 0 -96.5 -19t-77 -53t-51 -81t-18.5 -103t18.5 -103t51 -81t77 -53t96.5 -19
q57 0 103.5 27.5t72.5 69.5l85 -45q-20 -29 -45.5 -55t-57.5 -45t-71 -30t-87 -11zM394 719q-22 0 -37.5 15t-15.5 38q0 21 15.5 37t37.5 16t37 -16t15 -37q0 -23 -15 -38t-37 -15z" />
    <glyph glyph-name="Ccaron" unicode="&#x10c;" horiz-adv-x="679" 
d="M46 0zM352 723l-97 144h58l81 -102l77 102h59l-94 -144h-84zM392 -12q-73 0 -136 25t-109.5 70.5t-73.5 109t-27 140.5t27 140.5t73.5 109t109.5 70.5t136 25q48 0 87 -11t71.5 -30t57.5 -45t45 -55l-85 -45q-26 42 -72.5 69.5t-103.5 27.5q-52 0 -96.5 -19t-77 -53
t-51 -81t-18.5 -103t18.5 -103t51 -81t77 -53t96.5 -19q57 0 103.5 27.5t72.5 69.5l85 -45q-20 -29 -45.5 -55t-57.5 -45t-71 -30t-87 -11z" />
    <glyph glyph-name="Dcaron" unicode="&#x10e;" horiz-adv-x="705" 
d="M74 0zM314 723l-97 144h58l81 -102l77 102h59l-94 -144h-84zM74 0v667h238q78 0 142 -25t109 -70t70 -106t25 -133t-25 -133.5t-70 -105.5t-109 -69t-142 -25h-238zM312 88q58 0 103 19.5t76 52.5t47.5 77.5t16.5 95.5t-16 96t-46.5 78.5t-76 52.5t-104.5 19h-138v-491
h138z" />
    <glyph glyph-name="Dcroat" unicode="&#x110;" horiz-adv-x="732" 
d="M101 0v292h-91v73h91v302h238q78 0 142 -25t109 -70t70 -106t25 -133t-25 -133.5t-70 -105.5t-109 -69t-142 -25h-238zM339 88q58 0 103 19.5t76 52.5t47.5 77.5t16.5 95.5t-16 96t-46.5 78.5t-76 52.5t-104.5 19h-138v-214h165v-73h-165v-204h138z" />
    <glyph glyph-name="uni1E0A" unicode="&#x1e0a;" horiz-adv-x="705" 
d="M74 0zM74 0v667h238q78 0 142 -25t109 -70t70 -106t25 -133t-25 -133.5t-70 -105.5t-109 -69t-142 -25h-238zM312 88q58 0 103 19.5t76 52.5t47.5 77.5t16.5 95.5t-16 96t-46.5 78.5t-76 52.5t-104.5 19h-138v-491h138zM352 719q-22 0 -37.5 15t-15.5 38q0 21 15.5 37
t37.5 16t37 -16t15 -37q0 -23 -15 -38t-37 -15z" />
    <glyph glyph-name="Eacute" unicode="&#xc9;" horiz-adv-x="573" 
d="M74 0zM305 723h-66l144 144h89zM74 0v667h448v-88h-348v-195h341v-88h-341v-208h348v-88h-448z" />
    <glyph glyph-name="Ebreve" unicode="&#x114;" horiz-adv-x="573" 
d="M74 0zM74 0v667h448v-88h-348v-195h341v-88h-341v-208h348v-88h-448zM474 791q-30 -41 -75.5 -64.5t-99.5 -23.5t-99.5 23.5t-76.5 64.5l43 36q23 -32 56.5 -50.5t76.5 -18.5q42 0 76 18.5t57 50.5l42 -36v0z" />
    <glyph glyph-name="Ecircumflex" unicode="&#xca;" horiz-adv-x="573" 
d="M74 0zM376 723l-80 101l-78 -101h-58l94 144h84l97 -144h-59zM74 0v667h448v-88h-348v-195h341v-88h-341v-208h348v-88h-448z" />
    <glyph glyph-name="Edieresis" unicode="&#xcb;" horiz-adv-x="573" 
d="M74 0zM454 773q0 -22 -15.5 -37.5t-37.5 -15.5t-37.5 15.5t-15.5 37.5t15.5 37t37.5 15t37.5 -15t15.5 -37zM245 773q0 -22 -15 -37.5t-37 -15.5t-37 15.5t-15 37.5t15 37t37 15t37 -15t15 -37zM74 0v667h448v-88h-348v-195h341v-88h-341v-208h348v-88h-448z" />
    <glyph glyph-name="Edotaccent" unicode="&#x116;" horiz-adv-x="573" 
d="M74 0zM74 0v667h448v-88h-348v-195h341v-88h-341v-208h348v-88h-448zM301 719q-22 0 -37.5 15t-15.5 38q0 21 15.5 37t37.5 16t37 -16t15 -37q0 -23 -15 -38t-37 -15z" />
    <glyph glyph-name="Egrave" unicode="&#xc8;" horiz-adv-x="573" 
d="M74 0zM74 0v667h448v-88h-348v-195h341v-88h-341v-208h348v-88h-448zM291 723l-167 144h89l144 -144h-66z" />
    <glyph glyph-name="Emacron" unicode="&#x112;" horiz-adv-x="573" 
d="M74 0zM74 0v667h448v-88h-348v-195h341v-88h-341v-208h348v-88h-448zM116 736v55h363v-55h-363z" />
    <glyph glyph-name="Eogonek" unicode="&#x118;" horiz-adv-x="573" 
d="M522 0q-45 -18 -68.5 -40t-23.5 -49q0 -17 11 -26t27 -9q8 0 16 1.5t16 6.5l22 -53q-28 -17 -74 -17q-20 0 -38.5 4.5t-32.5 14t-22.5 24t-8.5 33.5q0 18 9 35t24.5 31t35 25t40.5 19h-381v667h448v-88h-348v-195h341v-88h-341v-208h348v-88v0z" />
    <glyph glyph-name="Ecaron" unicode="&#x11a;" horiz-adv-x="573" 
d="M74 0zM259 723l-97 144h58l81 -102l77 102h59l-94 -144h-84zM74 0v667h448v-88h-348v-195h341v-88h-341v-208h348v-88h-448z" />
    <glyph glyph-name="uni1EB8" unicode="&#x1eb8;" horiz-adv-x="573" 
d="M74 0zM74 0v667h448v-88h-348v-195h341v-88h-341v-208h348v-88h-448zM301 -186q-22 0 -37.5 15t-15.5 38q0 21 15.5 37t37.5 16t37 -16t15 -37q0 -23 -15 -38t-37 -15z" />
    <glyph glyph-name="uni1EBA" unicode="&#x1eba;" horiz-adv-x="573" 
d="M74 0zM74 0v667h448v-88h-348v-195h341v-88h-341v-208h348v-88h-448zM221 765q8 24 27 39.5t48 15.5t51.5 -16.5t22.5 -53.5q0 -16 -4.5 -28t-13.5 -25h-44q12 13 17 25.5t5 25.5q0 19 -9.5 28t-24.5 9q-28 0 -39 -31z" />
    <glyph glyph-name="uni1EBC" unicode="&#x1ebc;" horiz-adv-x="573" 
d="M74 0zM74 0v667h448v-88h-348v-195h341v-88h-341v-208h348v-88h-448zM357 721q-30 0 -46.5 16t-29.5 33q-10 14 -20 25t-25 11q-19 0 -32 -18.5t-13 -60.5h-51q0 60 25.5 97t74.5 37q29 0 45.5 -16t29.5 -33q11 -14 21 -25t25 -11q19 0 31.5 18.5t12.5 60.5h52
q0 -60 -25.5 -97t-74.5 -37z" />
    <glyph glyph-name="uni1EBE" unicode="&#x1ebe;" horiz-adv-x="573" 
d="M74 0zM381 682l-80 75.75l-78 -75.75h-58l94 108h84l97 -108h-59zM474 736h-66l144 108h89zM74 0v667h448v-88h-348v-195h341v-88h-341v-208h348v-88h-448z" />
    <glyph glyph-name="uni1EC0" unicode="&#x1ec0;" horiz-adv-x="573" 
d="M0 0zM381 682l-80 75.75l-78 -75.75h-58l94 108h84l97 -108h-59zM74 0v667h448v-88h-348v-195h341v-88h-341v-208h348v-88h-448zM132 736l-167 108h89l144 -108h-66z" />
    <glyph glyph-name="uni1EC2" unicode="&#x1ec2;" horiz-adv-x="573" 
d="M74 0zM382 682l-80 75.75l-78 -75.75h-58l94 108h84l97 -108h-59zM74 0v667h448v-88h-348v-195h341v-88h-341v-208h348v-88h-448zM372 795.25q8 18 27 29.625t48 11.625t51.5 -12.375t22.5 -40.125q0 -12 -4.5 -21t-13.5 -18.75h-44q12 9.75 17 19.125t5 19.125
q0 14.25 -9.5 21t-24.5 6.75q-28 0 -39 -23.25z" />
    <glyph glyph-name="uni1EC4" unicode="&#x1ec4;" horiz-adv-x="573" 
d="M74 0zM381 678l-80 50.5l-78 -50.5h-58l94 72h84l97 -72h-59zM74 0v667h448v-88h-348v-195h341v-88h-341v-208h348v-88h-448zM359 757q-30 0 -46.5 8t-29.5 16.5q-10 7 -20 12.5t-25 5.5q-19 0 -32 -9.25t-13 -30.25h-51q0 30 25.5 48.5t74.5 18.5q29 0 45.5 -8
t29.5 -16.5q11 -7 21 -12.5t25 -5.5q19 0 31.5 9.25t12.5 30.25h52q0 -30 -25.5 -48.5t-74.5 -18.5z" />
    <glyph glyph-name="uni1EC6" unicode="&#x1ec6;" horiz-adv-x="573" 
d="M74 0zM376 723l-80 101l-78 -101h-58l94 144h84l97 -144h-59zM74 0v667h448v-88h-348v-195h341v-88h-341v-208h348v-88h-448zM301 -186q-22 0 -37.5 15t-15.5 38q0 21 15.5 37t37.5 16t37 -16t15 -37q0 -23 -15 -38t-37 -15z" />
    <glyph glyph-name="uni1E1E" unicode="&#x1e1e;" horiz-adv-x="556" 
d="M74 0zM298 719q-22 0 -37.5 15t-15.5 38q0 21 15.5 37t37.5 16t37 -16t15 -37q0 -23 -15 -38t-37 -15zM74 0v667h448v-88h-348v-195h341v-88h-341v-296h-100z" />
    <glyph glyph-name="Gcircumflex" unicode="&#x11c;" horiz-adv-x="715" 
d="M46 0zM475 723l-80 101l-78 -101h-58l94 144h84l97 -144h-59zM392 -13q-72 0 -135 25t-110 70t-74 109t-27 142t27 141.5t74 109t110 70t135 24.5q47 0 86 -10t71.5 -28t59 -42t47.5 -52l-81 -47q-29 38 -76.5 64t-106.5 26q-52 0 -96.5 -19t-77 -53t-51 -81t-18.5 -103
t18.5 -103t51 -81.5t77 -53.5t96.5 -19q28 0 53 6t47 15.5t39.5 21.5t29.5 23v120h-214v88h314v-245q-48 -54 -116 -86t-153 -32z" />
    <glyph glyph-name="Gbreve" unicode="&#x11e;" horiz-adv-x="715" 
d="M46 0zM392 -13q-72 0 -135 25t-110 70t-74 109t-27 142t27 141.5t74 109t110 70t135 24.5q47 0 86 -10t71.5 -28t59 -42t47.5 -52l-81 -47q-29 38 -76.5 64t-106.5 26q-52 0 -96.5 -19t-77 -53t-51 -81t-18.5 -103t18.5 -103t51 -81.5t77 -53.5t96.5 -19q28 0 53 6
t47 15.5t39.5 21.5t29.5 23v120h-214v88h314v-245q-48 -54 -116 -86t-153 -32zM570 791q-30 -41 -75.5 -64.5t-99.5 -23.5t-99.5 23.5t-76.5 64.5l43 36q23 -32 56.5 -50.5t76.5 -18.5q42 0 76 18.5t57 50.5l42 -36v0z" />
    <glyph glyph-name="Gdotaccent" unicode="&#x120;" horiz-adv-x="715" 
d="M46 0zM392 -13q-72 0 -135 25t-110 70t-74 109t-27 142t27 141.5t74 109t110 70t135 24.5q47 0 86 -10t71.5 -28t59 -42t47.5 -52l-81 -47q-29 38 -76.5 64t-106.5 26q-52 0 -96.5 -19t-77 -53t-51 -81t-18.5 -103t18.5 -103t51 -81.5t77 -53.5t96.5 -19q28 0 53 6
t47 15.5t39.5 21.5t29.5 23v120h-214v88h314v-245q-48 -54 -116 -86t-153 -32zM395 719q-22 0 -37.5 15t-15.5 38q0 21 15.5 37t37.5 16t37 -16t15 -37q0 -23 -15 -38t-37 -15z" />
    <glyph glyph-name="uni0122" unicode="&#x122;" horiz-adv-x="715" 
d="M46 0zM452 -138q0 -42 -21.5 -78.5t-53.5 -59.5l-36 28q22 14 39.5 38t20.5 46q-2 -1 -6 -1.5t-7 -0.5q-20 0 -32.5 13.5t-12.5 34.5t14.5 36t35.5 15q23 0 41 -18.5t18 -52.5zM392 -13q-72 0 -135 25t-110 70t-74 109t-27 142t27 141.5t74 109t110 70t135 24.5
q47 0 86 -10t71.5 -28t59 -42t47.5 -52l-81 -47q-29 38 -76.5 64t-106.5 26q-52 0 -96.5 -19t-77 -53t-51 -81t-18.5 -103t18.5 -103t51 -81.5t77 -53.5t96.5 -19q28 0 53 6t47 15.5t39.5 21.5t29.5 23v120h-214v88h314v-245q-48 -54 -116 -86t-153 -32z" />
    <glyph glyph-name="Gbreve.alt1" horiz-adv-x="739" 
d="M46 0zM570 791q-30 -41 -75.5 -64.5t-99.5 -23.5t-99.5 23.5t-76.5 64.5l43 36q23 -32 56.5 -50.5t76.5 -18.5q42 0 76 18.5t57 50.5l42 -36v0zM384 -13q-69 0 -130 25t-107.5 70t-73.5 109t-27 142t27 141.5t74 109t110 70t135 24.5q47 0 86 -10t71.5 -28t59 -42
t47.5 -52l-81 -47q-29 38 -76.5 64t-106.5 26q-52 0 -96.5 -19t-77 -53t-51 -81t-18.5 -103t18.5 -103t51 -81.5t77 -53.5t96.5 -19q47 0 83 15.5t62.5 41t42.5 59t22 70.5h-255v88h364q0 -81 -22 -148t-63.5 -115t-102.5 -74t-139 -26z" />
    <glyph glyph-name="uni0122.alt1" horiz-adv-x="739" 
d="M46 0zM452 -138q0 -42 -21.5 -78.5t-53.5 -59.5l-36 28q22 14 39.5 38t20.5 46q-2 -1 -6 -1.5t-7 -0.5q-20 0 -32.5 13.5t-12.5 34.5t14.5 36t35.5 15q23 0 41 -18.5t18 -52.5zM384 -13q-69 0 -130 25t-107.5 70t-73.5 109t-27 142t27 141.5t74 109t110 70t135 24.5
q47 0 86 -10t71.5 -28t59 -42t47.5 -52l-81 -47q-29 38 -76.5 64t-106.5 26q-52 0 -96.5 -19t-77 -53t-51 -81t-18.5 -103t18.5 -103t51 -81.5t77 -53.5t96.5 -19q47 0 83 15.5t62.5 41t42.5 59t22 70.5h-255v88h364q0 -81 -22 -148t-63.5 -115t-102.5 -74t-139 -26z" />
    <glyph glyph-name="Gcircumflex.alt1" horiz-adv-x="739" 
d="M46 0zM470 723l-80 101l-78 -101h-58l94 144h84l97 -144h-59zM384 -13q-69 0 -130 25t-107.5 70t-73.5 109t-27 142t27 141.5t74 109t110 70t135 24.5q47 0 86 -10t71.5 -28t59 -42t47.5 -52l-81 -47q-29 38 -76.5 64t-106.5 26q-52 0 -96.5 -19t-77 -53t-51 -81
t-18.5 -103t18.5 -103t51 -81.5t77 -53.5t96.5 -19q47 0 83 15.5t62.5 41t42.5 59t22 70.5h-255v88h364q0 -81 -22 -148t-63.5 -115t-102.5 -74t-139 -26z" />
    <glyph glyph-name="Gdotaccent.alt1" horiz-adv-x="739" 
d="M46 0zM391 719q-22 0 -37.5 15t-15.5 38q0 21 15.5 37t37.5 16t37 -16t15 -37q0 -23 -15 -38t-37 -15zM384 -13q-69 0 -130 25t-107.5 70t-73.5 109t-27 142t27 141.5t74 109t110 70t135 24.5q47 0 86 -10t71.5 -28t59 -42t47.5 -52l-81 -47q-29 38 -76.5 64t-106.5 26
q-52 0 -96.5 -19t-77 -53t-51 -81t-18.5 -103t18.5 -103t51 -81.5t77 -53.5t96.5 -19q47 0 83 15.5t62.5 41t42.5 59t22 70.5h-255v88h364q0 -81 -22 -148t-63.5 -115t-102.5 -74t-139 -26z" />
    <glyph glyph-name="Hbar" unicode="&#x126;" horiz-adv-x="736" 
d="M553 0v298h-369v-298h-100v497h-74v55h74v115h100v-115h369v115h100v-115h74v-55h-74v-497h-100zM553 387v110h-369v-110h369z" />
    <glyph glyph-name="Hcircumflex" unicode="&#x124;" horiz-adv-x="717" 
d="M74 0zM435 723l-80 101l-78 -101h-58l94 144h84l97 -144h-59zM543 0v298h-369v-298h-100v667h100v-280h369v280h100v-667h-100z" />
    <glyph glyph-name="uni1E22" unicode="&#x1e22;" horiz-adv-x="717" 
d="M74 0zM543 0v298h-369v-298h-100v667h100v-280h369v280h100v-667h-100zM358 719q-22 0 -37.5 15t-15.5 38q0 21 15.5 37t37.5 16t37 -16t15 -37q0 -23 -15 -38t-37 -15z" />
    <glyph glyph-name="Iacute" unicode="&#xcd;" horiz-adv-x="249" 
d="M67 0zM74 0v667h100v-667h-100zM133 723h-66l144 144h89z" />
    <glyph glyph-name="Ibreve" unicode="&#x12c;" horiz-adv-x="249" 
d="M0 0zM74 0v667h100v-667h-100zM302 791q-30 -41 -75.5 -64.5t-99.5 -23.5t-99.5 23.5t-76.5 64.5l43 36q23 -32 56.5 -50.5t76.5 -18.5q42 0 76 18.5t57 50.5l42 -36v0z" />
    <glyph glyph-name="Icircumflex" unicode="&#xce;" horiz-adv-x="249" 
d="M0 0zM205 723l-80 101l-78 -101h-58l94 144h84l97 -144h-59zM74 0v667h100v-667h-100z" />
    <glyph glyph-name="Idieresis" unicode="&#xcf;" horiz-adv-x="249" 
d="M0 0zM283 773q0 -22 -15.5 -37.5t-37.5 -15.5t-37.5 15.5t-15.5 37.5t15.5 37t37.5 15t37.5 -15t15.5 -37zM74 773q0 -22 -15 -37.5t-37 -15.5t-37 15.5t-15 37.5t15 37t37 15t37 -15t15 -37zM74 0v667h100v-667h-100z" />
    <glyph glyph-name="Idotaccent" unicode="&#x130;" horiz-adv-x="249" 
d="M73 0zM74 0v667h100v-667h-100zM126 719q-22 0 -37.5 15t-15.5 38q0 21 15.5 37t37.5 16t37 -16t15 -37q0 -23 -15 -38t-37 -15z" />
    <glyph glyph-name="Igrave" unicode="&#xcc;" horiz-adv-x="249" 
d="M0 0zM74 0v667h100v-667h-100zM118 723l-167 144h89l144 -144h-66z" />
    <glyph glyph-name="Imacron" unicode="&#x12a;" horiz-adv-x="249" 
d="M0 0zM74 0v667h100v-667h-100zM-55 736v55h363v-55h-363z" />
    <glyph glyph-name="Iogonek" unicode="&#x12e;" horiz-adv-x="249" 
d="M175 -169q-28 -17 -74 -17q-20 0 -38.5 4.5t-32.5 14t-22.5 24t-8.5 33.5q0 18 9 35t24.5 31t35 25t40.5 19h-34v667h100v-667h1q-45 -18 -68.5 -40t-23.5 -49q0 -17 11 -26t27 -9q8 0 16 1.5t16 6.5z" />
    <glyph glyph-name="Itilde" unicode="&#x128;" horiz-adv-x="249" 
d="M0 0zM74 0v667h100v-667h-100zM185 721q-30 0 -46.5 16t-29.5 33q-10 14 -20 25t-25 11q-19 0 -32 -18.5t-13 -60.5h-51q0 60 25.5 97t74.5 37q29 0 45.5 -16t29.5 -33q11 -14 21 -25t25 -11q19 0 31.5 18.5t12.5 60.5h52q0 -60 -25.5 -97t-74.5 -37z" />
    <glyph glyph-name="uni1EC8" unicode="&#x1ec8;" horiz-adv-x="249" 
d="M51 0zM74 0v667h100v-667h-100zM51 765q8 24 27 39.5t48 15.5t51.5 -16.5t22.5 -53.5q0 -16 -4.5 -28t-13.5 -25h-44q12 13 17 25.5t5 25.5q0 19 -9.5 28t-24.5 9q-28 0 -39 -31z" />
    <glyph glyph-name="uni1ECA" unicode="&#x1eca;" horiz-adv-x="249" 
d="M73 0zM74 0v667h100v-667h-100zM126 -186q-22 0 -37.5 15t-15.5 38q0 21 15.5 37t37.5 16t37 -16t15 -37q0 -23 -15 -38t-37 -15z" />
    <glyph glyph-name="IJ" unicode="&#x132;" horiz-adv-x="727" 
d="M74 0zM74 0v667h100v-667h-100zM434 -12q-53 0 -96.5 17t-78.5 56l48 76q21 -24 49.5 -42t70.5 -18q58 0 91.5 35.5t33.5 94.5v460h100v-461q0 -56 -16.5 -97t-46 -68t-69.5 -40t-86 -13z" />
    <glyph glyph-name="Jcircumflex" unicode="&#x134;" horiz-adv-x="478" 
d="M10 0zM433 723l-80 101l-78 -101h-58l94 144h84l97 -144h-59zM185 -12q-53 0 -96.5 17t-78.5 56l48 76q21 -24 49.5 -42t70.5 -18q58 0 91.5 35.5t33.5 94.5v460h100v-461q0 -56 -16.5 -97t-46 -68t-69.5 -40t-86 -13z" />
    <glyph glyph-name="uni0136" unicode="&#x136;" horiz-adv-x="618" 
d="M74 0zM370 -138q0 -42 -21.5 -78.5t-53.5 -59.5l-36 28q22 14 39.5 38t20.5 46q-2 -1 -6 -1.5t-7 -0.5q-20 0 -32.5 13.5t-12.5 34.5t14.5 36t35.5 15q23 0 41 -18.5t18 -52.5zM475 0l-238 290l-63 -71v-219h-100v667h100v-331l279 331h124l-275 -316l297 -351h-124z" />
    <glyph glyph-name="Lacute" unicode="&#x139;" horiz-adv-x="513" 
d="M74 0zM282 723h-66l144 144h89zM74 0v667h100v-579h303v-88h-403z" />
    <glyph glyph-name="Lcaron" unicode="&#x13d;" horiz-adv-x="513" 
d="M74 0zM374 609q0 -42 -21.5 -78.5t-53.5 -59.5l-36 28q22 14 39.5 38t20.5 46q-2 -1 -6 -1.5t-7 -0.5q-20 0 -32.5 13.5t-12.5 34.5t14.5 36t35.5 15q23 0 41 -18.5t18 -52.5zM74 0v667h100v-579h303v-88h-403z" />
    <glyph glyph-name="uni013B" unicode="&#x13b;" horiz-adv-x="513" 
d="M74 0zM321 -138q0 -42 -21.5 -78.5t-53.5 -59.5l-36 28q22 14 39.5 38t20.5 46q-2 -1 -6 -1.5t-7 -0.5q-20 0 -32.5 13.5t-12.5 34.5t14.5 36t35.5 15q23 0 41 -18.5t18 -52.5zM74 0v667h100v-579h303v-88h-403z" />
    <glyph glyph-name="Ldot" unicode="&#x13f;" horiz-adv-x="513" 
d="M74 0zM74 0v667h100v-579h303v-88h-403zM440 341q0 -25 -18.5 -43.5t-44.5 -18.5t-44 18.5t-18 43.5q0 26 18 44.5t44 18.5t44.5 -18.5t18.5 -44.5z" />
    <glyph glyph-name="Lslash" unicode="&#x141;" horiz-adv-x="531" 
d="M10 297l82 47v323h100v-265l91 53v-84l-91 -53v-230h303v-88h-403v260l-82 -48v85z" />
    <glyph glyph-name="Nacute" unicode="&#x143;" horiz-adv-x="714" 
d="M74 0zM368 723h-66l144 144h89zM543 0l-369 504v-504h-100v667h103l363 -492v492h100v-667h-97z" />
    <glyph glyph-name="Ncaron" unicode="&#x147;" horiz-adv-x="714" 
d="M74 0zM315 723l-97 144h58l81 -102l77 102h59l-94 -144h-84zM543 0l-369 504v-504h-100v667h103l363 -492v492h100v-667h-97z" />
    <glyph glyph-name="uni0145" unicode="&#x145;" horiz-adv-x="714" 
d="M74 0zM418 -138q0 -42 -21.5 -78.5t-53.5 -59.5l-36 28q22 14 39.5 38t20.5 46q-2 -1 -6 -1.5t-7 -0.5q-20 0 -32.5 13.5t-12.5 34.5t14.5 36t35.5 15q23 0 41 -18.5t18 -52.5zM543 0l-369 504v-504h-100v667h103l363 -492v492h100v-667h-97z" />
    <glyph glyph-name="Ntilde" unicode="&#xd1;" horiz-adv-x="714" 
d="M74 0zM414 721q-30 0 -46.5 16t-29.5 33q-10 14 -20 25t-25 11q-19 0 -32 -18.5t-13 -60.5h-51q0 60 25.5 97t74.5 37q29 0 45.5 -16t29.5 -33q11 -14 21 -25t25 -11q19 0 31.5 18.5t12.5 60.5h52q0 -60 -25.5 -97t-74.5 -37zM543 0l-369 504v-504h-100v667h103l363 -492
v492h100v-667h-97z" />
    <glyph glyph-name="Eng" unicode="&#x14a;" horiz-adv-x="714" 
d="M421 -196q-53 0 -97 17t-79 56l49 76q20 -24 49.5 -42t70.5 -18q54 0 87 30.5t38 81.5l-365 499v-504h-100v667h103l363 -492v492h100v-647q0 -56 -17 -96.5t-46 -67t-69.5 -39.5t-86.5 -13z" />
    <glyph glyph-name="Oacute" unicode="&#xd3;" horiz-adv-x="765" 
d="M46 0zM390 723h-66l144 144h89zM382 -12q-75 0 -136.5 26t-106 72t-69 109.5t-24.5 137.5t24.5 137.5t69 109.5t106 72t136.5 26t136.5 -26t106 -72t69 -109.5t24.5 -137.5t-24.5 -137.5t-69 -109.5t-106 -72t-136.5 -26zM382 77q53 0 96 19.5t73.5 54t47 81t16.5 101.5
t-16.5 102t-47 81t-73.5 53.5t-96 19.5q-54 0 -97 -19.5t-73 -53.5t-46.5 -81t-16.5 -102t16.5 -101.5t46.5 -81t73 -54t97 -19.5z" />
    <glyph glyph-name="Obreve" unicode="&#x14e;" horiz-adv-x="765" 
d="M46 0zM382 -12q-75 0 -136.5 26t-106 72t-69 109.5t-24.5 137.5t24.5 137.5t69 109.5t106 72t136.5 26t136.5 -26t106 -72t69 -109.5t24.5 -137.5t-24.5 -137.5t-69 -109.5t-106 -72t-136.5 -26zM382 77q53 0 96 19.5t73.5 54t47 81t16.5 101.5t-16.5 102t-47 81
t-73.5 53.5t-96 19.5q-54 0 -97 -19.5t-73 -53.5t-46.5 -81t-16.5 -102t16.5 -101.5t46.5 -81t73 -54t97 -19.5zM557 791q-30 -41 -75.5 -64.5t-99.5 -23.5t-99.5 23.5t-76.5 64.5l43 36q23 -32 56.5 -50.5t76.5 -18.5q42 0 76 18.5t57 50.5l42 -36v0z" />
    <glyph glyph-name="Ocircumflex" unicode="&#xd4;" horiz-adv-x="765" 
d="M46 0zM463 723l-80 101l-78 -101h-58l94 144h84l97 -144h-59zM382 -12q-75 0 -136.5 26t-106 72t-69 109.5t-24.5 137.5t24.5 137.5t69 109.5t106 72t136.5 26t136.5 -26t106 -72t69 -109.5t24.5 -137.5t-24.5 -137.5t-69 -109.5t-106 -72t-136.5 -26zM382 77
q53 0 96 19.5t73.5 54t47 81t16.5 101.5t-16.5 102t-47 81t-73.5 53.5t-96 19.5q-54 0 -97 -19.5t-73 -53.5t-46.5 -81t-16.5 -102t16.5 -101.5t46.5 -81t73 -54t97 -19.5z" />
    <glyph glyph-name="Odieresis" unicode="&#xd6;" horiz-adv-x="765" 
d="M46 0zM539 773q0 -22 -15.5 -37.5t-37.5 -15.5t-37.5 15.5t-15.5 37.5t15.5 37t37.5 15t37.5 -15t15.5 -37zM330 773q0 -22 -15 -37.5t-37 -15.5t-37 15.5t-15 37.5t15 37t37 15t37 -15t15 -37zM382 -12q-75 0 -136.5 26t-106 72t-69 109.5t-24.5 137.5t24.5 137.5
t69 109.5t106 72t136.5 26t136.5 -26t106 -72t69 -109.5t24.5 -137.5t-24.5 -137.5t-69 -109.5t-106 -72t-136.5 -26zM382 77q53 0 96 19.5t73.5 54t47 81t16.5 101.5t-16.5 102t-47 81t-73.5 53.5t-96 19.5q-54 0 -97 -19.5t-73 -53.5t-46.5 -81t-16.5 -102t16.5 -101.5
t46.5 -81t73 -54t97 -19.5z" />
    <glyph glyph-name="Ograve" unicode="&#xd2;" horiz-adv-x="765" 
d="M46 0zM376 723l-167 144h89l144 -144h-66zM382 -12q-75 0 -136.5 26t-106 72t-69 109.5t-24.5 137.5t24.5 137.5t69 109.5t106 72t136.5 26t136.5 -26t106 -72t69 -109.5t24.5 -137.5t-24.5 -137.5t-69 -109.5t-106 -72t-136.5 -26zM382 77q53 0 96 19.5t73.5 54t47 81
t16.5 101.5t-16.5 102t-47 81t-73.5 53.5t-96 19.5q-54 0 -97 -19.5t-73 -53.5t-46.5 -81t-16.5 -102t16.5 -101.5t46.5 -81t73 -54t97 -19.5z" />
    <glyph glyph-name="Ohungarumlaut" unicode="&#x150;" horiz-adv-x="765" 
d="M46 0zM325 723h-56l92 144h79zM469 723h-56l92 144h79zM382 -12q-75 0 -136.5 26t-106 72t-69 109.5t-24.5 137.5t24.5 137.5t69 109.5t106 72t136.5 26t136.5 -26t106 -72t69 -109.5t24.5 -137.5t-24.5 -137.5t-69 -109.5t-106 -72t-136.5 -26zM382 77q53 0 96 19.5
t73.5 54t47 81t16.5 101.5t-16.5 102t-47 81t-73.5 53.5t-96 19.5q-54 0 -97 -19.5t-73 -53.5t-46.5 -81t-16.5 -102t16.5 -101.5t46.5 -81t73 -54t97 -19.5z" />
    <glyph glyph-name="Omacron" unicode="&#x14c;" horiz-adv-x="765" 
d="M46 0zM200 736v55h363v-55h-363zM382 -12q-75 0 -136.5 26t-106 72t-69 109.5t-24.5 137.5t24.5 137.5t69 109.5t106 72t136.5 26t136.5 -26t106 -72t69 -109.5t24.5 -137.5t-24.5 -137.5t-69 -109.5t-106 -72t-136.5 -26zM382 77q53 0 96 19.5t73.5 54t47 81t16.5 101.5
t-16.5 102t-47 81t-73.5 53.5t-96 19.5q-54 0 -97 -19.5t-73 -53.5t-46.5 -81t-16.5 -102t16.5 -101.5t46.5 -81t73 -54t97 -19.5z" />
    <glyph glyph-name="Oslash" unicode="&#xd8;" horiz-adv-x="765" 
d="M382 -12q-50 0 -94 11.5t-82 33.5l-23 -33h-77l49 71q-52 47 -80.5 114t-28.5 148q0 74 24.5 137.5t69 109.5t106 72t136.5 26q48 0 90 -11t78 -31l22 31h77l-47 -67q55 -47 85.5 -115.5t30.5 -151.5q0 -74 -24.5 -137.5t-69 -109.5t-106 -72t-136.5 -26zM382 77
q53 0 96 19.5t73.5 54t47 81t16.5 101.5q0 57 -18 105t-50 83l-287 -411q53 -33 122 -33zM149 333q0 -55 16 -101.5t46 -80.5l286 409q-25 14 -54 21.5t-61 7.5q-54 0 -97 -19.5t-73 -53.5t-46.5 -81t-16.5 -102z" />
    <glyph glyph-name="Oslashacute" unicode="&#x1fe;" horiz-adv-x="765" 
d="M46 0zM390 723h-66l144 144h89zM382 -12q-50 0 -94 11.5t-82 33.5l-23 -33h-77l49 71q-52 47 -80.5 114t-28.5 148q0 74 24.5 137.5t69 109.5t106 72t136.5 26q48 0 90 -11t78 -31l22 31h77l-47 -67q55 -47 85.5 -115.5t30.5 -151.5q0 -74 -24.5 -137.5t-69 -109.5
t-106 -72t-136.5 -26zM382 77q53 0 96 19.5t73.5 54t47 81t16.5 101.5q0 57 -18 105t-50 83l-287 -411q53 -33 122 -33zM149 333q0 -55 16 -101.5t46 -80.5l286 409q-25 14 -54 21.5t-61 7.5q-54 0 -97 -19.5t-73 -53.5t-46.5 -81t-16.5 -102z" />
    <glyph glyph-name="Otilde" unicode="&#xd5;" horiz-adv-x="765" 
d="M46 0zM382 -12q-75 0 -136.5 26t-106 72t-69 109.5t-24.5 137.5t24.5 137.5t69 109.5t106 72t136.5 26t136.5 -26t106 -72t69 -109.5t24.5 -137.5t-24.5 -137.5t-69 -109.5t-106 -72t-136.5 -26zM382 77q53 0 96 19.5t73.5 54t47 81t16.5 101.5t-16.5 102t-47 81
t-73.5 53.5t-96 19.5q-54 0 -97 -19.5t-73 -53.5t-46.5 -81t-16.5 -102t16.5 -101.5t46.5 -81t73 -54t97 -19.5zM441 721q-30 0 -46.5 16t-29.5 33q-10 14 -20 25t-25 11q-19 0 -32 -18.5t-13 -60.5h-51q0 60 25.5 97t74.5 37q29 0 45.5 -16t29.5 -33q11 -14 21 -25t25 -11
q19 0 31.5 18.5t12.5 60.5h52q0 -60 -25.5 -97t-74.5 -37z" />
    <glyph glyph-name="uni1ECC" unicode="&#x1ecc;" horiz-adv-x="765" 
d="M46 0zM382 -12q-75 0 -136.5 26t-106 72t-69 109.5t-24.5 137.5t24.5 137.5t69 109.5t106 72t136.5 26t136.5 -26t106 -72t69 -109.5t24.5 -137.5t-24.5 -137.5t-69 -109.5t-106 -72t-136.5 -26zM382 77q53 0 96 19.5t73.5 54t47 81t16.5 101.5t-16.5 102t-47 81
t-73.5 53.5t-96 19.5q-54 0 -97 -19.5t-73 -53.5t-46.5 -81t-16.5 -102t16.5 -101.5t46.5 -81t73 -54t97 -19.5zM385 -186q-22 0 -37.5 15t-15.5 38q0 21 15.5 37t37.5 16t37 -16t15 -37q0 -23 -15 -38t-37 -15z" />
    <glyph glyph-name="uni1ECE" unicode="&#x1ece;" horiz-adv-x="765" 
d="M46 0zM382 -12q-75 0 -136.5 26t-106 72t-69 109.5t-24.5 137.5t24.5 137.5t69 109.5t106 72t136.5 26t136.5 -26t106 -72t69 -109.5t24.5 -137.5t-24.5 -137.5t-69 -109.5t-106 -72t-136.5 -26zM382 77q53 0 96 19.5t73.5 54t47 81t16.5 101.5t-16.5 102t-47 81
t-73.5 53.5t-96 19.5q-54 0 -97 -19.5t-73 -53.5t-46.5 -81t-16.5 -102t16.5 -101.5t46.5 -81t73 -54t97 -19.5zM306 765q8 24 27 39.5t48 15.5t51.5 -16.5t22.5 -53.5q0 -16 -4.5 -28t-13.5 -25h-44q12 13 17 25.5t5 25.5q0 19 -9.5 28t-24.5 9q-28 0 -39 -31z" />
    <glyph glyph-name="uni1ED0" unicode="&#x1ed0;" horiz-adv-x="765" 
d="M46 0zM458 682l-80 75.75l-78 -75.75h-58l94 108h84l97 -108h-59zM550 736h-66l144 108h89zM382 -12q-75 0 -136.5 26t-106 72t-69 109.5t-24.5 137.5t24.5 137.5t69 109.5t106 72t136.5 26t136.5 -26t106 -72t69 -109.5t24.5 -137.5t-24.5 -137.5t-69 -109.5t-106 -72
t-136.5 -26zM382 77q53 0 96 19.5t73.5 54t47 81t16.5 101.5t-16.5 102t-47 81t-73.5 53.5t-96 19.5q-54 0 -97 -19.5t-73 -53.5t-46.5 -81t-16.5 -102t16.5 -101.5t46.5 -81t73 -54t97 -19.5z" />
    <glyph glyph-name="uni1ED2" unicode="&#x1ed2;" horiz-adv-x="765" 
d="M39 0zM457 682l-80 75.75l-78 -75.75h-58l94 108h84l97 -108h-59zM382 -12q-75 0 -136.5 26t-106 72t-69 109.5t-24.5 137.5t24.5 137.5t69 109.5t106 72t136.5 26t136.5 -26t106 -72t69 -109.5t24.5 -137.5t-24.5 -137.5t-69 -109.5t-106 -72t-136.5 -26zM382 77
q53 0 96 19.5t73.5 54t47 81t16.5 101.5t-16.5 102t-47 81t-73.5 53.5t-96 19.5q-54 0 -97 -19.5t-73 -53.5t-46.5 -81t-16.5 -102t16.5 -101.5t46.5 -81t73 -54t97 -19.5zM206 736l-167 108h89l144 -108h-66z" />
    <glyph glyph-name="uni1ED4" unicode="&#x1ed4;" horiz-adv-x="765" 
d="M46 0zM456 682l-80 75.75l-78 -75.75h-58l94 108h84l97 -108h-59zM382 -12q-75 0 -136.5 26t-106 72t-69 109.5t-24.5 137.5t24.5 137.5t69 109.5t106 72t136.5 26t136.5 -26t106 -72t69 -109.5t24.5 -137.5t-24.5 -137.5t-69 -109.5t-106 -72t-136.5 -26zM382 77
q53 0 96 19.5t73.5 54t47 81t16.5 101.5t-16.5 102t-47 81t-73.5 53.5t-96 19.5q-54 0 -97 -19.5t-73 -53.5t-46.5 -81t-16.5 -102t16.5 -101.5t46.5 -81t73 -54t97 -19.5zM446 795.25q8 18 27 29.625t48 11.625t51.5 -12.375t22.5 -40.125q0 -12 -4.5 -21t-13.5 -18.75h-44
q12 9.75 17 19.125t5 19.125q0 14.25 -9.5 21t-24.5 6.75q-28 0 -39 -23.25z" />
    <glyph glyph-name="uni1ED6" unicode="&#x1ed6;" horiz-adv-x="765" 
d="M46 0zM460 678l-80 50.5l-78 -50.5h-58l94 72h84l97 -72h-59zM382 -12q-75 0 -136.5 26t-106 72t-69 109.5t-24.5 137.5t24.5 137.5t69 109.5t106 72t136.5 26t136.5 -26t106 -72t69 -109.5t24.5 -137.5t-24.5 -137.5t-69 -109.5t-106 -72t-136.5 -26zM382 77
q53 0 96 19.5t73.5 54t47 81t16.5 101.5t-16.5 102t-47 81t-73.5 53.5t-96 19.5q-54 0 -97 -19.5t-73 -53.5t-46.5 -81t-16.5 -102t16.5 -101.5t46.5 -81t73 -54t97 -19.5zM438 757q-30 0 -46.5 8t-29.5 16.5q-10 7 -20 12.5t-25 5.5q-19 0 -32 -9.25t-13 -30.25h-51
q0 30 25.5 48.5t74.5 18.5q29 0 45.5 -8t29.5 -16.5q11 -7 21 -12.5t25 -5.5q19 0 31.5 9.25t12.5 30.25h52q0 -30 -25.5 -48.5t-74.5 -18.5z" />
    <glyph glyph-name="uni1ED8" unicode="&#x1ed8;" horiz-adv-x="765" 
d="M46 0zM463 723l-80 101l-78 -101h-58l94 144h84l97 -144h-59zM382 -12q-75 0 -136.5 26t-106 72t-69 109.5t-24.5 137.5t24.5 137.5t69 109.5t106 72t136.5 26t136.5 -26t106 -72t69 -109.5t24.5 -137.5t-24.5 -137.5t-69 -109.5t-106 -72t-136.5 -26zM382 77
q53 0 96 19.5t73.5 54t47 81t16.5 101.5t-16.5 102t-47 81t-73.5 53.5t-96 19.5q-54 0 -97 -19.5t-73 -53.5t-46.5 -81t-16.5 -102t16.5 -101.5t46.5 -81t73 -54t97 -19.5zM385 -186q-22 0 -37.5 15t-15.5 38q0 21 15.5 37t37.5 16t37 -16t15 -37q0 -23 -15 -38t-37 -15z
" />
    <glyph glyph-name="Ohorn" unicode="&#x1a0;" horiz-adv-x="765" 
d="M382 -12q-75 0 -136.5 26t-106 72t-69 109.5t-24.5 137.5t24.5 137.5t69 109.5t106 72t136.5 26q79 0 143 -29t109 -80q17 14 29.5 34t15.5 38q-2 -2 -12 -2q-17 0 -29 12.5t-12 31.5q0 20 13 33.5t33 13.5q21 0 37.5 -16.5t16.5 -48.5q0 -40 -19 -73.5t-48 -55.5
q29 -42 44 -93.5t15 -109.5q0 -74 -24.5 -137.5t-69 -109.5t-106 -72t-136.5 -26zM382 77q53 0 96 19.5t73.5 54t47 81t16.5 101.5t-16.5 102t-47 81t-73.5 53.5t-96 19.5q-54 0 -97 -19.5t-73 -53.5t-46.5 -81t-16.5 -102t16.5 -101.5t46.5 -81t73 -54t97 -19.5z" />
    <glyph glyph-name="uni1EDA" unicode="&#x1eda;" horiz-adv-x="765" 
d="M46 0zM390 723h-66l144 144h89zM382 -12q-75 0 -136.5 26t-106 72t-69 109.5t-24.5 137.5t24.5 137.5t69 109.5t106 72t136.5 26q79 0 143 -29t109 -80q17 14 29.5 34t15.5 38q-2 -2 -12 -2q-17 0 -29 12.5t-12 31.5q0 20 13 33.5t33 13.5q21 0 37.5 -16.5t16.5 -48.5
q0 -40 -19 -73.5t-48 -55.5q29 -42 44 -93.5t15 -109.5q0 -74 -24.5 -137.5t-69 -109.5t-106 -72t-136.5 -26zM382 77q53 0 96 19.5t73.5 54t47 81t16.5 101.5t-16.5 102t-47 81t-73.5 53.5t-96 19.5q-54 0 -97 -19.5t-73 -53.5t-46.5 -81t-16.5 -102t16.5 -101.5t46.5 -81
t73 -54t97 -19.5z" />
    <glyph glyph-name="uni1EDC" unicode="&#x1edc;" horiz-adv-x="765" 
d="M46 0zM382 -12q-75 0 -136.5 26t-106 72t-69 109.5t-24.5 137.5t24.5 137.5t69 109.5t106 72t136.5 26q79 0 143 -29t109 -80q17 14 29.5 34t15.5 38q-2 -2 -12 -2q-17 0 -29 12.5t-12 31.5q0 20 13 33.5t33 13.5q21 0 37.5 -16.5t16.5 -48.5q0 -40 -19 -73.5t-48 -55.5
q29 -42 44 -93.5t15 -109.5q0 -74 -24.5 -137.5t-69 -109.5t-106 -72t-136.5 -26zM382 77q53 0 96 19.5t73.5 54t47 81t16.5 101.5t-16.5 102t-47 81t-73.5 53.5t-96 19.5q-54 0 -97 -19.5t-73 -53.5t-46.5 -81t-16.5 -102t16.5 -101.5t46.5 -81t73 -54t97 -19.5zM376 723
l-167 144h89l144 -144h-66z" />
    <glyph glyph-name="uni1EDE" unicode="&#x1ede;" horiz-adv-x="765" 
d="M46 0zM382 -12q-75 0 -136.5 26t-106 72t-69 109.5t-24.5 137.5t24.5 137.5t69 109.5t106 72t136.5 26q79 0 143 -29t109 -80q17 14 29.5 34t15.5 38q-2 -2 -12 -2q-17 0 -29 12.5t-12 31.5q0 20 13 33.5t33 13.5q21 0 37.5 -16.5t16.5 -48.5q0 -40 -19 -73.5t-48 -55.5
q29 -42 44 -93.5t15 -109.5q0 -74 -24.5 -137.5t-69 -109.5t-106 -72t-136.5 -26zM382 77q53 0 96 19.5t73.5 54t47 81t16.5 101.5t-16.5 102t-47 81t-73.5 53.5t-96 19.5q-54 0 -97 -19.5t-73 -53.5t-46.5 -81t-16.5 -102t16.5 -101.5t46.5 -81t73 -54t97 -19.5zM307 765
q8 24 27 39.5t48 15.5t51.5 -16.5t22.5 -53.5q0 -16 -4.5 -28t-13.5 -25h-44q12 13 17 25.5t5 25.5q0 19 -9.5 28t-24.5 9q-28 0 -39 -31z" />
    <glyph glyph-name="uni1EE0" unicode="&#x1ee0;" horiz-adv-x="765" 
d="M46 0zM382 -12q-75 0 -136.5 26t-106 72t-69 109.5t-24.5 137.5t24.5 137.5t69 109.5t106 72t136.5 26q79 0 143 -29t109 -80q17 14 29.5 34t15.5 38q-2 -2 -12 -2q-17 0 -29 12.5t-12 31.5q0 20 13 33.5t33 13.5q21 0 37.5 -16.5t16.5 -48.5q0 -40 -19 -73.5t-48 -55.5
q29 -42 44 -93.5t15 -109.5q0 -74 -24.5 -137.5t-69 -109.5t-106 -72t-136.5 -26zM382 77q53 0 96 19.5t73.5 54t47 81t16.5 101.5t-16.5 102t-47 81t-73.5 53.5t-96 19.5q-54 0 -97 -19.5t-73 -53.5t-46.5 -81t-16.5 -102t16.5 -101.5t46.5 -81t73 -54t97 -19.5zM441 721
q-30 0 -46.5 16t-29.5 33q-10 14 -20 25t-25 11q-19 0 -32 -18.5t-13 -60.5h-51q0 60 25.5 97t74.5 37q29 0 45.5 -16t29.5 -33q11 -14 21 -25t25 -11q19 0 31.5 18.5t12.5 60.5h52q0 -60 -25.5 -97t-74.5 -37z" />
    <glyph glyph-name="uni1EE2" unicode="&#x1ee2;" horiz-adv-x="765" 
d="M46 0zM382 -12q-75 0 -136.5 26t-106 72t-69 109.5t-24.5 137.5t24.5 137.5t69 109.5t106 72t136.5 26q79 0 143 -29t109 -80q17 14 29.5 34t15.5 38q-2 -2 -12 -2q-17 0 -29 12.5t-12 31.5q0 20 13 33.5t33 13.5q21 0 37.5 -16.5t16.5 -48.5q0 -40 -19 -73.5t-48 -55.5
q29 -42 44 -93.5t15 -109.5q0 -74 -24.5 -137.5t-69 -109.5t-106 -72t-136.5 -26zM382 77q53 0 96 19.5t73.5 54t47 81t16.5 101.5t-16.5 102t-47 81t-73.5 53.5t-96 19.5q-54 0 -97 -19.5t-73 -53.5t-46.5 -81t-16.5 -102t16.5 -101.5t46.5 -81t73 -54t97 -19.5zM385 -186
q-22 0 -37.5 15t-15.5 38q0 21 15.5 37t37.5 16t37 -16t15 -37q0 -23 -15 -38t-37 -15z" />
    <glyph glyph-name="OE" unicode="&#x152;" horiz-adv-x="1099" 
d="M601 0v108q-18 -30 -43.5 -52.5t-55.5 -37.5t-63 -22.5t-66 -7.5q-73 0 -133 26t-103 72t-67 109t-24 138t24 138t67 108.5t103 71.5t133 26q33 0 66 -7.5t63 -22.5t55.5 -37t43.5 -52v109h447v-88h-347v-195h340v-88h-340v-208h347v-88h-447zM601 441q-29 74 -86 110.5
t-130 36.5q-55 0 -98.5 -19t-74 -53t-47 -81t-16.5 -102t16.5 -102t47 -81t74 -53.5t98.5 -19.5q73 0 130 37.5t86 110.5v216z" />
    <glyph glyph-name="uni1E56" unicode="&#x1e56;" horiz-adv-x="597" 
d="M74 0zM74 0v667h281q51 0 91 -16.5t67 -44.5t41 -65t14 -79t-14 -79t-41.5 -65t-67 -44.5t-90.5 -16.5h-181v-257h-100zM342 345q54 0 88.5 32t34.5 85t-34.5 85t-88.5 32h-168v-234h168zM299 719q-22 0 -37.5 15t-15.5 38q0 21 15.5 37t37.5 16t37 -16t15 -37
q0 -23 -15 -38t-37 -15z" />
    <glyph glyph-name="Racute" unicode="&#x154;" horiz-adv-x="618" 
d="M74 0zM323 723h-66l144 144h89zM458 0l-159 257h-125v-257h-100v667h281q48 0 87 -14.5t67.5 -41.5t44 -65t15.5 -84q0 -45 -14 -79.5t-37 -59t-53 -38.5t-62 -18l171 -267h-116zM342 345q54 0 89 32t35 85t-35 85t-89 32h-168v-234h168z" />
    <glyph glyph-name="Rcaron" unicode="&#x158;" horiz-adv-x="618" 
d="M74 0zM270 723l-97 144h58l81 -102l77 102h59l-94 -144h-84zM458 0l-159 257h-125v-257h-100v667h281q48 0 87 -14.5t67.5 -41.5t44 -65t15.5 -84q0 -45 -14 -79.5t-37 -59t-53 -38.5t-62 -18l171 -267h-116zM342 345q54 0 89 32t35 85t-35 85t-89 32h-168v-234h168z" />
    <glyph glyph-name="uni0156" unicode="&#x156;" horiz-adv-x="618" 
d="M74 0zM372 -138q0 -42 -21.5 -78.5t-53.5 -59.5l-36 28q22 14 39.5 38t20.5 46q-2 -1 -6 -1.5t-7 -0.5q-20 0 -32.5 13.5t-12.5 34.5t14.5 36t35.5 15q23 0 41 -18.5t18 -52.5zM458 0l-159 257h-125v-257h-100v667h281q48 0 87 -14.5t67.5 -41.5t44 -65t15.5 -84
q0 -45 -14 -79.5t-37 -59t-53 -38.5t-62 -18l171 -267h-116zM342 345q54 0 89 32t35 85t-35 85t-89 32h-168v-234h168z" />
    <glyph glyph-name="Sacute" unicode="&#x15a;" horiz-adv-x="590" 
d="M33 0zM300 723h-66l144 144h89zM296 -12q-90 0 -155 29t-108 77l57 77q34 -38 87 -66t123 -28q40 0 68 9.5t45.5 24t25 33t7.5 36.5q0 26 -13 44t-35.5 30t-51.5 21t-61 17q-40 10 -81 23t-74.5 34t-54.5 54t-21 84q0 41 17.5 76t48.5 60.5t74.5 39.5t95.5 14
q78 0 138 -24t105 -69l-58 -74q-38 41 -88.5 59.5t-104.5 18.5q-56 0 -90.5 -26t-34.5 -68q0 -23 12.5 -38t34 -26.5t49.5 -19.5t59 -16q41 -11 83 -24.5t76 -36t55.5 -57t21.5 -87.5q0 -39 -14 -75.5t-44.5 -64t-78.5 -44.5t-115 -17z" />
    <glyph glyph-name="Scaron" unicode="&#x160;" horiz-adv-x="590" 
d="M33 0zM247 723l-97 144h58l81 -102l77 102h59l-94 -144h-84zM296 -12q-90 0 -155 29t-108 77l57 77q34 -38 87 -66t123 -28q40 0 68 9.5t45.5 24t25 33t7.5 36.5q0 26 -13 44t-35.5 30t-51.5 21t-61 17q-40 10 -81 23t-74.5 34t-54.5 54t-21 84q0 41 17.5 76t48.5 60.5
t74.5 39.5t95.5 14q78 0 138 -24t105 -69l-58 -74q-38 41 -88.5 59.5t-104.5 18.5q-56 0 -90.5 -26t-34.5 -68q0 -23 12.5 -38t34 -26.5t49.5 -19.5t59 -16q41 -11 83 -24.5t76 -36t55.5 -57t21.5 -87.5q0 -39 -14 -75.5t-44.5 -64t-78.5 -44.5t-115 -17z" />
    <glyph glyph-name="Scircumflex" unicode="&#x15c;" horiz-adv-x="590" 
d="M33 0zM366 723l-80 101l-78 -101h-58l94 144h84l97 -144h-59zM296 -12q-90 0 -155 29t-108 77l57 77q34 -38 87 -66t123 -28q40 0 68 9.5t45.5 24t25 33t7.5 36.5q0 26 -13 44t-35.5 30t-51.5 21t-61 17q-40 10 -81 23t-74.5 34t-54.5 54t-21 84q0 41 17.5 76t48.5 60.5
t74.5 39.5t95.5 14q78 0 138 -24t105 -69l-58 -74q-38 41 -88.5 59.5t-104.5 18.5q-56 0 -90.5 -26t-34.5 -68q0 -23 12.5 -38t34 -26.5t49.5 -19.5t59 -16q41 -11 83 -24.5t76 -36t55.5 -57t21.5 -87.5q0 -39 -14 -75.5t-44.5 -64t-78.5 -44.5t-115 -17z" />
    <glyph glyph-name="uni015E" unicode="&#x15e;" horiz-adv-x="590" 
d="M288 -193q-33 0 -60.5 9.5t-42.5 21.5l20 42q19 -15 40 -22t41 -7q23 0 41 9.5t18 29.5q0 32 -36 32q-22 0 -35 -15l-38 21l23 62q-75 6 -131.5 34t-94.5 70l57 77q34 -38 87 -66t123 -28q40 0 68 9.5t45.5 24t25 33t7.5 36.5q0 26 -13 44t-35.5 30t-51.5 21t-61 17
q-40 10 -81 23t-74.5 34t-54.5 54t-21 84q0 41 17.5 76t48.5 60.5t74.5 39.5t95.5 14q78 0 138 -24t105 -69l-58 -74q-38 41 -88.5 59.5t-104.5 18.5q-56 0 -90.5 -26t-34.5 -68q0 -23 12.5 -38t34 -26.5t49.5 -19.5t59 -16q41 -11 83 -24.5t76 -36t55.5 -57t21.5 -87.5
q0 -38 -13.5 -74t-42.5 -63.5t-74.5 -45t-109.5 -18.5l-17 -42q16 11 37 11q29 0 47.5 -18.5t18.5 -49.5q0 -38 -30.5 -60t-75.5 -22z" />
    <glyph glyph-name="uni0218" unicode="&#x218;" horiz-adv-x="590" 
d="M33 0zM352 -138q0 -42 -21.5 -78.5t-53.5 -59.5l-36 28q22 14 39.5 38t20.5 46q-2 -1 -6 -1.5t-7 -0.5q-20 0 -32.5 13.5t-12.5 34.5t14.5 36t35.5 15q23 0 41 -18.5t18 -52.5zM296 -12q-90 0 -155 29t-108 77l57 77q34 -38 87 -66t123 -28q40 0 68 9.5t45.5 24t25 33
t7.5 36.5q0 26 -13 44t-35.5 30t-51.5 21t-61 17q-40 10 -81 23t-74.5 34t-54.5 54t-21 84q0 41 17.5 76t48.5 60.5t74.5 39.5t95.5 14q78 0 138 -24t105 -69l-58 -74q-38 41 -88.5 59.5t-104.5 18.5q-56 0 -90.5 -26t-34.5 -68q0 -23 12.5 -38t34 -26.5t49.5 -19.5t59 -16
q41 -11 83 -24.5t76 -36t55.5 -57t21.5 -87.5q0 -39 -14 -75.5t-44.5 -64t-78.5 -44.5t-115 -17z" />
    <glyph glyph-name="uni1E60" unicode="&#x1e60;" horiz-adv-x="590" 
d="M33 0zM296 -12q-90 0 -155 29t-108 77l57 77q34 -38 87 -66t123 -28q40 0 68 9.5t45.5 24t25 33t7.5 36.5q0 26 -13 44t-35.5 30t-51.5 21t-61 17q-40 10 -81 23t-74.5 34t-54.5 54t-21 84q0 41 17.5 76t48.5 60.5t74.5 39.5t95.5 14q78 0 138 -24t105 -69l-58 -74
q-38 41 -88.5 59.5t-104.5 18.5q-56 0 -90.5 -26t-34.5 -68q0 -23 12.5 -38t34 -26.5t49.5 -19.5t59 -16q41 -11 83 -24.5t76 -36t55.5 -57t21.5 -87.5q0 -39 -14 -75.5t-44.5 -64t-78.5 -44.5t-115 -17zM295 719q-22 0 -37.5 15t-15.5 38q0 21 15.5 37t37.5 16t37 -16
t15 -37q0 -23 -15 -38t-37 -15z" />
    <glyph glyph-name="uni1E9E" unicode="&#x1e9e;" horiz-adv-x="681" 
d="M418 -12q-73 0 -119.5 21.5t-73.5 50.5l60 70q24 -23 56 -38t77 -15q60 0 95.5 31.5t35.5 86.5q0 34 -14.5 57t-41 36.5t-64 19.5t-83.5 6h-43v86l154 165q-42 25 -102 25q-88 0 -134 -50.5t-46 -136.5v-403h-101v406q0 61 17.5 111.5t53 86.5t88 55.5t122.5 19.5
q76 0 136 -24.5t97 -77.5l-165 -181q48 -3 89.5 -15.5t72.5 -37t49 -61t18 -87.5q0 -45 -17.5 -83t-49 -65.5t-74.5 -43t-93 -15.5z" />
    <glyph glyph-name="Tbar" unicode="&#x166;" horiz-adv-x="573" 
d="M237 0v285h-146v55h146v239h-207v88h513v-88h-206v-239h146v-55h-146v-285h-100z" />
    <glyph glyph-name="Tcaron" unicode="&#x164;" horiz-adv-x="573" 
d="M30 0zM246 723l-97 144h58l81 -102l77 102h59l-94 -144h-84zM237 0v579h-207v88h513v-88h-206v-579h-100z" />
    <glyph glyph-name="Tcommaaccent" unicode="&#x162;" horiz-adv-x="573" 
d="M290 -193q-33 0 -60.5 9.5t-42.5 21.5l20 42q19 -15 40 -22t41 -7q23 0 41 9.5t18 29.5q0 32 -36 32q-22 0 -35 -15l-38 21l27 72h-28v579h-207v88h513v-88h-206v-579h-22l-22 -54q16 11 37 11q29 0 47.5 -18.5t18.5 -49.5q0 -38 -30.5 -60t-75.5 -22z" />
    <glyph glyph-name="uni021A" unicode="&#x21a;" horiz-adv-x="573" 
d="M30 0zM348 -138q0 -42 -21.5 -78.5t-53.5 -59.5l-36 28q22 14 39.5 38t20.5 46q-2 -1 -6 -1.5t-7 -0.5q-20 0 -32.5 13.5t-12.5 34.5t14.5 36t35.5 15q23 0 41 -18.5t18 -52.5zM237 0v579h-207v88h513v-88h-206v-579h-100z" />
    <glyph glyph-name="uni1E6A" unicode="&#x1e6a;" horiz-adv-x="573" 
d="M30 0zM237 0v579h-207v88h513v-88h-206v-579h-100zM286 719q-22 0 -37.5 15t-15.5 38q0 21 15.5 37t37.5 16t37 -16t15 -37q0 -23 -15 -38t-37 -15z" />
    <glyph glyph-name="Uacute" unicode="&#xda;" horiz-adv-x="710" 
d="M74 0zM362 723h-66l144 144h89zM355 -12q-70 0 -122.5 19.5t-88 55.5t-53 86t-17.5 112v406h101v-403q0 -86 46 -136.5t134 -50.5t133.5 50.5t45.5 136.5v403h101v-405q0 -62 -17.5 -112.5t-52.5 -86.5t-87.5 -55.5t-122.5 -19.5z" />
    <glyph glyph-name="Ubreve" unicode="&#x16c;" horiz-adv-x="710" 
d="M74 0zM355 -12q-70 0 -122.5 19.5t-88 55.5t-53 86t-17.5 112v406h101v-403q0 -86 46 -136.5t134 -50.5t133.5 50.5t45.5 136.5v403h101v-405q0 -62 -17.5 -112.5t-52.5 -86.5t-87.5 -55.5t-122.5 -19.5zM533 791q-30 -41 -75.5 -64.5t-99.5 -23.5t-99.5 23.5t-76.5 64.5
l43 36q23 -32 56.5 -50.5t76.5 -18.5q42 0 76 18.5t57 50.5l42 -36v0z" />
    <glyph glyph-name="Ucircumflex" unicode="&#xdb;" horiz-adv-x="710" 
d="M74 0zM436 723l-80 101l-78 -101h-58l94 144h84l97 -144h-59zM355 -12q-70 0 -122.5 19.5t-88 55.5t-53 86t-17.5 112v406h101v-403q0 -86 46 -136.5t134 -50.5t133.5 50.5t45.5 136.5v403h101v-405q0 -62 -17.5 -112.5t-52.5 -86.5t-87.5 -55.5t-122.5 -19.5z" />
    <glyph glyph-name="Udieresis" unicode="&#xdc;" horiz-adv-x="710" 
d="M74 0zM513 773q0 -22 -15.5 -37.5t-37.5 -15.5t-37.5 15.5t-15.5 37.5t15.5 37t37.5 15t37.5 -15t15.5 -37zM304 773q0 -22 -15 -37.5t-37 -15.5t-37 15.5t-15 37.5t15 37t37 15t37 -15t15 -37zM355 -12q-70 0 -122.5 19.5t-88 55.5t-53 86t-17.5 112v406h101v-403
q0 -86 46 -136.5t134 -50.5t133.5 50.5t45.5 136.5v403h101v-405q0 -62 -17.5 -112.5t-52.5 -86.5t-87.5 -55.5t-122.5 -19.5z" />
    <glyph glyph-name="Ugrave" unicode="&#xd9;" horiz-adv-x="710" 
d="M74 0zM355 -12q-70 0 -122.5 19.5t-88 55.5t-53 86t-17.5 112v406h101v-403q0 -86 46 -136.5t134 -50.5t133.5 50.5t45.5 136.5v403h101v-405q0 -62 -17.5 -112.5t-52.5 -86.5t-87.5 -55.5t-122.5 -19.5zM348 723l-167 144h89l144 -144h-66z" />
    <glyph glyph-name="Uhungarumlaut" unicode="&#x170;" horiz-adv-x="710" 
d="M74 0zM355 -12q-70 0 -122.5 19.5t-88 55.5t-53 86t-17.5 112v406h101v-403q0 -86 46 -136.5t134 -50.5t133.5 50.5t45.5 136.5v403h101v-405q0 -62 -17.5 -112.5t-52.5 -86.5t-87.5 -55.5t-122.5 -19.5zM299 723h-56l92 144h79zM443 723h-56l92 144h79z" />
    <glyph glyph-name="Umacron" unicode="&#x16a;" horiz-adv-x="710" 
d="M74 0zM355 -12q-70 0 -122.5 19.5t-88 55.5t-53 86t-17.5 112v406h101v-403q0 -86 46 -136.5t134 -50.5t133.5 50.5t45.5 136.5v403h101v-405q0 -62 -17.5 -112.5t-52.5 -86.5t-87.5 -55.5t-122.5 -19.5zM174 736v55h363v-55h-363z" />
    <glyph glyph-name="Uogonek" unicode="&#x172;" horiz-adv-x="710" 
d="M355 -12q-70 0 -122.5 19.5t-88 55.5t-53 86t-17.5 112v406h101v-403q0 -86 46 -136.5t134 -50.5t133.5 50.5t45.5 136.5v403h101v-405q0 -99 -41.5 -164.5t-122.5 -92.5q-52 -17 -80 -42t-28 -52q0 -17 11 -26t27 -9q8 0 15.5 1.5t15.5 6.5l22 -53q-28 -17 -74 -17
q-20 0 -38 4.5t-32.5 14t-23 24t-8.5 33.5q0 30 24 55.5t61 42.5h-8v0z" />
    <glyph glyph-name="Uring" unicode="&#x16e;" horiz-adv-x="710" 
d="M74 0zM356 706q-21 0 -39 8t-31.5 22t-21.5 32t-8 39t8 39t21.5 32t31.5 22t39 8t39 -8t31.5 -22t21 -32t7.5 -39t-7.5 -39t-21 -32t-31.5 -22t-39 -8zM356 751q23 0 39 16.5t16 39.5t-16 39t-39 16t-39 -16t-16 -39t16 -39.5t39 -16.5zM355 -12q-70 0 -122.5 19.5
t-88 55.5t-53 86t-17.5 112v406h101v-403q0 -86 46 -136.5t134 -50.5t133.5 50.5t45.5 136.5v403h101v-405q0 -62 -17.5 -112.5t-52.5 -86.5t-87.5 -55.5t-122.5 -19.5z" />
    <glyph glyph-name="Utilde" unicode="&#x168;" horiz-adv-x="710" 
d="M74 0zM355 -12q-70 0 -122.5 19.5t-88 55.5t-53 86t-17.5 112v406h101v-403q0 -86 46 -136.5t134 -50.5t133.5 50.5t45.5 136.5v403h101v-405q0 -62 -17.5 -112.5t-52.5 -86.5t-87.5 -55.5t-122.5 -19.5zM415 721q-30 0 -46.5 16t-29.5 33q-10 14 -20 25t-25 11
q-19 0 -32 -18.5t-13 -60.5h-51q0 60 25.5 97t74.5 37q29 0 45.5 -16t29.5 -33q11 -14 21 -25t25 -11q19 0 31.5 18.5t12.5 60.5h52q0 -60 -25.5 -97t-74.5 -37z" />
    <glyph glyph-name="uni1EE4" unicode="&#x1ee4;" horiz-adv-x="710" 
d="M74 0zM355 -12q-70 0 -122.5 19.5t-88 55.5t-53 86t-17.5 112v406h101v-403q0 -86 46 -136.5t134 -50.5t133.5 50.5t45.5 136.5v403h101v-405q0 -62 -17.5 -112.5t-52.5 -86.5t-87.5 -55.5t-122.5 -19.5zM358 -186q-22 0 -37.5 15t-15.5 38q0 21 15.5 37t37.5 16t37 -16
t15 -37q0 -23 -15 -38t-37 -15z" />
    <glyph glyph-name="Uhorn" unicode="&#x1af;" horiz-adv-x="710" 
d="M749 728q0 -48 -30 -90.5t-84 -65.5v-310q0 -62 -17.5 -112.5t-52.5 -86.5t-87.5 -55.5t-122.5 -19.5t-122.5 19.5t-88 55.5t-53 86t-17.5 112v406h101v-403q0 -86 46 -136.5t134 -50.5t133.5 50.5t45.5 136.5v403h101v-51q26 14 45.5 38.5t22.5 50.5q-4 -2 -12 -2
q-18 0 -30 12t-12 32q0 19 13 32.5t33 13.5q22 0 38 -16.5t16 -48.5z" />
    <glyph glyph-name="uni1EE6" unicode="&#x1ee6;" horiz-adv-x="710" 
d="M74 0zM355 -12q-70 0 -122.5 19.5t-88 55.5t-53 86t-17.5 112v406h101v-403q0 -86 46 -136.5t134 -50.5t133.5 50.5t45.5 136.5v403h101v-405q0 -62 -17.5 -112.5t-52.5 -86.5t-87.5 -55.5t-122.5 -19.5zM281 765q8 24 27 39.5t48 15.5t51.5 -16.5t22.5 -53.5
q0 -16 -4.5 -28t-13.5 -25h-44q12 13 17 25.5t5 25.5q0 19 -9.5 28t-24.5 9q-28 0 -39 -31z" />
    <glyph glyph-name="uni1EE8" unicode="&#x1ee8;" horiz-adv-x="710" 
d="M74 0zM362 723h-66l144 144h89zM749 728q0 -48 -30 -90.5t-84 -65.5v-310q0 -62 -17.5 -112.5t-52.5 -86.5t-87.5 -55.5t-122.5 -19.5t-122.5 19.5t-88 55.5t-53 86t-17.5 112v406h101v-403q0 -86 46 -136.5t134 -50.5t133.5 50.5t45.5 136.5v403h101v-51
q26 14 45.5 38.5t22.5 50.5q-4 -2 -12 -2q-18 0 -30 12t-12 32q0 19 13 32.5t33 13.5q22 0 38 -16.5t16 -48.5z" />
    <glyph glyph-name="uni1EEA" unicode="&#x1eea;" horiz-adv-x="710" 
d="M74 0zM348 723l-167 144h89l144 -144h-66zM749 728q0 -48 -30 -90.5t-84 -65.5v-310q0 -62 -17.5 -112.5t-52.5 -86.5t-87.5 -55.5t-122.5 -19.5t-122.5 19.5t-88 55.5t-53 86t-17.5 112v406h101v-403q0 -86 46 -136.5t134 -50.5t133.5 50.5t45.5 136.5v403h101v-51
q26 14 45.5 38.5t22.5 50.5q-4 -2 -12 -2q-18 0 -30 12t-12 32q0 19 13 32.5t33 13.5q22 0 38 -16.5t16 -48.5z" />
    <glyph glyph-name="uni1EEC" unicode="&#x1eec;" horiz-adv-x="710" 
d="M74 0zM281 765q8 24 27 39.5t48 15.5t51.5 -16.5t22.5 -53.5q0 -16 -4.5 -28t-13.5 -25h-44q12 13 17 25.5t5 25.5q0 19 -9.5 28t-24.5 9q-28 0 -39 -31zM749 728q0 -48 -30 -90.5t-84 -65.5v-310q0 -62 -17.5 -112.5t-52.5 -86.5t-87.5 -55.5t-122.5 -19.5t-122.5 19.5
t-88 55.5t-53 86t-17.5 112v406h101v-403q0 -86 46 -136.5t134 -50.5t133.5 50.5t45.5 136.5v403h101v-51q26 14 45.5 38.5t22.5 50.5q-4 -2 -12 -2q-18 0 -30 12t-12 32q0 19 13 32.5t33 13.5q22 0 38 -16.5t16 -48.5z" />
    <glyph glyph-name="uni1EEE" unicode="&#x1eee;" horiz-adv-x="710" 
d="M74 0zM749 728q0 -48 -30 -90.5t-84 -65.5v-310q0 -62 -17.5 -112.5t-52.5 -86.5t-87.5 -55.5t-122.5 -19.5t-122.5 19.5t-88 55.5t-53 86t-17.5 112v406h101v-403q0 -86 46 -136.5t134 -50.5t133.5 50.5t45.5 136.5v403h101v-51q26 14 45.5 38.5t22.5 50.5q-4 -2 -12 -2
q-18 0 -30 12t-12 32q0 19 13 32.5t33 13.5q22 0 38 -16.5t16 -48.5zM414 721q-30 0 -46.5 16t-29.5 33q-10 14 -20 25t-25 11q-19 0 -32 -18.5t-13 -60.5h-51q0 60 25.5 97t74.5 37q29 0 45.5 -16t29.5 -33q11 -14 21 -25t25 -11q19 0 31.5 18.5t12.5 60.5h52
q0 -60 -25.5 -97t-74.5 -37z" />
    <glyph glyph-name="uni1EF0" unicode="&#x1ef0;" horiz-adv-x="710" 
d="M74 0zM358 -186q-22 0 -37.5 15t-15.5 38q0 21 15.5 37t37.5 16t37 -16t15 -37q0 -23 -15 -38t-37 -15zM749 728q0 -48 -30 -90.5t-84 -65.5v-310q0 -62 -17.5 -112.5t-52.5 -86.5t-87.5 -55.5t-122.5 -19.5t-122.5 19.5t-88 55.5t-53 86t-17.5 112v406h101v-403
q0 -86 46 -136.5t134 -50.5t133.5 50.5t45.5 136.5v403h101v-51q26 14 45.5 38.5t22.5 50.5q-4 -2 -12 -2q-18 0 -30 12t-12 32q0 19 13 32.5t33 13.5q22 0 38 -16.5t16 -48.5z" />
    <glyph glyph-name="Wacute" unicode="&#x1e82;" horiz-adv-x="893" 
d="M10 0zM453 723h-66l144 144h89zM585 0l-139 515l-138 -515h-107l-191 667h112l138 -535l146 535h81l145 -535l138 535h112l-190 -667h-107z" />
    <glyph glyph-name="Wcircumflex" unicode="&#x174;" horiz-adv-x="893" 
d="M10 0zM525 723l-80 101l-78 -101h-58l94 144h84l97 -144h-59zM585 0l-139 515l-138 -515h-107l-191 667h112l138 -535l146 535h81l145 -535l138 535h112l-190 -667h-107z" />
    <glyph glyph-name="Wdieresis" unicode="&#x1e84;" horiz-adv-x="893" 
d="M10 0zM603 773q0 -22 -15.5 -37.5t-37.5 -15.5t-37.5 15.5t-15.5 37.5t15.5 37t37.5 15t37.5 -15t15.5 -37zM394 773q0 -22 -15 -37.5t-37 -15.5t-37 15.5t-15 37.5t15 37t37 15t37 -15t15 -37zM585 0l-139 515l-138 -515h-107l-191 667h112l138 -535l146 535h81
l145 -535l138 535h112l-190 -667h-107z" />
    <glyph glyph-name="Wgrave" unicode="&#x1e80;" horiz-adv-x="893" 
d="M10 0zM585 0l-139 515l-138 -515h-107l-191 667h112l138 -535l146 535h81l145 -535l138 535h112l-190 -667h-107zM439 723l-167 144h89l144 -144h-66z" />
    <glyph glyph-name="Yacute" unicode="&#xdd;" horiz-adv-x="632" 
d="M5 0zM266 0v279l-261 388h115l196 -298l194 298h116l-260 -388v-279h-100zM322 723h-66l144 144h89z" />
    <glyph glyph-name="Ycircumflex" unicode="&#x176;" horiz-adv-x="632" 
d="M5 0zM395 723l-80 101l-78 -101h-58l94 144h84l97 -144h-59zM266 0v279l-261 388h115l196 -298l194 298h116l-260 -388v-279h-100z" />
    <glyph glyph-name="Ydieresis" unicode="&#x178;" horiz-adv-x="632" 
d="M5 0zM474 773q0 -22 -15.5 -37.5t-37.5 -15.5t-37.5 15.5t-15.5 37.5t15.5 37t37.5 15t37.5 -15t15.5 -37zM265 773q0 -22 -15 -37.5t-37 -15.5t-37 15.5t-15 37.5t15 37t37 15t37 -15t15 -37zM266 0v279l-261 388h115l196 -298l194 298h116l-260 -388v-279h-100z" />
    <glyph glyph-name="Ygrave" unicode="&#x1ef2;" horiz-adv-x="632" 
d="M5 0zM266 0v279l-261 388h115l196 -298l194 298h116l-260 -388v-279h-100zM309 723l-167 144h89l144 -144h-66z" />
    <glyph glyph-name="Zacute" unicode="&#x179;" horiz-adv-x="587" 
d="M46 0zM300 723h-66l144 144h89zM46 0v82l358 497h-358v88h487v-82l-358 -497h365v-88h-494z" />
    <glyph glyph-name="Zcaron" unicode="&#x17d;" horiz-adv-x="587" 
d="M46 0zM249 723l-97 144h58l81 -102l77 102h59l-94 -144h-84zM46 0v82l358 497h-358v88h487v-82l-358 -497h365v-88h-494z" />
    <glyph glyph-name="Zdotaccent" unicode="&#x17b;" horiz-adv-x="587" 
d="M46 0zM46 0v82l358 497h-358v88h487v-82l-358 -497h365v-88h-494zM290 719q-22 0 -37.5 15t-15.5 38q0 21 15.5 37t37.5 16t37 -16t15 -37q0 -23 -15 -38t-37 -15z" />
    <glyph glyph-name="Eth" unicode="&#xd0;" horiz-adv-x="732" 
d="M101 0v292h-91v73h91v302h238q78 0 142 -25t109 -70t70 -106t25 -133t-25 -133.5t-70 -105.5t-109 -69t-142 -25h-238zM339 88q58 0 103 19.5t76 52.5t47.5 77.5t16.5 95.5t-16 96t-46.5 78.5t-76 52.5t-104.5 19h-138v-214h165v-73h-165v-204h138z" />
    <glyph glyph-name="Thorn" unicode="&#xde;" horiz-adv-x="597" 
d="M74 0v667h100v-116h181q51 0 91 -16.5t67 -45t41 -65.5t14 -79t-14 -78.5t-41.5 -64.5t-67 -44t-90.5 -16h-181v-142h-100zM342 230q54 0 88.5 31.5t34.5 84.5q0 51 -34.5 83.5t-88.5 32.5h-168v-232h168z" />
    <glyph glyph-name="aacute" unicode="&#xe1;" horiz-adv-x="532" 
d="M44 0zM370 0v53q-29 -32 -69 -48.5t-89 -16.5q-30 0 -60 10t-54 30t-39 50t-15 70q0 41 15 71t39 49.5t54 28.5t60 9q49 0 89.5 -16t68.5 -48v80q0 45 -33 70.5t-85 25.5q-81 0 -145 -64l-39 62q80 79 198 79q39 0 74.5 -9t62 -29.5t42 -52.5t15.5 -78v-326h-90zM246 51
q38 0 71 14t53 41v82q-20 27 -53 41t-71 14q-49 0 -80 -26.5t-31 -69.5t31 -69.5t80 -26.5zM273 556h-66l144 144h89z" />
    <glyph glyph-name="abreve" unicode="&#x103;" horiz-adv-x="532" 
d="M44 0zM370 0v53q-29 -32 -69 -48.5t-89 -16.5q-30 0 -60 10t-54 30t-39 50t-15 70q0 41 15 71t39 49.5t54 28.5t60 9q49 0 89.5 -16t68.5 -48v80q0 45 -33 70.5t-85 25.5q-81 0 -145 -64l-39 62q80 79 198 79q39 0 74.5 -9t62 -29.5t42 -52.5t15.5 -78v-326h-90zM246 51
q38 0 71 14t53 41v82q-20 27 -53 41t-71 14q-49 0 -80 -26.5t-31 -69.5t31 -69.5t80 -26.5zM441 624q-30 -41 -75.5 -64.5t-99.5 -23.5t-99.5 23.5t-76.5 64.5l43 36q23 -32 56.5 -50.5t76.5 -18.5q42 0 76 18.5t57 50.5l42 -36v0z" />
    <glyph glyph-name="acircumflex" unicode="&#xe2;" horiz-adv-x="532" 
d="M44 0zM370 0v53q-29 -32 -69 -48.5t-89 -16.5q-30 0 -60 10t-54 30t-39 50t-15 70q0 41 15 71t39 49.5t54 28.5t60 9q49 0 89.5 -16t68.5 -48v80q0 45 -33 70.5t-85 25.5q-81 0 -145 -64l-39 62q80 79 198 79q39 0 74.5 -9t62 -29.5t42 -52.5t15.5 -78v-326h-90zM246 51
q38 0 71 14t53 41v82q-20 27 -53 41t-71 14q-49 0 -80 -26.5t-31 -69.5t31 -69.5t80 -26.5zM345 556l-80 101l-78 -101h-58l94 144h84l97 -144h-59z" />
    <glyph glyph-name="adieresis" unicode="&#xe4;" horiz-adv-x="532" 
d="M44 0zM370 0v53q-29 -32 -69 -48.5t-89 -16.5q-30 0 -60 10t-54 30t-39 50t-15 70q0 41 15 71t39 49.5t54 28.5t60 9q49 0 89.5 -16t68.5 -48v80q0 45 -33 70.5t-85 25.5q-81 0 -145 -64l-39 62q80 79 198 79q39 0 74.5 -9t62 -29.5t42 -52.5t15.5 -78v-326h-90zM246 51
q38 0 71 14t53 41v82q-20 27 -53 41t-71 14q-49 0 -80 -26.5t-31 -69.5t31 -69.5t80 -26.5zM423 606q0 -22 -15.5 -37.5t-37.5 -15.5t-37.5 15.5t-15.5 37.5t15.5 37t37.5 15t37.5 -15t15.5 -37zM214 606q0 -22 -15 -37.5t-37 -15.5t-37 15.5t-15 37.5t15 37t37 15t37 -15
t15 -37z" />
    <glyph glyph-name="agrave" unicode="&#xe0;" horiz-adv-x="532" 
d="M44 0zM370 0v53q-29 -32 -69 -48.5t-89 -16.5q-30 0 -60 10t-54 30t-39 50t-15 70q0 41 15 71t39 49.5t54 28.5t60 9q49 0 89.5 -16t68.5 -48v80q0 45 -33 70.5t-85 25.5q-81 0 -145 -64l-39 62q80 79 198 79q39 0 74.5 -9t62 -29.5t42 -52.5t15.5 -78v-326h-90zM246 51
q38 0 71 14t53 41v82q-20 27 -53 41t-71 14q-49 0 -80 -26.5t-31 -69.5t31 -69.5t80 -26.5zM259 556l-167 144h89l144 -144h-66z" />
    <glyph glyph-name="amacron" unicode="&#x101;" horiz-adv-x="532" 
d="M44 0zM370 0v53q-29 -32 -69 -48.5t-89 -16.5q-30 0 -60 10t-54 30t-39 50t-15 70q0 41 15 71t39 49.5t54 28.5t60 9q49 0 89.5 -16t68.5 -48v80q0 45 -33 70.5t-85 25.5q-81 0 -145 -64l-39 62q80 79 198 79q39 0 74.5 -9t62 -29.5t42 -52.5t15.5 -78v-326h-90zM246 51
q38 0 71 14t53 41v82q-20 27 -53 41t-71 14q-49 0 -80 -26.5t-31 -69.5t31 -69.5t80 -26.5zM84 569v55h363v-55h-363z" />
    <glyph glyph-name="aogonek" unicode="&#x105;" horiz-adv-x="532" 
d="M460 -169q-28 -17 -74 -17q-20 0 -38.5 4.5t-32.5 14t-22.5 24t-8.5 33.5q0 18 9 35t24.5 31t35 25t40.5 19h-23v53q-29 -32 -69 -48.5t-89 -16.5q-30 0 -60 10t-54 30t-39 50t-15 70q0 41 15 71t39 49.5t54 28.5t60 9q49 0 89.5 -16t68.5 -48v80q0 45 -33 70.5t-85 25.5
q-81 0 -145 -64l-39 62q80 79 198 79q39 0 74.5 -9t62 -29.5t42 -52.5t15.5 -78v-326q-45 -18 -68.5 -40t-23.5 -49q0 -17 11 -26t27 -9q8 0 16 1.5t16 6.5zM246 51q38 0 71 14t53 41v82q-20 27 -53 41t-71 14q-49 0 -80 -26.5t-31 -69.5t31 -69.5t80 -26.5z" />
    <glyph glyph-name="aring" unicode="&#xe5;" horiz-adv-x="532" 
d="M44 0zM370 0v53q-29 -32 -69 -48.5t-89 -16.5q-30 0 -60 10t-54 30t-39 50t-15 70q0 41 15 71t39 49.5t54 28.5t60 9q49 0 89.5 -16t68.5 -48v80q0 45 -33 70.5t-85 25.5q-81 0 -145 -64l-39 62q80 79 198 79q39 0 74.5 -9t62 -29.5t42 -52.5t15.5 -78v-326h-90zM246 51
q38 0 71 14t53 41v82q-20 27 -53 41t-71 14q-49 0 -80 -26.5t-31 -69.5t31 -69.5t80 -26.5zM266 539q-21 0 -39 8t-31.5 22t-21.5 32t-8 39t8 39t21.5 32t31.5 22t39 8t39 -8t31.5 -22t21 -32t7.5 -39t-7.5 -39t-21 -32t-31.5 -22t-39 -8zM266 584q23 0 39 16.5t16 39.5
t-16 39t-39 16t-39 -16t-16 -39t16 -39.5t39 -16.5z" />
    <glyph glyph-name="atilde" unicode="&#xe3;" horiz-adv-x="532" 
d="M44 0zM370 0v53q-29 -32 -69 -48.5t-89 -16.5q-30 0 -60 10t-54 30t-39 50t-15 70q0 41 15 71t39 49.5t54 28.5t60 9q49 0 89.5 -16t68.5 -48v80q0 45 -33 70.5t-85 25.5q-81 0 -145 -64l-39 62q80 79 198 79q39 0 74.5 -9t62 -29.5t42 -52.5t15.5 -78v-326h-90zM246 51
q38 0 71 14t53 41v82q-20 27 -53 41t-71 14q-49 0 -80 -26.5t-31 -69.5t31 -69.5t80 -26.5zM325 554q-30 0 -46.5 16t-29.5 33q-10 14 -20 25t-25 11q-19 0 -32 -18.5t-13 -60.5h-51q0 60 25.5 97t74.5 37q29 0 45.5 -16t29.5 -33q11 -14 21 -25t25 -11q19 0 31.5 18.5
t12.5 60.5h52q0 -60 -25.5 -97t-74.5 -37z" />
    <glyph glyph-name="uni1EA1" unicode="&#x1ea1;" horiz-adv-x="532" 
d="M44 0zM370 0v53q-29 -32 -69 -48.5t-89 -16.5q-30 0 -60 10t-54 30t-39 50t-15 70q0 41 15 71t39 49.5t54 28.5t60 9q49 0 89.5 -16t68.5 -48v80q0 45 -33 70.5t-85 25.5q-81 0 -145 -64l-39 62q80 79 198 79q39 0 74.5 -9t62 -29.5t42 -52.5t15.5 -78v-326h-90zM246 51
q38 0 71 14t53 41v82q-20 27 -53 41t-71 14q-49 0 -80 -26.5t-31 -69.5t31 -69.5t80 -26.5zM266 -186q-22 0 -37.5 15t-15.5 38q0 21 15.5 37t37.5 16t37 -16t15 -37q0 -23 -15 -38t-37 -15z" />
    <glyph glyph-name="uni1EA3" unicode="&#x1ea3;" horiz-adv-x="532" 
d="M44 0zM370 0v53q-29 -32 -69 -48.5t-89 -16.5q-30 0 -60 10t-54 30t-39 50t-15 70q0 41 15 71t39 49.5t54 28.5t60 9q49 0 89.5 -16t68.5 -48v80q0 45 -33 70.5t-85 25.5q-81 0 -145 -64l-39 62q80 79 198 79q39 0 74.5 -9t62 -29.5t42 -52.5t15.5 -78v-326h-90zM246 51
q38 0 71 14t53 41v82q-20 27 -53 41t-71 14q-49 0 -80 -26.5t-31 -69.5t31 -69.5t80 -26.5zM191 596q8 24 27 39.5t48 15.5t51.5 -16.5t22.5 -53.5q0 -16 -4.5 -28t-13.5 -25h-44q12 13 17 25.5t5 25.5q0 19 -9.5 28t-24.5 9q-28 0 -39 -31z" />
    <glyph glyph-name="uni1EA5" unicode="&#x1ea5;" horiz-adv-x="532" 
d="M44 0zM370 0v53q-29 -32 -69 -48.5t-89 -16.5q-30 0 -60 10t-54 30t-39 50t-15 70q0 41 15 71t39 49.5t54 28.5t60 9q49 0 89.5 -16t68.5 -48v80q0 45 -33 70.5t-85 25.5q-81 0 -145 -64l-39 62q80 79 198 79q39 0 74.5 -9t62 -29.5t42 -52.5t15.5 -78v-326h-90zM246 51
q38 0 71 14t53 41v82q-20 27 -53 41t-71 14q-49 0 -80 -26.5t-31 -69.5t31 -69.5t80 -26.5zM345 556l-80 101l-78 -101h-58l94 144h84l97 -144h-59zM433 626h-66l144 144h89z" />
    <glyph glyph-name="uni1EAD" unicode="&#x1ead;" horiz-adv-x="532" 
d="M44 0zM370 0v53q-29 -32 -69 -48.5t-89 -16.5q-30 0 -60 10t-54 30t-39 50t-15 70q0 41 15 71t39 49.5t54 28.5t60 9q49 0 89.5 -16t68.5 -48v80q0 45 -33 70.5t-85 25.5q-81 0 -145 -64l-39 62q80 79 198 79q39 0 74.5 -9t62 -29.5t42 -52.5t15.5 -78v-326h-90zM246 51
q38 0 71 14t53 41v82q-20 27 -53 41t-71 14q-49 0 -80 -26.5t-31 -69.5t31 -69.5t80 -26.5zM344 556l-80 101l-78 -101h-58l94 144h84l97 -144h-59zM266 -186q-22 0 -37.5 15t-15.5 38q0 21 15.5 37t37.5 16t37 -16t15 -37q0 -23 -15 -38t-37 -15z" />
    <glyph glyph-name="uni1EA7" unicode="&#x1ea7;" horiz-adv-x="532" 
d="M0 0zM370 0v53q-29 -32 -69 -48.5t-89 -16.5q-30 0 -60 10t-54 30t-39 50t-15 70q0 41 15 71t39 49.5t54 28.5t60 9q49 0 89.5 -16t68.5 -48v80q0 45 -33 70.5t-85 25.5q-81 0 -145 -64l-39 62q80 79 198 79q39 0 74.5 -9t62 -29.5t42 -52.5t15.5 -78v-326h-90zM246 51
q38 0 71 14t53 41v82q-20 27 -53 41t-71 14q-49 0 -80 -26.5t-31 -69.5t31 -69.5t80 -26.5zM345 556l-80 101l-78 -101h-58l94 144h84l97 -144h-59zM100 626l-167 144h89l144 -144h-66z" />
    <glyph glyph-name="uni1EA9" unicode="&#x1ea9;" horiz-adv-x="532" 
d="M44 0zM370 0v53q-29 -32 -69 -48.5t-89 -16.5q-30 0 -60 10t-54 30t-39 50t-15 70q0 41 15 71t39 49.5t54 28.5t60 9q49 0 89.5 -16t68.5 -48v80q0 45 -33 70.5t-85 25.5q-81 0 -145 -64l-39 62q80 79 198 79q39 0 74.5 -9t62 -29.5t42 -52.5t15.5 -78v-326h-90zM246 51
q38 0 71 14t53 41v82q-20 27 -53 41t-71 14q-49 0 -80 -26.5t-31 -69.5t31 -69.5t80 -26.5zM345 556l-80 101l-78 -101h-58l94 144h84l97 -144h-59zM285 735q8 24 27 39.5t48 15.5t51.5 -16.5t22.5 -53.5q0 -16 -4.5 -28t-13.5 -25h-44q12 13 17 25.5t5 25.5q0 19 -9.5 28
t-24.5 9q-28 0 -39 -31z" />
    <glyph glyph-name="uni1EAF" unicode="&#x1eaf;" horiz-adv-x="532" 
d="M44 0zM370 0v53q-29 -32 -69 -48.5t-89 -16.5q-30 0 -60 10t-54 30t-39 50t-15 70q0 41 15 71t39 49.5t54 28.5t60 9q49 0 89.5 -16t68.5 -48v80q0 45 -33 70.5t-85 25.5q-81 0 -145 -64l-39 62q80 79 198 79q39 0 74.5 -9t62 -29.5t42 -52.5t15.5 -78v-326h-90zM246 51
q38 0 71 14t53 41v82q-20 27 -53 41t-71 14q-49 0 -80 -26.5t-31 -69.5t31 -69.5t80 -26.5zM275 626h-66l144 144h89zM442 609q-30 -41 -75.5 -64.5t-99.5 -23.5t-99.5 23.5t-76.5 64.5l43 36q23 -32 56.5 -50.5t76.5 -18.5q42 0 76 18.5t57 50.5l42 -36v0z" />
    <glyph glyph-name="uni1EAB" unicode="&#x1eab;" horiz-adv-x="532" 
d="M44 0zM370 0v53q-29 -32 -69 -48.5t-89 -16.5q-30 0 -60 10t-54 30t-39 50t-15 70q0 41 15 71t39 49.5t54 28.5t60 9q49 0 89.5 -16t68.5 -48v80q0 45 -33 70.5t-85 25.5q-81 0 -145 -64l-39 62q80 79 198 79q39 0 74.5 -9t62 -29.5t42 -52.5t15.5 -78v-326h-90zM246 51
q38 0 71 14t53 41v82q-20 27 -53 41t-71 14q-49 0 -80 -26.5t-31 -69.5t31 -69.5t80 -26.5zM345 524l-80 101l-78 -101h-58l94 144h84l97 -144h-59zM324 682q-30 0 -46.5 16t-29.5 33q-10 14 -20 25t-25 11q-19 0 -32 -18.5t-13 -60.5h-51q0 60 25.5 97t74.5 37
q29 0 45.5 -16t29.5 -33q11 -14 21 -25t25 -11q19 0 31.5 18.5t12.5 60.5h52q0 -60 -25.5 -97t-74.5 -37z" />
    <glyph glyph-name="uni1EB1" unicode="&#x1eb1;" horiz-adv-x="532" 
d="M44 0zM370 0v53q-29 -32 -69 -48.5t-89 -16.5q-30 0 -60 10t-54 30t-39 50t-15 70q0 41 15 71t39 49.5t54 28.5t60 9q49 0 89.5 -16t68.5 -48v80q0 45 -33 70.5t-85 25.5q-81 0 -145 -64l-39 62q80 79 198 79q39 0 74.5 -9t62 -29.5t42 -52.5t15.5 -78v-326h-90zM246 51
q38 0 71 14t53 41v82q-20 27 -53 41t-71 14q-49 0 -80 -26.5t-31 -69.5t31 -69.5t80 -26.5zM255 626l-167 144h89l144 -144h-66zM442 612q-30 -41 -75.5 -64.5t-99.5 -23.5t-99.5 23.5t-76.5 64.5l43 36q23 -32 56.5 -50.5t76.5 -18.5q42 0 76 18.5t57 50.5l42 -36v0z" />
    <glyph glyph-name="uni1EB3" unicode="&#x1eb3;" horiz-adv-x="532" 
d="M44 0zM370 0v53q-29 -32 -69 -48.5t-89 -16.5q-30 0 -60 10t-54 30t-39 50t-15 70q0 41 15 71t39 49.5t54 28.5t60 9q49 0 89.5 -16t68.5 -48v80q0 45 -33 70.5t-85 25.5q-81 0 -145 -64l-39 62q80 79 198 79q39 0 74.5 -9t62 -29.5t42 -52.5t15.5 -78v-326h-90zM246 51
q38 0 71 14t53 41v82q-20 27 -53 41t-71 14q-49 0 -80 -26.5t-31 -69.5t31 -69.5t80 -26.5zM191 696q8 24 27 39.5t48 15.5t51.5 -16.5t22.5 -53.5q0 -16 -4.5 -28t-13.5 -25h-44q12 13 17 25.5t5 25.5q0 19 -9.5 28t-24.5 9q-28 0 -39 -31zM442 612q-30 -41 -75.5 -64.5
t-99.5 -23.5t-99.5 23.5t-76.5 64.5l43 36q23 -32 56.5 -50.5t76.5 -18.5q42 0 76 18.5t57 50.5l42 -36v0z" />
    <glyph glyph-name="uni1EB5" unicode="&#x1eb5;" horiz-adv-x="532" 
d="M44 0zM370 0v53q-29 -32 -69 -48.5t-89 -16.5q-30 0 -60 10t-54 30t-39 50t-15 70q0 41 15 71t39 49.5t54 28.5t60 9q49 0 89.5 -16t68.5 -48v80q0 45 -33 70.5t-85 25.5q-81 0 -145 -64l-39 62q80 79 198 79q39 0 74.5 -9t62 -29.5t42 -52.5t15.5 -78v-326h-90zM246 51
q38 0 71 14t53 41v82q-20 27 -53 41t-71 14q-49 0 -80 -26.5t-31 -69.5t31 -69.5t80 -26.5zM442 612q-30 -41 -75.5 -64.5t-99.5 -23.5t-99.5 23.5t-76.5 64.5l43 36q23 -32 56.5 -50.5t76.5 -18.5q42 0 76 18.5t57 50.5l42 -36v0zM324 658q-30 0 -46.5 16t-29.5 33
q-10 14 -20 25t-25 11q-19 0 -32 -18.5t-13 -60.5h-51q0 60 25.5 97t74.5 37q29 0 45.5 -16t29.5 -33q11 -14 21 -25t25 -11q19 0 31.5 18.5t12.5 60.5h52q0 -60 -25.5 -97t-74.5 -37z" />
    <glyph glyph-name="uni1EB7" unicode="&#x1eb7;" horiz-adv-x="532" 
d="M44 0zM370 0v53q-29 -32 -69 -48.5t-89 -16.5q-30 0 -60 10t-54 30t-39 50t-15 70q0 41 15 71t39 49.5t54 28.5t60 9q49 0 89.5 -16t68.5 -48v80q0 45 -33 70.5t-85 25.5q-81 0 -145 -64l-39 62q80 79 198 79q39 0 74.5 -9t62 -29.5t42 -52.5t15.5 -78v-326h-90zM246 51
q38 0 71 14t53 41v82q-20 27 -53 41t-71 14q-49 0 -80 -26.5t-31 -69.5t31 -69.5t80 -26.5zM266 -186q-22 0 -37.5 15t-15.5 38q0 21 15.5 37t37.5 16t37 -16t15 -37q0 -23 -15 -38t-37 -15zM439 624q-30 -41 -75.5 -64.5t-99.5 -23.5t-99.5 23.5t-76.5 64.5l43 36
q23 -32 56.5 -50.5t76.5 -18.5q42 0 76 18.5t57 50.5l42 -36v0z" />
    <glyph glyph-name="ae" unicode="&#xe6;" horiz-adv-x="883" 
d="M484 212q3 -31 14 -58t30.5 -47t46 -31.5t60.5 -11.5q36 0 72 14.5t61 42.5l42 -61q-36 -35 -83.5 -53.5t-95.5 -18.5q-63 0 -112 25t-80 82q-27 -48 -80.5 -77.5t-119.5 -29.5q-39 0 -74 10t-62 30t-43 50t-16 70q0 39 14.5 68.5t38.5 49.5t56 30t68 10q52 0 96.5 -15
t76.5 -47v78q0 45 -35.5 70.5t-92.5 25.5q-46 0 -85 -15.5t-74 -48.5l-39 62q82 79 206 79q63 0 110 -24t63 -75q13 20 29.5 38t38 31.5t49 21.5t61.5 8q51 0 91.5 -20t68.5 -55t43 -83t15 -103v-22h-359zM755 277q-1 24 -9 49.5t-24.5 46.5t-41.5 34.5t-61 13.5
q-33 0 -58 -13t-42 -34t-26 -46.5t-10 -50.5h272zM394 187q-23 27 -59.5 41.5t-77.5 14.5q-54 0 -88 -23.5t-34 -66.5t34 -66t88 -23q29 0 54 10t43.5 26.5t29 36.5t10.5 41v9z" />
    <glyph glyph-name="aeacute" unicode="&#x1fd;" horiz-adv-x="883" 
d="M44 0zM425 556h-66l144 144h89zM484 212q3 -31 14 -58t30.5 -47t46 -31.5t60.5 -11.5q36 0 72 14.5t61 42.5l42 -61q-36 -35 -83.5 -53.5t-95.5 -18.5q-63 0 -112 25t-80 82q-27 -48 -80.5 -77.5t-119.5 -29.5q-39 0 -74 10t-62 30t-43 50t-16 70q0 39 14.5 68.5
t38.5 49.5t56 30t68 10q52 0 96.5 -15t76.5 -47v78q0 45 -35.5 70.5t-92.5 25.5q-46 0 -85 -15.5t-74 -48.5l-39 62q82 79 206 79q63 0 110 -24t63 -75q13 20 29.5 38t38 31.5t49 21.5t61.5 8q51 0 91.5 -20t68.5 -55t43 -83t15 -103v-22h-359zM755 277q-1 24 -9 49.5
t-24.5 46.5t-41.5 34.5t-61 13.5q-33 0 -58 -13t-42 -34t-26 -46.5t-10 -50.5h272zM394 187q-23 27 -59.5 41.5t-77.5 14.5q-54 0 -88 -23.5t-34 -66.5t34 -66t88 -23q29 0 54 10t43.5 26.5t29 36.5t10.5 41v9z" />
    <glyph glyph-name="aacute.alt1" horiz-adv-x="578" 
d="M42 0zM289 556h-66l144 144h89zM416 0v69q-27 -36 -68.5 -58.5t-89.5 -22.5q-47 0 -87 17.5t-68.5 50t-44.5 79.5t-16 106q0 58 16 105t44.5 80t68.5 51t87 18t88 -21.5t70 -60.5v70h90v-483h-90zM282 68q42 0 78.5 20.5t55.5 49.5v205q-19 29 -55.5 50t-78.5 21
q-34 0 -61 -13t-46 -36t-29 -54.5t-10 -69.5t10 -69.5t29 -54.5t46 -36t61 -13z" />
    <glyph glyph-name="abreve.alt1" horiz-adv-x="578" 
d="M42 0zM416 0v69q-27 -36 -68.5 -58.5t-89.5 -22.5q-47 0 -87 17.5t-68.5 50t-44.5 79.5t-16 106q0 58 16 105t44.5 80t68.5 51t87 18t88 -21.5t70 -60.5v70h90v-483h-90zM282 68q42 0 78.5 20.5t55.5 49.5v205q-19 29 -55.5 50t-78.5 21q-34 0 -61 -13t-46 -36t-29 -54.5
t-10 -69.5t10 -69.5t29 -54.5t46 -36t61 -13zM471 624q-30 -41 -75.5 -64.5t-99.5 -23.5t-99.5 23.5t-76.5 64.5l43 36q23 -32 56.5 -50.5t76.5 -18.5q42 0 76 18.5t57 50.5l42 -36v0z" />
    <glyph glyph-name="acircumflex.alt1" horiz-adv-x="578" 
d="M42 0zM375 556l-80 101l-78 -101h-58l94 144h84l97 -144h-59zM416 0v69q-27 -36 -68.5 -58.5t-89.5 -22.5q-47 0 -87 17.5t-68.5 50t-44.5 79.5t-16 106q0 58 16 105t44.5 80t68.5 51t87 18t88 -21.5t70 -60.5v70h90v-483h-90zM282 68q42 0 78.5 20.5t55.5 49.5v205
q-19 29 -55.5 50t-78.5 21q-34 0 -61 -13t-46 -36t-29 -54.5t-10 -69.5t10 -69.5t29 -54.5t46 -36t61 -13z" />
    <glyph glyph-name="adieresis.alt1" horiz-adv-x="578" 
d="M42 0zM453 606q0 -22 -15.5 -37.5t-37.5 -15.5t-37.5 15.5t-15.5 37.5t15.5 37t37.5 15t37.5 -15t15.5 -37zM244 606q0 -22 -15 -37.5t-37 -15.5t-37 15.5t-15 37.5t15 37t37 15t37 -15t15 -37zM416 0v69q-27 -36 -68.5 -58.5t-89.5 -22.5q-47 0 -87 17.5t-68.5 50
t-44.5 79.5t-16 106q0 58 16 105t44.5 80t68.5 51t87 18t88 -21.5t70 -60.5v70h90v-483h-90zM282 68q42 0 78.5 20.5t55.5 49.5v205q-19 29 -55.5 50t-78.5 21q-34 0 -61 -13t-46 -36t-29 -54.5t-10 -69.5t10 -69.5t29 -54.5t46 -36t61 -13z" />
    <glyph glyph-name="agrave.alt1" horiz-adv-x="578" 
d="M42 0zM416 0v69q-27 -36 -68.5 -58.5t-89.5 -22.5q-47 0 -87 17.5t-68.5 50t-44.5 79.5t-16 106q0 58 16 105t44.5 80t68.5 51t87 18t88 -21.5t70 -60.5v70h90v-483h-90zM282 68q42 0 78.5 20.5t55.5 49.5v205q-19 29 -55.5 50t-78.5 21q-34 0 -61 -13t-46 -36t-29 -54.5
t-10 -69.5t10 -69.5t29 -54.5t46 -36t61 -13zM275 556l-167 144h89l144 -144h-66z" />
    <glyph glyph-name="amacron.alt1" horiz-adv-x="578" 
d="M42 0zM115 569v55h363v-55h-363zM416 0v69q-27 -36 -68.5 -58.5t-89.5 -22.5q-47 0 -87 17.5t-68.5 50t-44.5 79.5t-16 106q0 58 16 105t44.5 80t68.5 51t87 18t88 -21.5t70 -60.5v70h90v-483h-90zM282 68q42 0 78.5 20.5t55.5 49.5v205q-19 29 -55.5 50t-78.5 21
q-34 0 -61 -13t-46 -36t-29 -54.5t-10 -69.5t10 -69.5t29 -54.5t46 -36t61 -13z" />
    <glyph glyph-name="aogonek.alt1" horiz-adv-x="578" 
d="M507 0q-45 -18 -68.5 -40t-23.5 -49q0 -17 11 -26t27 -9q8 0 16 1.5t16 6.5l22 -53q-28 -17 -74 -17q-20 0 -38.5 4.5t-32.5 14t-22.5 24t-8.5 33.5q0 18 9 35t24.5 31t35 25t40.5 19h-24v69q-27 -36 -68.5 -58.5t-89.5 -22.5q-47 0 -87 17.5t-68.5 50t-44.5 79.5
t-16 106q0 58 16 105t44.5 80t68.5 51t87 18t88 -21.5t70 -60.5v70h90v-483h1zM282 68q42 0 78.5 20.5t55.5 49.5v205q-19 29 -55.5 50t-78.5 21q-34 0 -61 -13t-46 -36t-29 -54.5t-10 -69.5t10 -69.5t29 -54.5t46 -36t61 -13z" />
    <glyph glyph-name="aring.alt1" horiz-adv-x="578" 
d="M42 0zM296 539q-21 0 -39 8t-31.5 22t-21.5 32t-8 39t8 39t21.5 32t31.5 22t39 8t39 -8t31.5 -22t21 -32t7.5 -39t-7.5 -39t-21 -32t-31.5 -22t-39 -8zM296 584q23 0 39 16.5t16 39.5t-16 39t-39 16t-39 -16t-16 -39t16 -39.5t39 -16.5zM416 0v69q-27 -36 -68.5 -58.5
t-89.5 -22.5q-47 0 -87 17.5t-68.5 50t-44.5 79.5t-16 106q0 58 16 105t44.5 80t68.5 51t87 18t88 -21.5t70 -60.5v70h90v-483h-90zM282 68q42 0 78.5 20.5t55.5 49.5v205q-19 29 -55.5 50t-78.5 21q-34 0 -61 -13t-46 -36t-29 -54.5t-10 -69.5t10 -69.5t29 -54.5t46 -36
t61 -13z" />
    <glyph glyph-name="atilde.alt1" horiz-adv-x="578" 
d="M42 0zM416 0v69q-27 -36 -68.5 -58.5t-89.5 -22.5q-47 0 -87 17.5t-68.5 50t-44.5 79.5t-16 106q0 58 16 105t44.5 80t68.5 51t87 18t88 -21.5t70 -60.5v70h90v-483h-90zM282 68q42 0 78.5 20.5t55.5 49.5v205q-19 29 -55.5 50t-78.5 21q-34 0 -61 -13t-46 -36t-29 -54.5
t-10 -69.5t10 -69.5t29 -54.5t46 -36t61 -13zM354 554q-30 0 -46.5 16t-29.5 33q-10 14 -20 25t-25 11q-19 0 -32 -18.5t-13 -60.5h-51q0 60 25.5 97t74.5 37q29 0 45.5 -16t29.5 -33q11 -14 21 -25t25 -11q19 0 31.5 18.5t12.5 60.5h52q0 -60 -25.5 -97t-74.5 -37z" />
    <glyph glyph-name="uni1EA1.alt1" horiz-adv-x="578" 
d="M42 0zM416 0v69q-27 -36 -68.5 -58.5t-89.5 -22.5q-47 0 -87 17.5t-68.5 50t-44.5 79.5t-16 106q0 58 16 105t44.5 80t68.5 51t87 18t88 -21.5t70 -60.5v70h90v-483h-90zM282 68q42 0 78.5 20.5t55.5 49.5v205q-19 29 -55.5 50t-78.5 21q-34 0 -61 -13t-46 -36t-29 -54.5
t-10 -69.5t10 -69.5t29 -54.5t46 -36t61 -13zM296 -186q-22 0 -37.5 15t-15.5 38q0 21 15.5 37t37.5 16t37 -16t15 -37q0 -23 -15 -38t-37 -15z" />
    <glyph glyph-name="uni1EA3.alt1" horiz-adv-x="578" 
d="M42 0zM416 0v69q-27 -36 -68.5 -58.5t-89.5 -22.5q-47 0 -87 17.5t-68.5 50t-44.5 79.5t-16 106q0 58 16 105t44.5 80t68.5 51t87 18t88 -21.5t70 -60.5v70h90v-483h-90zM282 68q42 0 78.5 20.5t55.5 49.5v205q-19 29 -55.5 50t-78.5 21q-34 0 -61 -13t-46 -36t-29 -54.5
t-10 -69.5t10 -69.5t29 -54.5t46 -36t61 -13zM222 596q8 24 27 39.5t48 15.5t51.5 -16.5t22.5 -53.5q0 -16 -4.5 -28t-13.5 -25h-44q12 13 17 25.5t5 25.5q0 19 -9.5 28t-24.5 9q-28 0 -39 -31z" />
    <glyph glyph-name="uni1EA5.alt1" horiz-adv-x="578" 
d="M42 0zM375 556l-80 101l-78 -101h-58l94 144h84l97 -144h-59zM460 626h-66l144 144h89zM416 0v69q-27 -36 -68.5 -58.5t-89.5 -22.5q-47 0 -87 17.5t-68.5 50t-44.5 79.5t-16 106q0 58 16 105t44.5 80t68.5 51t87 18t88 -21.5t70 -60.5v70h90v-483h-90zM282 68
q42 0 78.5 20.5t55.5 49.5v205q-19 29 -55.5 50t-78.5 21q-34 0 -61 -13t-46 -36t-29 -54.5t-10 -69.5t10 -69.5t29 -54.5t46 -36t61 -13z" />
    <glyph glyph-name="uni1EAD.alt1" horiz-adv-x="578" 
d="M42 0zM376 556l-80 101l-78 -101h-58l94 144h84l97 -144h-59zM416 0v69q-27 -36 -68.5 -58.5t-89.5 -22.5q-47 0 -87 17.5t-68.5 50t-44.5 79.5t-16 106q0 58 16 105t44.5 80t68.5 51t87 18t88 -21.5t70 -60.5v70h90v-483h-90zM282 68q42 0 78.5 20.5t55.5 49.5v205
q-19 29 -55.5 50t-78.5 21q-34 0 -61 -13t-46 -36t-29 -54.5t-10 -69.5t10 -69.5t29 -54.5t46 -36t61 -13zM297 -186q-22 0 -37.5 15t-15.5 38q0 21 15.5 37t37.5 16t37 -16t15 -37q0 -23 -15 -38t-37 -15z" />
    <glyph glyph-name="uni1EA7.alt1" horiz-adv-x="578" 
d="M0 0zM375 556l-80 101l-78 -101h-58l94 144h84l97 -144h-59zM416 0v69q-27 -36 -68.5 -58.5t-89.5 -22.5q-47 0 -87 17.5t-68.5 50t-44.5 79.5t-16 106q0 58 16 105t44.5 80t68.5 51t87 18t88 -21.5t70 -60.5v70h90v-483h-90zM282 68q42 0 78.5 20.5t55.5 49.5v205
q-19 29 -55.5 50t-78.5 21q-34 0 -61 -13t-46 -36t-29 -54.5t-10 -69.5t10 -69.5t29 -54.5t46 -36t61 -13zM130 626l-167 144h89l144 -144h-66z" />
    <glyph glyph-name="uni1EA9.alt1" horiz-adv-x="578" 
d="M42 0zM375 556l-80 101l-78 -101h-58l94 144h84l97 -144h-59zM416 0v69q-27 -36 -68.5 -58.5t-89.5 -22.5q-47 0 -87 17.5t-68.5 50t-44.5 79.5t-16 106q0 58 16 105t44.5 80t68.5 51t87 18t88 -21.5t70 -60.5v70h90v-483h-90zM282 68q42 0 78.5 20.5t55.5 49.5v205
q-19 29 -55.5 50t-78.5 21q-34 0 -61 -13t-46 -36t-29 -54.5t-10 -69.5t10 -69.5t29 -54.5t46 -36t61 -13zM315 735q8 24 27 39.5t48 15.5t51.5 -16.5t22.5 -53.5q0 -16 -4.5 -28t-13.5 -25h-44q12 13 17 25.5t5 25.5q0 19 -9.5 28t-24.5 9q-28 0 -39 -31z" />
    <glyph glyph-name="uni1EAF.alt1" horiz-adv-x="578" 
d="M42 0zM302 626h-66l144 144h89zM416 0v69q-27 -36 -68.5 -58.5t-89.5 -22.5q-47 0 -87 17.5t-68.5 50t-44.5 79.5t-16 106q0 58 16 105t44.5 80t68.5 51t87 18t88 -21.5t70 -60.5v70h90v-483h-90zM282 68q42 0 78.5 20.5t55.5 49.5v205q-19 29 -55.5 50t-78.5 21
q-34 0 -61 -13t-46 -36t-29 -54.5t-10 -69.5t10 -69.5t29 -54.5t46 -36t61 -13zM470 609q-30 -41 -75.5 -64.5t-99.5 -23.5t-99.5 23.5t-76.5 64.5l43 36q23 -32 56.5 -50.5t76.5 -18.5q42 0 76 18.5t57 50.5l42 -36v0z" />
    <glyph glyph-name="uni1EAB.alt1" horiz-adv-x="578" 
d="M42 0zM375 524l-80 101l-78 -101h-58l94 144h84l97 -144h-59zM416 0v69q-27 -36 -68.5 -58.5t-89.5 -22.5q-47 0 -87 17.5t-68.5 50t-44.5 79.5t-16 106q0 58 16 105t44.5 80t68.5 51t87 18t88 -21.5t70 -60.5v70h90v-483h-90zM282 68q42 0 78.5 20.5t55.5 49.5v205
q-19 29 -55.5 50t-78.5 21q-34 0 -61 -13t-46 -36t-29 -54.5t-10 -69.5t10 -69.5t29 -54.5t46 -36t61 -13zM351 682q-30 0 -46.5 16t-29.5 33q-10 14 -20 25t-25 11q-19 0 -32 -18.5t-13 -60.5h-51q0 60 25.5 97t74.5 37q29 0 45.5 -16t29.5 -33q11 -14 21 -25t25 -11
q19 0 31.5 18.5t12.5 60.5h52q0 -60 -25.5 -97t-74.5 -37z" />
    <glyph glyph-name="uni1EB1.alt1" horiz-adv-x="578" 
d="M42 0zM416 0v69q-27 -36 -68.5 -58.5t-89.5 -22.5q-47 0 -87 17.5t-68.5 50t-44.5 79.5t-16 106q0 58 16 105t44.5 80t68.5 51t87 18t88 -21.5t70 -60.5v70h90v-483h-90zM282 68q42 0 78.5 20.5t55.5 49.5v205q-19 29 -55.5 50t-78.5 21q-34 0 -61 -13t-46 -36t-29 -54.5
t-10 -69.5t10 -69.5t29 -54.5t46 -36t61 -13zM282 626l-167 144h89l144 -144h-66zM470 612q-30 -41 -75.5 -64.5t-99.5 -23.5t-99.5 23.5t-76.5 64.5l43 36q23 -32 56.5 -50.5t76.5 -18.5q42 0 76 18.5t57 50.5l42 -36v0z" />
    <glyph glyph-name="uni1EB3.alt1" horiz-adv-x="578" 
d="M42 0zM416 0v69q-27 -36 -68.5 -58.5t-89.5 -22.5q-47 0 -87 17.5t-68.5 50t-44.5 79.5t-16 106q0 58 16 105t44.5 80t68.5 51t87 18t88 -21.5t70 -60.5v70h90v-483h-90zM282 68q42 0 78.5 20.5t55.5 49.5v205q-19 29 -55.5 50t-78.5 21q-34 0 -61 -13t-46 -36t-29 -54.5
t-10 -69.5t10 -69.5t29 -54.5t46 -36t61 -13zM220 696q8 24 27 39.5t48 15.5t51.5 -16.5t22.5 -53.5q0 -16 -4.5 -28t-13.5 -25h-44q12 13 17 25.5t5 25.5q0 19 -9.5 28t-24.5 9q-28 0 -39 -31zM470 612q-30 -41 -75.5 -64.5t-99.5 -23.5t-99.5 23.5t-76.5 64.5l43 36
q23 -32 56.5 -50.5t76.5 -18.5q42 0 76 18.5t57 50.5l42 -36v0z" />
    <glyph glyph-name="uni1EB5.alt1" horiz-adv-x="578" 
d="M42 0zM470 612q-30 -41 -75.5 -64.5t-99.5 -23.5t-99.5 23.5t-76.5 64.5l43 36q23 -32 56.5 -50.5t76.5 -18.5q42 0 76 18.5t57 50.5l42 -36v0zM416 0v69q-27 -36 -68.5 -58.5t-89.5 -22.5q-47 0 -87 17.5t-68.5 50t-44.5 79.5t-16 106q0 58 16 105t44.5 80t68.5 51
t87 18t88 -21.5t70 -60.5v70h90v-483h-90zM282 68q42 0 78.5 20.5t55.5 49.5v205q-19 29 -55.5 50t-78.5 21q-34 0 -61 -13t-46 -36t-29 -54.5t-10 -69.5t10 -69.5t29 -54.5t46 -36t61 -13zM353 659q-30 0 -46.5 16t-29.5 33q-10 14 -20 25t-25 11q-19 0 -32 -18.5
t-13 -60.5h-51q0 60 25.5 97t74.5 37q29 0 45.5 -16t29.5 -33q11 -14 21 -25t25 -11q19 0 31.5 18.5t12.5 60.5h52q0 -60 -25.5 -97t-74.5 -37z" />
    <glyph glyph-name="uni1EB7.alt1" horiz-adv-x="578" 
d="M42 0zM416 0v69q-27 -36 -68.5 -58.5t-89.5 -22.5q-47 0 -87 17.5t-68.5 50t-44.5 79.5t-16 106q0 58 16 105t44.5 80t68.5 51t87 18t88 -21.5t70 -60.5v70h90v-483h-90zM282 68q42 0 78.5 20.5t55.5 49.5v205q-19 29 -55.5 50t-78.5 21q-34 0 -61 -13t-46 -36t-29 -54.5
t-10 -69.5t10 -69.5t29 -54.5t46 -36t61 -13zM297 -186q-22 0 -37.5 15t-15.5 38q0 21 15.5 37t37.5 16t37 -16t15 -37q0 -23 -15 -38t-37 -15zM470 624q-30 -41 -75.5 -64.5t-99.5 -23.5t-99.5 23.5t-76.5 64.5l43 36q23 -32 56.5 -50.5t76.5 -18.5q42 0 76 18.5t57 50.5
l42 -36v0z" />
    <glyph glyph-name="ae.alt1" horiz-adv-x="929" 
d="M282 68q42 0 78.5 20.5t55.5 49.5v205q-19 29 -55.5 50t-78.5 21q-34 0 -61 -13t-46 -36t-29 -54.5t-10 -69.5t10 -69.5t29 -54.5t46 -36t61 -13zM506 0h-90v69q-27 -36 -68.5 -58.5t-89.5 -22.5q-47 0 -87 17.5t-68.5 50t-44.5 79.5t-16 106q0 58 16 105t44.5 80
t68.5 51t87 18t88 -21.5t70 -60.5v70h90v-91q26 46 68 74.5t102 28.5q49 0 88.5 -20t67 -55t42 -83t14.5 -103v-22h-382q3 -31 15 -58t33 -47t50 -31.5t65 -11.5q39 0 77.5 14.5t66.5 42.5l42 -61q-31 -32 -74 -52t-96 -20q-69 0 -112.5 29.5t-66.5 71.5v-89zM801 277
q-1 24 -10 49.5t-27 46.5t-45.5 34.5t-65.5 13.5q-36 0 -63 -13t-45 -34t-28 -46.5t-11 -50.5h295z" />
    <glyph glyph-name="aeacute.alt1" horiz-adv-x="929" 
d="M42 0zM282 68q42 0 78.5 20.5t55.5 49.5v205q-19 29 -55.5 50t-78.5 21q-34 0 -61 -13t-46 -36t-29 -54.5t-10 -69.5t10 -69.5t29 -54.5t46 -36t61 -13zM506 0h-90v69q-27 -36 -68.5 -58.5t-89.5 -22.5q-47 0 -87 17.5t-68.5 50t-44.5 79.5t-16 106q0 58 16 105t44.5 80
t68.5 51t87 18t88 -21.5t70 -60.5v70h90v-91q26 46 68 74.5t102 28.5q49 0 88.5 -20t67 -55t42 -83t14.5 -103v-22h-382q3 -31 15 -58t33 -47t50 -31.5t65 -11.5q39 0 77.5 14.5t66.5 42.5l42 -61q-31 -32 -74 -52t-96 -20q-69 0 -112.5 29.5t-66.5 71.5v-89zM801 277
q-1 24 -10 49.5t-27 46.5t-45.5 34.5t-65.5 13.5q-36 0 -63 -13t-45 -34t-28 -46.5t-11 -50.5h295zM470 556h-66l144 144h89z" />
    <glyph glyph-name="uni1E03" unicode="&#x1e03;" horiz-adv-x="578" 
d="M72 0zM162 138q18 -29 55.5 -49.5t78.5 -20.5q34 0 61 13t46 36t29 54.5t10 69.5t-10 70t-29 55t-46 36t-61 13q-41 0 -78.5 -21.5t-55.5 -50.5v-205zM72 0v667h90v-254q29 39 69.5 60.5t88.5 21.5q47 0 86.5 -18t68 -51t44.5 -80t16 -105q0 -59 -16 -106t-44.5 -79.5
t-68 -50t-86.5 -17.5q-49 0 -90 22.5t-68 58.5v-69h-90zM296 719q-22 0 -37.5 15t-15.5 38q0 21 15.5 37t37.5 16t37 -16t15 -37q0 -23 -15 -38t-37 -15z" />
    <glyph glyph-name="cacute" unicode="&#x107;" horiz-adv-x="496" 
d="M42 0zM294 556h-66l144 144h89zM288 -12q-55 0 -100 19.5t-77.5 53.5t-50.5 80.5t-18 100.5t18 100.5t50.5 80.5t77.5 53t100 19q69 0 112 -25t69 -60l-60 -55q-42 60 -117 60q-36 0 -64.5 -13t-49 -36t-31.5 -55t-11 -69q0 -38 11 -69.5t31.5 -55t49 -36.5t64.5 -13
q73 0 117 60l60 -55q-26 -35 -69 -60t-112 -25z" />
    <glyph glyph-name="ccedilla" unicode="&#xe7;" horiz-adv-x="496" 
d="M289 -191q-33 0 -60.5 9.5t-42.5 21.5l20 42q19 -15 40 -22t41 -7q23 0 41 9.5t18 29.5q0 32 -36 32q-22 0 -35 -15l-38 21l22 60q-49 5 -89 26t-68.5 54t-44 77t-15.5 95q0 54 18 100.5t50.5 80.5t77.5 53t100 19q69 0 112 -25t69 -60l-60 -55q-42 60 -117 60
q-36 0 -64.5 -13t-49 -36t-31.5 -55t-11 -69q0 -38 11 -69.5t31.5 -55t49 -36.5t64.5 -13q73 0 117 60l60 -55q-25 -33 -63 -56.5t-98 -27.5l-16 -41q16 11 37 11q29 0 47.5 -18.5t18.5 -49.5q0 -38 -30.5 -60t-75.5 -22z" />
    <glyph glyph-name="ccircumflex" unicode="&#x109;" horiz-adv-x="496" 
d="M42 0zM367 556l-80 101l-78 -101h-58l94 144h84l97 -144h-59zM288 -12q-55 0 -100 19.5t-77.5 53.5t-50.5 80.5t-18 100.5t18 100.5t50.5 80.5t77.5 53t100 19q69 0 112 -25t69 -60l-60 -55q-42 60 -117 60q-36 0 -64.5 -13t-49 -36t-31.5 -55t-11 -69q0 -38 11 -69.5
t31.5 -55t49 -36.5t64.5 -13q73 0 117 60l60 -55q-26 -35 -69 -60t-112 -25z" />
    <glyph glyph-name="cdotaccent" unicode="&#x10b;" horiz-adv-x="496" 
d="M42 0zM288 -12q-55 0 -100 19.5t-77.5 53.5t-50.5 80.5t-18 100.5t18 100.5t50.5 80.5t77.5 53t100 19q69 0 112 -25t69 -60l-60 -55q-42 60 -117 60q-36 0 -64.5 -13t-49 -36t-31.5 -55t-11 -69q0 -38 11 -69.5t31.5 -55t49 -36.5t64.5 -13q73 0 117 60l60 -55
q-26 -35 -69 -60t-112 -25zM289 552q-22 0 -37.5 15t-15.5 38q0 21 15.5 37t37.5 16t37 -16t15 -37q0 -23 -15 -38t-37 -15z" />
    <glyph glyph-name="ccaron" unicode="&#x10d;" horiz-adv-x="496" 
d="M42 0zM248 556l-97 144h58l81 -102l77 102h59l-94 -144h-84zM288 -12q-55 0 -100 19.5t-77.5 53.5t-50.5 80.5t-18 100.5t18 100.5t50.5 80.5t77.5 53t100 19q69 0 112 -25t69 -60l-60 -55q-42 60 -117 60q-36 0 -64.5 -13t-49 -36t-31.5 -55t-11 -69q0 -38 11 -69.5
t31.5 -55t49 -36.5t64.5 -13q73 0 117 60l60 -55q-26 -35 -69 -60t-112 -25z" />
    <glyph glyph-name="dcaron" unicode="&#x10f;" horiz-adv-x="657" 
d="M42 0zM662 608q0 -42 -21.5 -78.5t-53.5 -59.5l-36 28q22 14 39.5 38t20.5 46q-2 -1 -6 -1.5t-7 -0.5q-20 0 -32.5 13.5t-12.5 34.5t14.5 36t35.5 15q23 0 41 -18.5t18 -52.5zM416 0v69q-27 -36 -68.5 -58.5t-89.5 -22.5q-47 0 -87 17.5t-68.5 50t-44.5 79.5t-16 106
q0 58 16 105t44.5 80t68.5 51t87 18t88 -21.5t70 -60.5v254h90v-667h-90zM282 68q42 0 78.5 20.5t55.5 49.5v206q-19 29 -55.5 50t-78.5 21q-34 0 -61 -13t-46 -36t-29 -55t-10 -70t10 -69.5t29 -54.5t46 -36t61 -13z" />
    <glyph glyph-name="dcroat" unicode="&#x111;" horiz-adv-x="581" 
d="M416 0v69q-27 -36 -68.5 -58.5t-89.5 -22.5q-47 0 -87 17.5t-68.5 50t-44.5 79.5t-16 106q0 58 16 105t44.5 80t68.5 51t87 18t88 -21.5t70 -60.5v120h-153v55h153v79h90v-79h66v-55h-66v-533h-90zM282 68q42 0 78.5 20.5t55.5 49.5v206q-19 29 -55.5 50t-78.5 21
q-34 0 -61 -13t-46 -36t-29 -55t-10 -70t10 -69.5t29 -54.5t46 -36t61 -13z" />
    <glyph glyph-name="uni1E0B" unicode="&#x1e0b;" horiz-adv-x="578" 
d="M42 0zM416 0v69q-27 -36 -68.5 -58.5t-89.5 -22.5q-47 0 -87 17.5t-68.5 50t-44.5 79.5t-16 106q0 58 16 105t44.5 80t68.5 51t87 18t88 -21.5t70 -60.5v254h90v-667h-90zM282 68q42 0 78.5 20.5t55.5 49.5v206q-19 29 -55.5 50t-78.5 21q-34 0 -61 -13t-46 -36t-29 -55
t-10 -70t10 -69.5t29 -54.5t46 -36t61 -13zM283 719q-22 0 -37.5 15t-15.5 38q0 21 15.5 37t37.5 16t37 -16t15 -37q0 -23 -15 -38t-37 -15z" />
    <glyph glyph-name="eacute" unicode="&#xe9;" horiz-adv-x="560" 
d="M42 0zM292 556h-66l144 144h89zM292 -12q-54 0 -100 18.5t-79 51.5t-52 80t-19 104q0 52 18 98.5t50 80.5t76.5 54t97.5 20q54 0 97.5 -20t74 -55t47 -83t16.5 -103v-22h-382q3 -31 15 -58t33 -47.5t50.5 -32.5t65.5 -12q38 0 77 14.5t66 42.5l42 -59
q-36 -35 -85.5 -53.5t-108.5 -18.5zM431 277q-1 24 -9.5 49.5t-26.5 46.5t-45.5 34.5t-65.5 13.5q-36 0 -63 -13t-45.5 -34t-28 -46.5t-11.5 -50.5h295z" />
    <glyph glyph-name="ebreve" unicode="&#x115;" horiz-adv-x="560" 
d="M42 0zM292 -12q-54 0 -100 18.5t-79 51.5t-52 80t-19 104q0 52 18 98.5t50 80.5t76.5 54t97.5 20q54 0 97.5 -20t74 -55t47 -83t16.5 -103v-22h-382q3 -31 15 -58t33 -47.5t50.5 -32.5t65.5 -12q38 0 77 14.5t66 42.5l42 -59q-36 -35 -85.5 -53.5t-108.5 -18.5zM431 277
q-1 24 -9.5 49.5t-26.5 46.5t-45.5 34.5t-65.5 13.5q-36 0 -63 -13t-45.5 -34t-28 -46.5t-11.5 -50.5h295zM461 624q-30 -41 -75.5 -64.5t-99.5 -23.5t-99.5 23.5t-76.5 64.5l43 36q23 -32 56.5 -50.5t76.5 -18.5q42 0 76 18.5t57 50.5l42 -36v0z" />
    <glyph glyph-name="ecircumflex" unicode="&#xea;" horiz-adv-x="560" 
d="M42 0zM364 556l-80 101l-78 -101h-58l94 144h84l97 -144h-59zM292 -12q-54 0 -100 18.5t-79 51.5t-52 80t-19 104q0 52 18 98.5t50 80.5t76.5 54t97.5 20q54 0 97.5 -20t74 -55t47 -83t16.5 -103v-22h-382q3 -31 15 -58t33 -47.5t50.5 -32.5t65.5 -12q38 0 77 14.5
t66 42.5l42 -59q-36 -35 -85.5 -53.5t-108.5 -18.5zM431 277q-1 24 -9.5 49.5t-26.5 46.5t-45.5 34.5t-65.5 13.5q-36 0 -63 -13t-45.5 -34t-28 -46.5t-11.5 -50.5h295z" />
    <glyph glyph-name="edieresis" unicode="&#xeb;" horiz-adv-x="560" 
d="M42 0zM442 606q0 -22 -15.5 -37.5t-37.5 -15.5t-37.5 15.5t-15.5 37.5t15.5 37t37.5 15t37.5 -15t15.5 -37zM233 606q0 -22 -15 -37.5t-37 -15.5t-37 15.5t-15 37.5t15 37t37 15t37 -15t15 -37zM292 -12q-54 0 -100 18.5t-79 51.5t-52 80t-19 104q0 52 18 98.5t50 80.5
t76.5 54t97.5 20q54 0 97.5 -20t74 -55t47 -83t16.5 -103v-22h-382q3 -31 15 -58t33 -47.5t50.5 -32.5t65.5 -12q38 0 77 14.5t66 42.5l42 -59q-36 -35 -85.5 -53.5t-108.5 -18.5zM431 277q-1 24 -9.5 49.5t-26.5 46.5t-45.5 34.5t-65.5 13.5q-36 0 -63 -13t-45.5 -34
t-28 -46.5t-11.5 -50.5h295z" />
    <glyph glyph-name="edotaccent" unicode="&#x117;" horiz-adv-x="560" 
d="M42 0zM292 -12q-54 0 -100 18.5t-79 51.5t-52 80t-19 104q0 52 18 98.5t50 80.5t76.5 54t97.5 20q54 0 97.5 -20t74 -55t47 -83t16.5 -103v-22h-382q3 -31 15 -58t33 -47.5t50.5 -32.5t65.5 -12q38 0 77 14.5t66 42.5l42 -59q-36 -35 -85.5 -53.5t-108.5 -18.5zM431 277
q-1 24 -9.5 49.5t-26.5 46.5t-45.5 34.5t-65.5 13.5q-36 0 -63 -13t-45.5 -34t-28 -46.5t-11.5 -50.5h295zM286 552q-22 0 -37.5 15t-15.5 38q0 21 15.5 37t37.5 16t37 -16t15 -37q0 -23 -15 -38t-37 -15z" />
    <glyph glyph-name="egrave" unicode="&#xe8;" horiz-adv-x="560" 
d="M42 0zM292 -12q-54 0 -100 18.5t-79 51.5t-52 80t-19 104q0 52 18 98.5t50 80.5t76.5 54t97.5 20q54 0 97.5 -20t74 -55t47 -83t16.5 -103v-22h-382q3 -31 15 -58t33 -47.5t50.5 -32.5t65.5 -12q38 0 77 14.5t66 42.5l42 -59q-36 -35 -85.5 -53.5t-108.5 -18.5zM431 277
q-1 24 -9.5 49.5t-26.5 46.5t-45.5 34.5t-65.5 13.5q-36 0 -63 -13t-45.5 -34t-28 -46.5t-11.5 -50.5h295zM278 556l-167 144h89l144 -144h-66z" />
    <glyph glyph-name="emacron" unicode="&#x113;" horiz-adv-x="560" 
d="M42 0zM292 -12q-54 0 -100 18.5t-79 51.5t-52 80t-19 104q0 52 18 98.5t50 80.5t76.5 54t97.5 20q54 0 97.5 -20t74 -55t47 -83t16.5 -103v-22h-382q3 -31 15 -58t33 -47.5t50.5 -32.5t65.5 -12q38 0 77 14.5t66 42.5l42 -59q-36 -35 -85.5 -53.5t-108.5 -18.5zM431 277
q-1 24 -9.5 49.5t-26.5 46.5t-45.5 34.5t-65.5 13.5q-36 0 -63 -13t-45.5 -34t-28 -46.5t-11.5 -50.5h295zM103 569v55h363v-55h-363z" />
    <glyph glyph-name="eogonek" unicode="&#x119;" horiz-adv-x="560" 
d="M375 -1q-17 -5 -37 -8t-46 -3q-54 0 -100 18.5t-79 51.5t-52 80t-19 104q0 52 18 98.5t50 80.5t76.5 54t97.5 20q54 0 97.5 -20t74 -55t47 -83t16.5 -103v-22h-382q3 -31 15 -58t33 -47.5t50.5 -32.5t65.5 -12q38 0 77 14.5t66 42.5l42 -59q-47 -38 -76.5 -74.5
t-29.5 -67.5q0 -22 12 -32t28 -10q17 0 32 8l21 -53q-13 -8 -32 -12.5t-42 -4.5q-20 0 -38 4.5t-32.5 14t-23 24t-8.5 33.5q0 32 23.5 59t54.5 50zM431 277q-1 24 -9.5 49.5t-26.5 46.5t-45.5 34.5t-65.5 13.5q-36 0 -63 -13t-45.5 -34t-28 -46.5t-11.5 -50.5h295z" />
    <glyph glyph-name="ecaron" unicode="&#x11b;" horiz-adv-x="560" 
d="M42 0zM244 556l-97 144h58l81 -102l77 102h59l-94 -144h-84zM292 -12q-54 0 -100 18.5t-79 51.5t-52 80t-19 104q0 52 18 98.5t50 80.5t76.5 54t97.5 20q54 0 97.5 -20t74 -55t47 -83t16.5 -103v-22h-382q3 -31 15 -58t33 -47.5t50.5 -32.5t65.5 -12q38 0 77 14.5
t66 42.5l42 -59q-36 -35 -85.5 -53.5t-108.5 -18.5zM431 277q-1 24 -9.5 49.5t-26.5 46.5t-45.5 34.5t-65.5 13.5q-36 0 -63 -13t-45.5 -34t-28 -46.5t-11.5 -50.5h295z" />
    <glyph glyph-name="uni1EB9" unicode="&#x1eb9;" horiz-adv-x="560" 
d="M42 0zM292 -12q-54 0 -100 18.5t-79 51.5t-52 80t-19 104q0 52 18 98.5t50 80.5t76.5 54t97.5 20q54 0 97.5 -20t74 -55t47 -83t16.5 -103v-22h-382q3 -31 15 -58t33 -47.5t50.5 -32.5t65.5 -12q38 0 77 14.5t66 42.5l42 -59q-36 -35 -85.5 -53.5t-108.5 -18.5zM431 277
q-1 24 -9.5 49.5t-26.5 46.5t-45.5 34.5t-65.5 13.5q-36 0 -63 -13t-45.5 -34t-28 -46.5t-11.5 -50.5h295zM286 -186q-22 0 -37.5 15t-15.5 38q0 21 15.5 37t37.5 16t37 -16t15 -37q0 -23 -15 -38t-37 -15z" />
    <glyph glyph-name="uni1EBB" unicode="&#x1ebb;" horiz-adv-x="560" 
d="M42 0zM292 -12q-54 0 -100 18.5t-79 51.5t-52 80t-19 104q0 52 18 98.5t50 80.5t76.5 54t97.5 20q54 0 97.5 -20t74 -55t47 -83t16.5 -103v-22h-382q3 -31 15 -58t33 -47.5t50.5 -32.5t65.5 -12q38 0 77 14.5t66 42.5l42 -59q-36 -35 -85.5 -53.5t-108.5 -18.5zM431 277
q-1 24 -9.5 49.5t-26.5 46.5t-45.5 34.5t-65.5 13.5q-36 0 -63 -13t-45.5 -34t-28 -46.5t-11.5 -50.5h295zM209 596q8 24 27 39.5t48 15.5t51.5 -16.5t22.5 -53.5q0 -16 -4.5 -28t-13.5 -25h-44q12 13 17 25.5t5 25.5q0 19 -9.5 28t-24.5 9q-28 0 -39 -31z" />
    <glyph glyph-name="uni1EBD" unicode="&#x1ebd;" horiz-adv-x="560" 
d="M42 0zM292 -12q-54 0 -100 18.5t-79 51.5t-52 80t-19 104q0 52 18 98.5t50 80.5t76.5 54t97.5 20q54 0 97.5 -20t74 -55t47 -83t16.5 -103v-22h-382q3 -31 15 -58t33 -47.5t50.5 -32.5t65.5 -12q38 0 77 14.5t66 42.5l42 -59q-36 -35 -85.5 -53.5t-108.5 -18.5zM431 277
q-1 24 -9.5 49.5t-26.5 46.5t-45.5 34.5t-65.5 13.5q-36 0 -63 -13t-45.5 -34t-28 -46.5t-11.5 -50.5h295zM342 554q-30 0 -46.5 16t-29.5 33q-10 14 -20 25t-25 11q-19 0 -32 -18.5t-13 -60.5h-51q0 60 25.5 97t74.5 37q29 0 45.5 -16t29.5 -33q11 -14 21 -25t25 -11
q19 0 31.5 18.5t12.5 60.5h52q0 -60 -25.5 -97t-74.5 -37z" />
    <glyph glyph-name="uni1EBF" unicode="&#x1ebf;" horiz-adv-x="560" 
d="M42 0zM363 556l-80 101l-78 -101h-58l94 144h84l97 -144h-59zM448 626h-66l144 144h89zM292 -12q-54 0 -100 18.5t-79 51.5t-52 80t-19 104q0 52 18 98.5t50 80.5t76.5 54t97.5 20q54 0 97.5 -20t74 -55t47 -83t16.5 -103v-22h-382q3 -31 15 -58t33 -47.5t50.5 -32.5
t65.5 -12q38 0 77 14.5t66 42.5l42 -59q-36 -35 -85.5 -53.5t-108.5 -18.5zM431 277q-1 24 -9.5 49.5t-26.5 46.5t-45.5 34.5t-65.5 13.5q-36 0 -63 -13t-45.5 -34t-28 -46.5t-11.5 -50.5h295z" />
    <glyph glyph-name="uni1EC1" unicode="&#x1ec1;" horiz-adv-x="560" 
d="M0 0zM362 556l-80 101l-78 -101h-58l94 144h84l97 -144h-59zM292 -12q-54 0 -100 18.5t-79 51.5t-52 80t-19 104q0 52 18 98.5t50 80.5t76.5 54t97.5 20q54 0 97.5 -20t74 -55t47 -83t16.5 -103v-22h-382q3 -31 15 -58t33 -47.5t50.5 -32.5t65.5 -12q38 0 77 14.5
t66 42.5l42 -59q-36 -35 -85.5 -53.5t-108.5 -18.5zM431 277q-1 24 -9.5 49.5t-26.5 46.5t-45.5 34.5t-65.5 13.5q-36 0 -63 -13t-45.5 -34t-28 -46.5t-11.5 -50.5h295zM117 626l-167 144h89l144 -144h-66z" />
    <glyph glyph-name="uni1EC3" unicode="&#x1ec3;" horiz-adv-x="560" 
d="M42 0zM362 556l-80 101l-78 -101h-58l94 144h84l97 -144h-59zM292 -12q-54 0 -100 18.5t-79 51.5t-52 80t-19 104q0 52 18 98.5t50 80.5t76.5 54t97.5 20q54 0 97.5 -20t74 -55t47 -83t16.5 -103v-22h-382q3 -31 15 -58t33 -47.5t50.5 -32.5t65.5 -12q38 0 77 14.5
t66 42.5l42 -59q-36 -35 -85.5 -53.5t-108.5 -18.5zM431 277q-1 24 -9.5 49.5t-26.5 46.5t-45.5 34.5t-65.5 13.5q-36 0 -63 -13t-45.5 -34t-28 -46.5t-11.5 -50.5h295zM302 735q8 24 27 39.5t48 15.5t51.5 -16.5t22.5 -53.5q0 -16 -4.5 -28t-13.5 -25h-44q12 13 17 25.5
t5 25.5q0 19 -9.5 28t-24.5 9q-28 0 -39 -31z" />
    <glyph glyph-name="uni1EC5" unicode="&#x1ec5;" horiz-adv-x="560" 
d="M42 0zM362 524l-80 101l-78 -101h-58l94 144h84l97 -144h-59zM292 -12q-54 0 -100 18.5t-79 51.5t-52 80t-19 104q0 52 18 98.5t50 80.5t76.5 54t97.5 20q54 0 97.5 -20t74 -55t47 -83t16.5 -103v-22h-382q3 -31 15 -58t33 -47.5t50.5 -32.5t65.5 -12q38 0 77 14.5
t66 42.5l42 -59q-36 -35 -85.5 -53.5t-108.5 -18.5zM431 277q-1 24 -9.5 49.5t-26.5 46.5t-45.5 34.5t-65.5 13.5q-36 0 -63 -13t-45.5 -34t-28 -46.5t-11.5 -50.5h295zM340 682q-30 0 -46.5 16t-29.5 33q-10 14 -20 25t-25 11q-19 0 -32 -18.5t-13 -60.5h-51q0 60 25.5 97
t74.5 37q29 0 45.5 -16t29.5 -33q11 -14 21 -25t25 -11q19 0 31.5 18.5t12.5 60.5h52q0 -60 -25.5 -97t-74.5 -37z" />
    <glyph glyph-name="uni1EC7" unicode="&#x1ec7;" horiz-adv-x="560" 
d="M42 0zM364 556l-80 101l-78 -101h-58l94 144h84l97 -144h-59zM292 -12q-54 0 -100 18.5t-79 51.5t-52 80t-19 104q0 52 18 98.5t50 80.5t76.5 54t97.5 20q54 0 97.5 -20t74 -55t47 -83t16.5 -103v-22h-382q3 -31 15 -58t33 -47.5t50.5 -32.5t65.5 -12q38 0 77 14.5
t66 42.5l42 -59q-36 -35 -85.5 -53.5t-108.5 -18.5zM431 277q-1 24 -9.5 49.5t-26.5 46.5t-45.5 34.5t-65.5 13.5q-36 0 -63 -13t-45.5 -34t-28 -46.5t-11.5 -50.5h295zM286 -186q-22 0 -37.5 15t-15.5 38q0 21 15.5 37t37.5 16t37 -16t15 -37q0 -23 -15 -38t-37 -15z" />
    <glyph glyph-name="fl.alt1" horiz-adv-x="573" 
d="M14 0zM94 0v404h-80v79h80v32q0 78 41 120t106 42q47 0 79 -18l-21 -67q-17 11 -43 11q-34 0 -53 -22t-19 -66v-32h98v-79h-98v-404h-90zM483 -12q-58 0 -86.5 31t-28.5 88v560h90v-540q0 -26 12 -42.5t35 -16.5q16 0 28.5 5.5t19.5 13.5l24 -68q-14 -14 -36.5 -22.5
t-57.5 -8.5z" />
    <glyph glyph-name="f_f_l.alt1" horiz-adv-x="869" 
d="M14 0zM390 0v404h-80v79h80v32q0 78 41 120t106 42q47 0 79 -18l-21 -67q-17 11 -43 11q-34 0 -53 -22t-19 -66v-32h98v-79h-98v-404h-90zM779 -12q-58 0 -86.5 31t-28.5 88v560h90v-540q0 -26 12 -42.5t35 -16.5q16 0 28.5 5.5t19.5 13.5l24 -68q-14 -14 -36.5 -22.5
t-57.5 -8.5zM94 0v404h-80v79h80v32q0 78 41 120t106 42q47 0 79 -18l-21 -67q-19 11 -43 11q-34 0 -53 -22t-19 -66v-32h98v-79h-98v-404h-90z" />
    <glyph glyph-name="uni1E1F" unicode="&#x1e1f;" horiz-adv-x="296" 
d="M14 0zM242 719q-22 0 -37.5 15t-15.5 38q0 21 15.5 37t37.5 16t37 -16t15 -37q0 -23 -15 -38t-37 -15zM94 0v404h-80v79h80v32q0 78 41 120t106 42q47 0 79 -18l-21 -67q-19 11 -43 11q-34 0 -53 -22t-19 -66v-32h98v-79h-98v-404h-90z" />
    <glyph glyph-name="gcircumflex" unicode="&#x11d;" horiz-adv-x="577" 
d="M42 0zM371 556l-80 101l-78 -101h-58l94 144h84l97 -144h-59zM266 -196q-61 0 -108 15.5t-90 56.5l43 66q30 -35 67.5 -49.5t87.5 -14.5q28 0 55 7t48 23.5t34 43t13 64.5v63q-28 -36 -69 -59.5t-90 -23.5q-47 0 -86.5 17t-68 49t-44.5 78.5t-16 105.5q0 58 16 104
t44.5 78.5t68 49.5t86.5 17q48 0 89 -21.5t70 -60.5v70h90v-464q0 -62 -21 -103.5t-54.5 -66.5t-76.5 -35t-88 -10zM282 76q41 0 78 21.5t56 50.5v196q-19 29 -56 50t-78 21q-34 0 -61 -12.5t-46 -35t-29 -53.5t-10 -68q0 -38 10 -69t29 -53.5t46 -35t61 -12.5z" />
    <glyph glyph-name="gbreve" unicode="&#x11f;" horiz-adv-x="577" 
d="M42 0zM266 -196q-61 0 -108 15.5t-90 56.5l43 66q30 -35 67.5 -49.5t87.5 -14.5q28 0 55 7t48 23.5t34 43t13 64.5v63q-28 -36 -69 -59.5t-90 -23.5q-47 0 -86.5 17t-68 49t-44.5 78.5t-16 105.5q0 58 16 104t44.5 78.5t68 49.5t86.5 17q48 0 89 -21.5t70 -60.5v70h90
v-464q0 -62 -21 -103.5t-54.5 -66.5t-76.5 -35t-88 -10zM282 76q41 0 78 21.5t56 50.5v196q-19 29 -56 50t-78 21q-34 0 -61 -12.5t-46 -35t-29 -53.5t-10 -68q0 -38 10 -69t29 -53.5t46 -35t61 -12.5zM467 624q-30 -41 -75.5 -64.5t-99.5 -23.5t-99.5 23.5t-76.5 64.5
l43 36q23 -32 56.5 -50.5t76.5 -18.5q42 0 76 18.5t57 50.5l42 -36v0z" />
    <glyph glyph-name="gdotaccent" unicode="&#x121;" horiz-adv-x="577" 
d="M42 0zM266 -196q-61 0 -108 15.5t-90 56.5l43 66q30 -35 67.5 -49.5t87.5 -14.5q28 0 55 7t48 23.5t34 43t13 64.5v63q-28 -36 -69 -59.5t-90 -23.5q-47 0 -86.5 17t-68 49t-44.5 78.5t-16 105.5q0 58 16 104t44.5 78.5t68 49.5t86.5 17q48 0 89 -21.5t70 -60.5v70h90
v-464q0 -62 -21 -103.5t-54.5 -66.5t-76.5 -35t-88 -10zM282 76q41 0 78 21.5t56 50.5v196q-19 29 -56 50t-78 21q-34 0 -61 -12.5t-46 -35t-29 -53.5t-10 -68q0 -38 10 -69t29 -53.5t46 -35t61 -12.5zM291 552q-22 0 -37.5 15t-15.5 38q0 21 15.5 37t37.5 16t37 -16t15 -37
q0 -23 -15 -38t-37 -15z" />
    <glyph glyph-name="uni0123" unicode="&#x123;" horiz-adv-x="577" 
d="M237 611q0 46 20.5 84.5t51.5 60.5l36 -29q-20 -13 -38.5 -36t-20.5 -45q1 0 2.5 0.5t3.5 0.5q18 0 34 -14.5t16 -34.5q0 -21 -15 -36.5t-37 -15.5q-19 0 -36 15t-17 50zM266 -196q-61 0 -108 15.5t-90 56.5l43 66q30 -35 67.5 -49.5t87.5 -14.5q28 0 55 7t48 23.5t34 43
t13 64.5v63q-28 -36 -69 -59.5t-90 -23.5q-47 0 -86.5 17t-68 49t-44.5 78.5t-16 105.5q0 58 16 104t44.5 78.5t68 49.5t86.5 17q48 0 89 -21.5t70 -60.5v70h90v-464q0 -62 -21 -103.5t-54.5 -66.5t-76.5 -35t-88 -10zM282 76q41 0 78 21.5t56 50.5v196q-19 29 -56 50
t-78 21q-34 0 -61 -12.5t-46 -35t-29 -53.5t-10 -68q0 -38 10 -69t29 -53.5t46 -35t61 -12.5z" />
    <glyph glyph-name="hbar" unicode="&#x127;" horiz-adv-x="562" 
d="M164 533v-118q12 15 30 29t40 25.5t47.5 18.5t53.5 7q155 0 155 -154v-341h-90v311q0 60 -28 82t-75 22q-42 0 -77.5 -21.5t-55.5 -48.5v-345h-90v533h-65v55h65v79h90v-79h154v-55h-154z" />
    <glyph glyph-name="hcircumflex" unicode="&#x125;" horiz-adv-x="560" 
d="M72 0zM360 723l-80 101l-78 -101h-58l94 144h84l97 -144h-59zM398 0v311q0 60 -28 82t-75 22q-42 0 -77.5 -21.5t-55.5 -48.5v-345h-90v667h90v-252q12 15 30 29t40 25.5t47.5 18.5t53.5 7q155 0 155 -154v-341h-90z" />
    <glyph glyph-name="uni1E23" unicode="&#x1e23;" horiz-adv-x="560" 
d="M72 0zM398 0v311q0 60 -28 82t-75 22q-42 0 -77.5 -21.5t-55.5 -48.5v-345h-90v667h90v-252q12 15 30 29t40 25.5t47.5 18.5t53.5 7q155 0 155 -154v-341h-90zM280 719q-22 0 -37.5 15t-15.5 38q0 21 15.5 37t37.5 16t37 -16t15 -37q0 -23 -15 -38t-37 -15z" />
    <glyph glyph-name="dotlessi" unicode="&#x131;" horiz-adv-x="233" 
d="M72 0v483h90v-483h-90z" />
    <glyph glyph-name="iacute" unicode="&#xed;" horiz-adv-x="233" 
d="M58 0zM124 556h-66l144 144h89zM72 0v483h90v-483h-90z" />
    <glyph glyph-name="ibreve" unicode="&#x12d;" horiz-adv-x="233" 
d="M0 0zM72 0v483h90v-483h-90zM293 624q-30 -41 -75.5 -64.5t-99.5 -23.5t-99.5 23.5t-76.5 64.5l43 36q23 -32 56.5 -50.5t76.5 -18.5q42 0 76 18.5t57 50.5l42 -36v0z" />
    <glyph glyph-name="icircumflex" unicode="&#xee;" horiz-adv-x="233" 
d="M0 0zM196 556l-80 101l-78 -101h-58l94 144h84l97 -144h-59zM72 0v483h90v-483h-90z" />
    <glyph glyph-name="idieresis" unicode="&#xef;" horiz-adv-x="233" 
d="M0 0zM274 606q0 -22 -15.5 -37.5t-37.5 -15.5t-37.5 15.5t-15.5 37.5t15.5 37t37.5 15t37.5 -15t15.5 -37zM65 606q0 -22 -15 -37.5t-37 -15.5t-37 15.5t-15 37.5t15 37t37 15t37 -15t15 -37zM72 0v483h90v-483h-90z" />
    <glyph glyph-name="igrave" unicode="&#xec;" horiz-adv-x="233" 
d="M0 0zM72 0v483h90v-483h-90zM110 556l-167 144h89l144 -144h-66z" />
    <glyph glyph-name="imacron" unicode="&#x12b;" horiz-adv-x="233" 
d="M0 0zM72 0v483h90v-483h-90zM-64 569v55h363v-55h-363z" />
    <glyph glyph-name="iogonek" unicode="&#x12f;" horiz-adv-x="233" 
d="M161 -169q-28 -17 -74 -17q-20 0 -38.5 4.5t-32.5 14t-22.5 24t-8.5 33.5q0 18 9 35t24.5 31t35 25t40.5 19h-22v483h90v-483h-1q-45 -18 -68.5 -40t-23.5 -49q0 -17 11 -26t27 -9q8 0 16 1.5t16 6.5zM116 547q-23 0 -40.5 17t-17.5 41t17.5 40.5t40.5 16.5
q24 0 41 -16.5t17 -40.5t-17 -41t-41 -17z" />
    <glyph glyph-name="itilde" unicode="&#x129;" horiz-adv-x="233" 
d="M0 0zM72 0v483h90v-483h-90zM176 554q-30 0 -46.5 16t-29.5 33q-10 14 -20 25t-25 11q-19 0 -32 -18.5t-13 -60.5h-51q0 60 25.5 97t74.5 37q29 0 45.5 -16t29.5 -33q11 -14 21 -25t25 -11q19 0 31.5 18.5t12.5 60.5h52q0 -60 -25.5 -97t-74.5 -37z" />
    <glyph glyph-name="uni1EC9" unicode="&#x1ec9;" horiz-adv-x="233" 
d="M42 0zM72 0v483h90v-483h-90zM42 596q8 24 27 39.5t48 15.5t51.5 -16.5t22.5 -53.5q0 -16 -4.5 -28t-13.5 -25h-44q12 13 17 25.5t5 25.5q0 19 -9.5 28t-24.5 9q-28 0 -39 -31z" />
    <glyph glyph-name="uni1ECB" unicode="&#x1ecb;" horiz-adv-x="233" 
d="M58 0zM116 547q-23 0 -40.5 17t-17.5 41t17.5 40.5t40.5 16.5q24 0 41 -16.5t17 -40.5t-17 -41t-41 -17zM72 0v483h90v-483h-90zM117 -186q-22 0 -37.5 15t-15.5 38q0 21 15.5 37t37.5 16t37 -16t15 -37q0 -23 -15 -38t-37 -15z" />
    <glyph glyph-name="i.dotaccent" horiz-adv-x="233" 
d="M116 547q-23 0 -40.5 17t-17.5 41t17.5 40.5t40.5 16.5q24 0 41 -16.5t17 -40.5t-17 -41t-41 -17zM72 0v483h90v-483h-90z" />
    <glyph glyph-name="ij" unicode="&#x133;" horiz-adv-x="466" 
d="M58 0zM116 547q-23 0 -40.5 17t-17.5 41t17.5 40.5t40.5 16.5q24 0 41 -16.5t17 -40.5t-17 -41t-41 -17zM72 0v483h90v-483h-90zM349 547q-23 0 -40.5 17t-17.5 41t17.5 40.5t40.5 16.5q24 0 41 -16.5t17 -40.5t-17 -41t-41 -17zM244 -196q-31 0 -55 6l11 75q7 -2 16 -3
t17 -1q31 0 51.5 18.5t20.5 62.5v521h90v-521q0 -75 -38.5 -116.5t-112.5 -41.5z" />
    <glyph glyph-name="uni0237" unicode="&#x237;" horiz-adv-x="233" 
d="M11 -196q-31 0 -55 6l11 75q7 -2 16 -3t17 -1q31 0 51.5 18.5t20.5 62.5v521h90v-521q0 -75 -38.5 -116.5t-112.5 -41.5z" />
    <glyph glyph-name="jcircumflex" unicode="&#x135;" horiz-adv-x="233" 
d="M0 0zM198 556l-80 101l-78 -101h-58l94 144h84l97 -144h-59zM11 -196q-31 0 -55 6l11 75q7 -2 16 -3t17 -1q31 0 51.5 18.5t20.5 62.5v521h90v-521q0 -75 -38.5 -116.5t-112.5 -41.5z" />
    <glyph glyph-name="uni0137" unicode="&#x137;" horiz-adv-x="520" 
d="M72 0zM321 -138q0 -42 -21.5 -78.5t-53.5 -59.5l-36 28q22 14 39.5 38t20.5 46q-2 -1 -6 -1.5t-7 -0.5q-20 0 -32.5 13.5t-12.5 34.5t14.5 36t35.5 15q23 0 41 -18.5t18 -52.5zM396 0l-161 208l-73 -74v-134h-90v667h90v-429l233 245h113l-208 -219l210 -264h-114z" />
    <glyph glyph-name="kgreenlandic" unicode="&#x138;" horiz-adv-x="520" 
d="M396 0l-161 208l-73 -74v-134h-90v483h90v-245l233 245h113l-208 -219l210 -264h-114z" />
    <glyph glyph-name="lacute" unicode="&#x13a;" horiz-adv-x="233" 
d="M58 0zM124 723h-66l144 144h89zM72 0v667h90v-667h-90z" />
    <glyph glyph-name="uni013C" unicode="&#x13c;" horiz-adv-x="233" 
d="M67 0zM178 -138q0 -42 -21.5 -78.5t-53.5 -59.5l-36 28q22 14 39.5 38t20.5 46q-2 -1 -6 -1.5t-7 -0.5q-20 0 -32.5 13.5t-12.5 34.5t14.5 36t35.5 15q23 0 41 -18.5t18 -52.5zM72 0v667h90v-667h-90z" />
    <glyph glyph-name="lcaron" unicode="&#x13e;" horiz-adv-x="309" 
d="M72 0zM329 609q0 -42 -21.5 -78.5t-53.5 -59.5l-36 28q22 14 39.5 38t20.5 46q-2 -1 -6 -1.5t-7 -0.5q-20 0 -32.5 13.5t-12.5 34.5t14.5 36t35.5 15q23 0 41 -18.5t18 -52.5zM72 0v667h90v-667h-90z" />
    <glyph glyph-name="ldot" unicode="&#x140;" horiz-adv-x="329" 
d="M72 0zM72 0v667h90v-667h-90zM343 244q0 -25 -18.5 -43.5t-44.5 -18.5t-44 18.5t-18 43.5q0 26 18 44.5t44 18.5t44.5 -18.5t18.5 -44.5z" />
    <glyph glyph-name="lslash" unicode="&#x142;" horiz-adv-x="293" 
d="M10 290l92 53v324h90v-272l90 52v-69l-90 -52v-326h-90v274l-92 -53v69z" />
    <glyph glyph-name="lacute.alt1" horiz-adv-x="277" 
d="M58 0zM124 723h-66l144 144h89zM187 -12q-58 0 -86.5 31t-28.5 88v560h90v-540q0 -26 12 -42.5t35 -16.5q16 0 28.5 5.5t19.5 13.5l24 -68q-14 -14 -36.5 -22.5t-57.5 -8.5z" />
    <glyph glyph-name="uni013C.alt1" horiz-adv-x="277" 
d="M72 0zM190 -138q0 -42 -21.5 -78.5t-53.5 -59.5l-36 28q22 14 39.5 38t20.5 46q-2 -1 -6 -1.5t-7 -0.5q-20 0 -32.5 13.5t-12.5 34.5t14.5 36t35.5 15q23 0 41 -18.5t18 -52.5zM187 -12q-58 0 -86.5 31t-28.5 88v560h90v-540q0 -26 12 -42.5t35 -16.5q16 0 28.5 5.5
t19.5 13.5l24 -68q-14 -14 -36.5 -22.5t-57.5 -8.5z" />
    <glyph glyph-name="lcaron.alt1" horiz-adv-x="310" 
d="M72 0zM329 609q0 -42 -21.5 -78.5t-53.5 -59.5l-36 28q22 14 39.5 38t20.5 46q-2 -1 -6 -1.5t-7 -0.5q-20 0 -32.5 13.5t-12.5 34.5t14.5 36t35.5 15q23 0 41 -18.5t18 -52.5zM187 -12q-58 0 -86.5 31t-28.5 88v560h90v-540q0 -26 12 -42.5t35 -16.5q16 0 28.5 5.5
t19.5 13.5l24 -68q-14 -14 -36.5 -22.5t-57.5 -8.5z" />
    <glyph glyph-name="ldot.alt1" horiz-adv-x="329" 
d="M72 0zM187 -12q-58 0 -86.5 31t-28.5 88v560h90v-540q0 -26 12 -42.5t35 -16.5q16 0 28.5 5.5t19.5 13.5l24 -68q-14 -14 -36.5 -22.5t-57.5 -8.5zM343 244q0 -25 -18.5 -43.5t-44.5 -18.5t-44 18.5t-18 43.5q0 26 18 44.5t44 18.5t44.5 -18.5t18.5 -44.5z" />
    <glyph glyph-name="lslash.alt1" horiz-adv-x="306" 
d="M10 290l91 52v325h90v-273l91 53v-69l-91 -53v-198q0 -26 12 -42.5t35 -16.5q16 0 28.5 5.5t19.5 13.5l24 -68q-14 -14 -36.5 -22.5t-57.5 -8.5q-58 0 -86.5 31t-28.5 88v166l-91 -52v69z" />
    <glyph glyph-name="nacute" unicode="&#x144;" 
d="M72 0zM286 556h-66l144 144h89zM398 0v309q0 60 -28 83t-75 23q-42 0 -77.5 -21.5t-55.5 -48.5v-345h-90v483h90v-68q12 15 29.5 29t39.5 25.5t48 18.5t54 7q77 0 116 -39.5t39 -116.5v-339h-90z" />
    <glyph glyph-name="napostrophe" unicode="&#x149;" 
d="M55 0zM166 678q0 -42 -21.5 -78.5t-53.5 -59.5l-36 28q22 14 39.5 38t20.5 46q-2 -1 -6 -1.5t-7 -0.5q-20 0 -32.5 13.5t-12.5 34.5t14.5 36t35.5 15q23 0 41 -18.5t18 -52.5zM398 0v309q0 60 -28 83t-75 23q-42 0 -77.5 -21.5t-55.5 -48.5v-345h-90v483h90v-68
q12 15 29.5 29t39.5 25.5t48 18.5t54 7q77 0 116 -39.5t39 -116.5v-339h-90z" />
    <glyph glyph-name="ncaron" unicode="&#x148;" 
d="M72 0zM240 556l-97 144h58l81 -102l77 102h59l-94 -144h-84zM398 0v309q0 60 -28 83t-75 23q-42 0 -77.5 -21.5t-55.5 -48.5v-345h-90v483h90v-68q12 15 29.5 29t39.5 25.5t48 18.5t54 7q77 0 116 -39.5t39 -116.5v-339h-90z" />
    <glyph glyph-name="uni0146" unicode="&#x146;" 
d="M72 0zM337 -138q0 -42 -21.5 -78.5t-53.5 -59.5l-36 28q22 14 39.5 38t20.5 46q-2 -1 -6 -1.5t-7 -0.5q-20 0 -32.5 13.5t-12.5 34.5t14.5 36t35.5 15q23 0 41 -18.5t18 -52.5zM398 0v309q0 60 -28 83t-75 23q-42 0 -77.5 -21.5t-55.5 -48.5v-345h-90v483h90v-68
q12 15 29.5 29t39.5 25.5t48 18.5t54 7q77 0 116 -39.5t39 -116.5v-339h-90z" />
    <glyph glyph-name="ntilde" unicode="&#xf1;" 
d="M72 0zM398 0v309q0 60 -28 83t-75 23q-42 0 -77.5 -21.5t-55.5 -48.5v-345h-90v483h90v-68q12 15 29.5 29t39.5 25.5t48 18.5t54 7q77 0 116 -39.5t39 -116.5v-339h-90zM339 554q-30 0 -46.5 16t-29.5 33q-10 14 -20 25t-25 11q-19 0 -32 -18.5t-13 -60.5h-51
q0 60 25.5 97t74.5 37q29 0 45.5 -16t29.5 -33q11 -14 21 -25t25 -11q19 0 31.5 18.5t12.5 60.5h52q0 -60 -25.5 -97t-74.5 -37z" />
    <glyph glyph-name="eng" unicode="&#x14b;" 
d="M488 -38q0 -75 -38.5 -116.5t-112.5 -41.5q-31 0 -55 6l11 75q7 -2 16 -3t17 -1q31 0 51.5 18.5t20.5 62.5v347q0 60 -28 83t-75 23q-42 0 -77.5 -21.5t-55.5 -48.5v-345h-90v483h90v-68q12 15 29.5 29t39.5 25.5t48 18.5t54 7q77 0 116 -39.5t39 -116.5v-377z" />
    <glyph glyph-name="oacute" unicode="&#xf3;" horiz-adv-x="572" 
d="M42 0zM294 556h-66l144 144h89zM286 -12q-56 0 -101.5 20t-77 54.5t-48.5 80.5t-17 99q0 52 17 98t48.5 80.5t77 54.5t101.5 20q57 0 102 -20t76.5 -54.5t48.5 -80.5t17 -98q0 -53 -17 -99t-48.5 -80.5t-76.5 -54.5t-102 -20zM286 68q36 0 64 14t47 38t29 55.5t10 66.5
q0 34 -10 65.5t-29 55.5t-47 38t-64 14t-64 -14t-47 -38t-29 -55.5t-10 -65.5q0 -35 10 -66.5t29 -55.5t47 -38t64 -14z" />
    <glyph glyph-name="obreve" unicode="&#x14f;" horiz-adv-x="572" 
d="M42 0zM286 -12q-56 0 -101.5 20t-77 54.5t-48.5 80.5t-17 99q0 52 17 98t48.5 80.5t77 54.5t101.5 20q57 0 102 -20t76.5 -54.5t48.5 -80.5t17 -98q0 -53 -17 -99t-48.5 -80.5t-76.5 -54.5t-102 -20zM286 68q36 0 64 14t47 38t29 55.5t10 66.5q0 34 -10 65.5t-29 55.5
t-47 38t-64 14t-64 -14t-47 -38t-29 -55.5t-10 -65.5q0 -35 10 -66.5t29 -55.5t47 -38t64 -14zM462 624q-30 -41 -75.5 -64.5t-99.5 -23.5t-99.5 23.5t-76.5 64.5l43 36q23 -32 56.5 -50.5t76.5 -18.5q42 0 76 18.5t57 50.5l42 -36v0z" />
    <glyph glyph-name="ocircumflex" unicode="&#xf4;" horiz-adv-x="572" 
d="M42 0zM365 556l-80 101l-78 -101h-58l94 144h84l97 -144h-59zM286 -12q-56 0 -101.5 20t-77 54.5t-48.5 80.5t-17 99q0 52 17 98t48.5 80.5t77 54.5t101.5 20q57 0 102 -20t76.5 -54.5t48.5 -80.5t17 -98q0 -53 -17 -99t-48.5 -80.5t-76.5 -54.5t-102 -20zM286 68
q36 0 64 14t47 38t29 55.5t10 66.5q0 34 -10 65.5t-29 55.5t-47 38t-64 14t-64 -14t-47 -38t-29 -55.5t-10 -65.5q0 -35 10 -66.5t29 -55.5t47 -38t64 -14z" />
    <glyph glyph-name="odieresis" unicode="&#xf6;" horiz-adv-x="572" 
d="M42 0zM443 606q0 -22 -15.5 -37.5t-37.5 -15.5t-37.5 15.5t-15.5 37.5t15.5 37t37.5 15t37.5 -15t15.5 -37zM234 606q0 -22 -15 -37.5t-37 -15.5t-37 15.5t-15 37.5t15 37t37 15t37 -15t15 -37zM286 -12q-56 0 -101.5 20t-77 54.5t-48.5 80.5t-17 99q0 52 17 98
t48.5 80.5t77 54.5t101.5 20q57 0 102 -20t76.5 -54.5t48.5 -80.5t17 -98q0 -53 -17 -99t-48.5 -80.5t-76.5 -54.5t-102 -20zM286 68q36 0 64 14t47 38t29 55.5t10 66.5q0 34 -10 65.5t-29 55.5t-47 38t-64 14t-64 -14t-47 -38t-29 -55.5t-10 -65.5q0 -35 10 -66.5t29 -55.5
t47 -38t64 -14z" />
    <glyph glyph-name="ograve" unicode="&#xf2;" horiz-adv-x="572" 
d="M42 0zM286 -12q-56 0 -101.5 20t-77 54.5t-48.5 80.5t-17 99q0 52 17 98t48.5 80.5t77 54.5t101.5 20q57 0 102 -20t76.5 -54.5t48.5 -80.5t17 -98q0 -53 -17 -99t-48.5 -80.5t-76.5 -54.5t-102 -20zM286 68q36 0 64 14t47 38t29 55.5t10 66.5q0 34 -10 65.5t-29 55.5
t-47 38t-64 14t-64 -14t-47 -38t-29 -55.5t-10 -65.5q0 -35 10 -66.5t29 -55.5t47 -38t64 -14zM280 556l-167 144h89l144 -144h-66z" />
    <glyph glyph-name="ohungarumlaut" unicode="&#x151;" horiz-adv-x="572" 
d="M42 0zM228 556h-56l92 144h79zM372 556h-56l92 144h79zM286 -12q-56 0 -101.5 20t-77 54.5t-48.5 80.5t-17 99q0 52 17 98t48.5 80.5t77 54.5t101.5 20q57 0 102 -20t76.5 -54.5t48.5 -80.5t17 -98q0 -53 -17 -99t-48.5 -80.5t-76.5 -54.5t-102 -20zM286 68q36 0 64 14
t47 38t29 55.5t10 66.5q0 34 -10 65.5t-29 55.5t-47 38t-64 14t-64 -14t-47 -38t-29 -55.5t-10 -65.5q0 -35 10 -66.5t29 -55.5t47 -38t64 -14z" />
    <glyph glyph-name="omacron" unicode="&#x14d;" horiz-adv-x="572" 
d="M42 0zM105 569v55h363v-55h-363zM286 -12q-56 0 -101.5 20t-77 54.5t-48.5 80.5t-17 99q0 52 17 98t48.5 80.5t77 54.5t101.5 20q57 0 102 -20t76.5 -54.5t48.5 -80.5t17 -98q0 -53 -17 -99t-48.5 -80.5t-76.5 -54.5t-102 -20zM286 68q36 0 64 14t47 38t29 55.5t10 66.5
q0 34 -10 65.5t-29 55.5t-47 38t-64 14t-64 -14t-47 -38t-29 -55.5t-10 -65.5q0 -35 10 -66.5t29 -55.5t47 -38t64 -14z" />
    <glyph glyph-name="oslash" unicode="&#xf8;" horiz-adv-x="572" 
d="M57 0l50 62q-32 35 -48.5 81t-16.5 99q0 52 17 98t48.5 80.5t77 54.5t101.5 20q41 0 75.5 -10.5t62.5 -29.5l23 28h62l-48 -59q33 -35 51 -81.5t18 -100.5q0 -53 -17 -99t-48.5 -80.5t-76.5 -54.5t-102 -20q-42 0 -78 11.5t-65 31.5l-25 -31h-61zM286 68q36 0 64 14
t47 38t29 55.5t10 66.5q0 64 -32 111l-207 -255q18 -14 40 -22t49 -8zM136 242q0 -62 29 -108l206 254q-17 13 -38.5 20t-46.5 7q-36 0 -64 -14t-47 -38t-29 -55.5t-10 -65.5z" />
    <glyph glyph-name="oslashacute" unicode="&#x1ff;" horiz-adv-x="572" 
d="M42 0zM294 556h-66l144 144h89zM57 0l50 62q-32 35 -48.5 81t-16.5 99q0 52 17 98t48.5 80.5t77 54.5t101.5 20q41 0 75.5 -10.5t62.5 -29.5l23 28h62l-48 -59q33 -35 51 -81.5t18 -100.5q0 -53 -17 -99t-48.5 -80.5t-76.5 -54.5t-102 -20q-42 0 -78 11.5t-65 31.5
l-25 -31h-61zM286 68q36 0 64 14t47 38t29 55.5t10 66.5q0 64 -32 111l-207 -255q18 -14 40 -22t49 -8zM136 242q0 -62 29 -108l206 254q-17 13 -38.5 20t-46.5 7q-36 0 -64 -14t-47 -38t-29 -55.5t-10 -65.5z" />
    <glyph glyph-name="otilde" unicode="&#xf5;" horiz-adv-x="572" 
d="M42 0zM286 -12q-56 0 -101.5 20t-77 54.5t-48.5 80.5t-17 99q0 52 17 98t48.5 80.5t77 54.5t101.5 20q57 0 102 -20t76.5 -54.5t48.5 -80.5t17 -98q0 -53 -17 -99t-48.5 -80.5t-76.5 -54.5t-102 -20zM286 68q36 0 64 14t47 38t29 55.5t10 66.5q0 34 -10 65.5t-29 55.5
t-47 38t-64 14t-64 -14t-47 -38t-29 -55.5t-10 -65.5q0 -35 10 -66.5t29 -55.5t47 -38t64 -14zM345 554q-30 0 -46.5 16t-29.5 33q-10 14 -20 25t-25 11q-19 0 -32 -18.5t-13 -60.5h-51q0 60 25.5 97t74.5 37q29 0 45.5 -16t29.5 -33q11 -14 21 -25t25 -11q19 0 31.5 18.5
t12.5 60.5h52q0 -60 -25.5 -97t-74.5 -37z" />
    <glyph glyph-name="uni1ECD" unicode="&#x1ecd;" horiz-adv-x="572" 
d="M42 0zM286 -12q-56 0 -101.5 20t-77 54.5t-48.5 80.5t-17 99q0 52 17 98t48.5 80.5t77 54.5t101.5 20q57 0 102 -20t76.5 -54.5t48.5 -80.5t17 -98q0 -53 -17 -99t-48.5 -80.5t-76.5 -54.5t-102 -20zM286 68q36 0 64 14t47 38t29 55.5t10 66.5q0 34 -10 65.5t-29 55.5
t-47 38t-64 14t-64 -14t-47 -38t-29 -55.5t-10 -65.5q0 -35 10 -66.5t29 -55.5t47 -38t64 -14zM287 -186q-22 0 -37.5 15t-15.5 38q0 21 15.5 37t37.5 16t37 -16t15 -37q0 -23 -15 -38t-37 -15z" />
    <glyph glyph-name="uni1ECF" unicode="&#x1ecf;" horiz-adv-x="572" 
d="M42 0zM286 -12q-56 0 -101.5 20t-77 54.5t-48.5 80.5t-17 99q0 52 17 98t48.5 80.5t77 54.5t101.5 20q57 0 102 -20t76.5 -54.5t48.5 -80.5t17 -98q0 -53 -17 -99t-48.5 -80.5t-76.5 -54.5t-102 -20zM286 68q36 0 64 14t47 38t29 55.5t10 66.5q0 34 -10 65.5t-29 55.5
t-47 38t-64 14t-64 -14t-47 -38t-29 -55.5t-10 -65.5q0 -35 10 -66.5t29 -55.5t47 -38t64 -14zM212 596q8 24 27 39.5t48 15.5t51.5 -16.5t22.5 -53.5q0 -16 -4.5 -28t-13.5 -25h-44q12 13 17 25.5t5 25.5q0 19 -9.5 28t-24.5 9q-28 0 -39 -31z" />
    <glyph glyph-name="uni1ED1" unicode="&#x1ed1;" horiz-adv-x="572" 
d="M42 0zM365 556l-80 101l-78 -101h-58l94 144h84l97 -144h-59zM451 626h-66l144 144h89zM286 -12q-56 0 -101.5 20t-77 54.5t-48.5 80.5t-17 99q0 52 17 98t48.5 80.5t77 54.5t101.5 20q57 0 102 -20t76.5 -54.5t48.5 -80.5t17 -98q0 -53 -17 -99t-48.5 -80.5t-76.5 -54.5
t-102 -20zM286 68q36 0 64 14t47 38t29 55.5t10 66.5q0 34 -10 65.5t-29 55.5t-47 38t-64 14t-64 -14t-47 -38t-29 -55.5t-10 -65.5q0 -35 10 -66.5t29 -55.5t47 -38t64 -14z" />
    <glyph glyph-name="uni1ED3" unicode="&#x1ed3;" horiz-adv-x="572" 
d="M0 0zM365 556l-80 101l-78 -101h-58l94 144h84l97 -144h-59zM286 -12q-56 0 -101.5 20t-77 54.5t-48.5 80.5t-17 99q0 52 17 98t48.5 80.5t77 54.5t101.5 20q57 0 102 -20t76.5 -54.5t48.5 -80.5t17 -98q0 -53 -17 -99t-48.5 -80.5t-76.5 -54.5t-102 -20zM286 68
q36 0 64 14t47 38t29 55.5t10 66.5q0 34 -10 65.5t-29 55.5t-47 38t-64 14t-64 -14t-47 -38t-29 -55.5t-10 -65.5q0 -35 10 -66.5t29 -55.5t47 -38t64 -14zM120 626l-167 144h89l144 -144h-66z" />
    <glyph glyph-name="uni1ED5" unicode="&#x1ed5;" horiz-adv-x="572" 
d="M42 0zM365 556l-80 101l-78 -101h-58l94 144h84l97 -144h-59zM286 -12q-56 0 -101.5 20t-77 54.5t-48.5 80.5t-17 99q0 52 17 98t48.5 80.5t77 54.5t101.5 20q57 0 102 -20t76.5 -54.5t48.5 -80.5t17 -98q0 -53 -17 -99t-48.5 -80.5t-76.5 -54.5t-102 -20zM286 68
q36 0 64 14t47 38t29 55.5t10 66.5q0 34 -10 65.5t-29 55.5t-47 38t-64 14t-64 -14t-47 -38t-29 -55.5t-10 -65.5q0 -35 10 -66.5t29 -55.5t47 -38t64 -14zM305 735q8 24 27 39.5t48 15.5t51.5 -16.5t22.5 -53.5q0 -16 -4.5 -28t-13.5 -25h-44q12 13 17 25.5t5 25.5
q0 19 -9.5 28t-24.5 9q-28 0 -39 -31z" />
    <glyph glyph-name="uni1ED7" unicode="&#x1ed7;" horiz-adv-x="572" 
d="M42 0zM364 524l-80 101l-78 -101h-58l94 144h84l97 -144h-59zM286 -12q-56 0 -101.5 20t-77 54.5t-48.5 80.5t-17 99q0 52 17 98t48.5 80.5t77 54.5t101.5 20q57 0 102 -20t76.5 -54.5t48.5 -80.5t17 -98q0 -53 -17 -99t-48.5 -80.5t-76.5 -54.5t-102 -20zM286 68
q36 0 64 14t47 38t29 55.5t10 66.5q0 34 -10 65.5t-29 55.5t-47 38t-64 14t-64 -14t-47 -38t-29 -55.5t-10 -65.5q0 -35 10 -66.5t29 -55.5t47 -38t64 -14zM343 682q-30 0 -46.5 16t-29.5 33q-10 14 -20 25t-25 11q-19 0 -32 -18.5t-13 -60.5h-51q0 60 25.5 97t74.5 37
q29 0 45.5 -16t29.5 -33q11 -14 21 -25t25 -11q19 0 31.5 18.5t12.5 60.5h52q0 -60 -25.5 -97t-74.5 -37z" />
    <glyph glyph-name="uni1ED9" unicode="&#x1ed9;" horiz-adv-x="572" 
d="M42 0zM365 556l-80 101l-78 -101h-58l94 144h84l97 -144h-59zM286 -12q-56 0 -101.5 20t-77 54.5t-48.5 80.5t-17 99q0 52 17 98t48.5 80.5t77 54.5t101.5 20q57 0 102 -20t76.5 -54.5t48.5 -80.5t17 -98q0 -53 -17 -99t-48.5 -80.5t-76.5 -54.5t-102 -20zM286 68
q36 0 64 14t47 38t29 55.5t10 66.5q0 34 -10 65.5t-29 55.5t-47 38t-64 14t-64 -14t-47 -38t-29 -55.5t-10 -65.5q0 -35 10 -66.5t29 -55.5t47 -38t64 -14zM287 -186q-22 0 -37.5 15t-15.5 38q0 21 15.5 37t37.5 16t37 -16t15 -37q0 -23 -15 -38t-37 -15z" />
    <glyph glyph-name="ohorn" unicode="&#x1a1;" horiz-adv-x="572" 
d="M534 531q0 -37 -17 -68.5t-43 -53.5q27 -34 41.5 -76.5t14.5 -90.5q0 -53 -17 -99t-48.5 -80.5t-76.5 -54.5t-102 -20q-56 0 -101.5 20t-77 54.5t-48.5 80.5t-17 99q0 52 17 98t48.5 80.5t77 54.5t101.5 20q49 0 89 -15.5t71 -41.5q17 14 28 33t14 37q-4 -2 -12 -2
q-18 0 -30 12t-12 32q0 19 13.5 32.5t33.5 13.5q21 0 37 -16.5t16 -48.5zM286 68q36 0 64 14t47 38t29 55.5t10 66.5q0 34 -10 65.5t-29 55.5t-47 38t-64 14t-64 -14t-47 -38t-29 -55.5t-10 -65.5q0 -35 10 -66.5t29 -55.5t47 -38t64 -14z" />
    <glyph glyph-name="uni1EDB" unicode="&#x1edb;" horiz-adv-x="572" 
d="M42 0zM294 556h-66l144 144h89zM534 531q0 -37 -17 -68.5t-43 -53.5q27 -34 41.5 -76.5t14.5 -90.5q0 -53 -17 -99t-48.5 -80.5t-76.5 -54.5t-102 -20q-56 0 -101.5 20t-77 54.5t-48.5 80.5t-17 99q0 52 17 98t48.5 80.5t77 54.5t101.5 20q49 0 89 -15.5t71 -41.5
q17 14 28 33t14 37q-4 -2 -12 -2q-18 0 -30 12t-12 32q0 19 13.5 32.5t33.5 13.5q21 0 37 -16.5t16 -48.5zM286 68q36 0 64 14t47 38t29 55.5t10 66.5q0 34 -10 65.5t-29 55.5t-47 38t-64 14t-64 -14t-47 -38t-29 -55.5t-10 -65.5q0 -35 10 -66.5t29 -55.5t47 -38t64 -14z
" />
    <glyph glyph-name="uni1EDD" unicode="&#x1edd;" horiz-adv-x="572" 
d="M42 0zM534 531q0 -37 -17 -68.5t-43 -53.5q27 -34 41.5 -76.5t14.5 -90.5q0 -53 -17 -99t-48.5 -80.5t-76.5 -54.5t-102 -20q-56 0 -101.5 20t-77 54.5t-48.5 80.5t-17 99q0 52 17 98t48.5 80.5t77 54.5t101.5 20q49 0 89 -15.5t71 -41.5q17 14 28 33t14 37q-4 -2 -12 -2
q-18 0 -30 12t-12 32q0 19 13.5 32.5t33.5 13.5q21 0 37 -16.5t16 -48.5zM286 68q36 0 64 14t47 38t29 55.5t10 66.5q0 34 -10 65.5t-29 55.5t-47 38t-64 14t-64 -14t-47 -38t-29 -55.5t-10 -65.5q0 -35 10 -66.5t29 -55.5t47 -38t64 -14zM280 556l-167 144h89l144 -144h-66
z" />
    <glyph glyph-name="uni1EDF" unicode="&#x1edf;" horiz-adv-x="572" 
d="M42 0zM534 531q0 -37 -17 -68.5t-43 -53.5q27 -34 41.5 -76.5t14.5 -90.5q0 -53 -17 -99t-48.5 -80.5t-76.5 -54.5t-102 -20q-56 0 -101.5 20t-77 54.5t-48.5 80.5t-17 99q0 52 17 98t48.5 80.5t77 54.5t101.5 20q49 0 89 -15.5t71 -41.5q17 14 28 33t14 37q-4 -2 -12 -2
q-18 0 -30 12t-12 32q0 19 13.5 32.5t33.5 13.5q21 0 37 -16.5t16 -48.5zM286 68q36 0 64 14t47 38t29 55.5t10 66.5q0 34 -10 65.5t-29 55.5t-47 38t-64 14t-64 -14t-47 -38t-29 -55.5t-10 -65.5q0 -35 10 -66.5t29 -55.5t47 -38t64 -14zM212 596q8 24 27 39.5t48 15.5
t51.5 -16.5t22.5 -53.5q0 -16 -4.5 -28t-13.5 -25h-44q12 13 17 25.5t5 25.5q0 19 -9.5 28t-24.5 9q-28 0 -39 -31z" />
    <glyph glyph-name="uni1EE1" unicode="&#x1ee1;" horiz-adv-x="572" 
d="M42 0zM534 531q0 -37 -17 -68.5t-43 -53.5q27 -34 41.5 -76.5t14.5 -90.5q0 -53 -17 -99t-48.5 -80.5t-76.5 -54.5t-102 -20q-56 0 -101.5 20t-77 54.5t-48.5 80.5t-17 99q0 52 17 98t48.5 80.5t77 54.5t101.5 20q49 0 89 -15.5t71 -41.5q17 14 28 33t14 37q-4 -2 -12 -2
q-18 0 -30 12t-12 32q0 19 13.5 32.5t33.5 13.5q21 0 37 -16.5t16 -48.5zM286 68q36 0 64 14t47 38t29 55.5t10 66.5q0 34 -10 65.5t-29 55.5t-47 38t-64 14t-64 -14t-47 -38t-29 -55.5t-10 -65.5q0 -35 10 -66.5t29 -55.5t47 -38t64 -14zM345 554q-30 0 -46.5 16t-29.5 33
q-10 14 -20 25t-25 11q-19 0 -32 -18.5t-13 -60.5h-51q0 60 25.5 97t74.5 37q29 0 45.5 -16t29.5 -33q11 -14 21 -25t25 -11q19 0 31.5 18.5t12.5 60.5h52q0 -60 -25.5 -97t-74.5 -37z" />
    <glyph glyph-name="uni1EE3" unicode="&#x1ee3;" horiz-adv-x="572" 
d="M42 0zM534 531q0 -37 -17 -68.5t-43 -53.5q27 -34 41.5 -76.5t14.5 -90.5q0 -53 -17 -99t-48.5 -80.5t-76.5 -54.5t-102 -20q-56 0 -101.5 20t-77 54.5t-48.5 80.5t-17 99q0 52 17 98t48.5 80.5t77 54.5t101.5 20q49 0 89 -15.5t71 -41.5q17 14 28 33t14 37q-4 -2 -12 -2
q-18 0 -30 12t-12 32q0 19 13.5 32.5t33.5 13.5q21 0 37 -16.5t16 -48.5zM286 68q36 0 64 14t47 38t29 55.5t10 66.5q0 34 -10 65.5t-29 55.5t-47 38t-64 14t-64 -14t-47 -38t-29 -55.5t-10 -65.5q0 -35 10 -66.5t29 -55.5t47 -38t64 -14zM287 -186q-22 0 -37.5 15t-15.5 38
q0 21 15.5 37t37.5 16t37 -16t15 -37q0 -23 -15 -38t-37 -15z" />
    <glyph glyph-name="oe" unicode="&#x153;" horiz-adv-x="953" 
d="M531 212q3 -31 15 -58t33 -47.5t50 -32.5t65 -12q39 0 77.5 14.5t66.5 42.5l42 -59q-37 -35 -86.5 -53.5t-107.5 -18.5q-45 0 -78.5 12.5t-58 31.5t-41 42t-26.5 43q-10 -19 -25.5 -41.5t-39 -42t-56 -32.5t-75.5 -13q-56 0 -101.5 20t-77 54.5t-48.5 80.5t-17 99
q0 52 17 98t48.5 80.5t77 54.5t101.5 20q43 0 75.5 -13.5t56.5 -33t40 -42t25 -41.5q9 19 25 42t40 42.5t56 32.5t74 13q54 0 97.5 -20t74 -55t46.5 -83t16 -103v-22h-381zM825 277q-1 24 -10 49.5t-27 46.5t-45.5 34.5t-65.5 13.5q-36 0 -63 -13t-45 -34t-28 -46.5
t-11 -50.5h295zM436 242q0 36 -10 67.5t-29.5 55t-47.5 37t-63 13.5t-62.5 -13.5t-47 -37t-30 -55t-10.5 -67.5t10.5 -68t30 -55.5t47 -37.5t62.5 -14t63 14t47.5 37.5t29.5 55.5t10 68z" />
    <glyph glyph-name="uni1E57" unicode="&#x1e57;" horiz-adv-x="575" 
d="M72 0zM320 -12q-48 0 -88.5 21t-69.5 61v-254h-90v667h90v-69q26 36 67.5 58.5t90.5 22.5q47 0 86.5 -17.5t68 -50t44.5 -79.5t16 -106t-16 -106t-44.5 -80t-68 -50.5t-86.5 -17.5zM296 68q34 0 60.5 13t45.5 36t29 55t10 70q0 37 -10 69t-29 55t-45.5 36t-60.5 13
q-41 0 -78.5 -21t-55.5 -50v-205q18 -29 55 -50t79 -21zM294 552q-22 0 -37.5 15t-15.5 38q0 21 15.5 37t37.5 16t37 -16t15 -37q0 -23 -15 -38t-37 -15z" />
    <glyph glyph-name="racute" unicode="&#x155;" horiz-adv-x="338" 
d="M72 0zM203 556h-66l144 144h89zM72 0v483h90v-74q28 36 69 60.5t89 24.5v-91q-14 3 -31 3t-36 -6t-36.5 -15.5t-32 -22.5t-22.5 -26v-336h-90z" />
    <glyph glyph-name="rcaron" unicode="&#x159;" horiz-adv-x="338" 
d="M57 0zM154 556l-97 144h58l81 -102l77 102h59l-94 -144h-84zM72 0v483h90v-74q28 36 69 60.5t89 24.5v-91q-14 3 -31 3t-36 -6t-36.5 -15.5t-32 -22.5t-22.5 -26v-336h-90z" />
    <glyph glyph-name="uni0157" unicode="&#x157;" horiz-adv-x="338" 
d="M72 0zM230 -138q0 -42 -21.5 -78.5t-53.5 -59.5l-36 28q22 14 39.5 38t20.5 46q-2 -1 -6 -1.5t-7 -0.5q-20 0 -32.5 13.5t-12.5 34.5t14.5 36t35.5 15q23 0 41 -18.5t18 -52.5zM72 0v483h90v-74q28 36 69 60.5t89 24.5v-91q-14 3 -31 3t-36 -6t-36.5 -15.5t-32 -22.5
t-22.5 -26v-336h-90z" />
    <glyph glyph-name="sacute" unicode="&#x15b;" horiz-adv-x="468" 
d="M30 0zM238 556h-66l144 144h89zM231 -12q-61 0 -112.5 18.5t-88.5 56.5l43 66q25 -27 69 -48t93 -21q51 0 77.5 21t26.5 53q0 17 -9.5 28.5t-25.5 20t-37.5 14t-44.5 10.5q-31 7 -62.5 16t-57 24.5t-42 40.5t-16.5 64q0 29 12 55t35.5 45.5t58 31t78.5 11.5q63 0 108 -20
t76 -49l-40 -63q-21 26 -59 42.5t-84 16.5t-72.5 -19t-26.5 -48q0 -15 9 -25.5t24.5 -17.5t35.5 -12.5t43 -10.5q31 -7 64 -16.5t59.5 -26t43.5 -42.5t17 -68q0 -31 -12.5 -58t-37.5 -47t-61 -31.5t-84 -11.5z" />
    <glyph glyph-name="scaron" unicode="&#x161;" horiz-adv-x="468" 
d="M30 0zM191 556l-97 144h58l81 -102l77 102h59l-94 -144h-84zM231 -12q-61 0 -112.5 18.5t-88.5 56.5l43 66q25 -27 69 -48t93 -21q51 0 77.5 21t26.5 53q0 17 -9.5 28.5t-25.5 20t-37.5 14t-44.5 10.5q-31 7 -62.5 16t-57 24.5t-42 40.5t-16.5 64q0 29 12 55t35.5 45.5
t58 31t78.5 11.5q63 0 108 -20t76 -49l-40 -63q-21 26 -59 42.5t-84 16.5t-72.5 -19t-26.5 -48q0 -15 9 -25.5t24.5 -17.5t35.5 -12.5t43 -10.5q31 -7 64 -16.5t59.5 -26t43.5 -42.5t17 -68q0 -31 -12.5 -58t-37.5 -47t-61 -31.5t-84 -11.5z" />
    <glyph glyph-name="scircumflex" unicode="&#x15d;" horiz-adv-x="468" 
d="M30 0zM310 556l-80 101l-78 -101h-58l94 144h84l97 -144h-59zM231 -12q-61 0 -112.5 18.5t-88.5 56.5l43 66q25 -27 69 -48t93 -21q51 0 77.5 21t26.5 53q0 17 -9.5 28.5t-25.5 20t-37.5 14t-44.5 10.5q-31 7 -62.5 16t-57 24.5t-42 40.5t-16.5 64q0 29 12 55t35.5 45.5
t58 31t78.5 11.5q63 0 108 -20t76 -49l-40 -63q-21 26 -59 42.5t-84 16.5t-72.5 -19t-26.5 -48q0 -15 9 -25.5t24.5 -17.5t35.5 -12.5t43 -10.5q31 -7 64 -16.5t59.5 -26t43.5 -42.5t17 -68q0 -31 -12.5 -58t-37.5 -47t-61 -31.5t-84 -11.5z" />
    <glyph glyph-name="uni015F" unicode="&#x15f;" horiz-adv-x="468" 
d="M229 -193q-33 0 -60.5 9.5t-42.5 21.5l20 42q19 -15 40 -22t41 -7q23 0 41 9.5t18 29.5q0 32 -36 32q-22 0 -35 -15l-38 21l23 61q-51 5 -94.5 23t-75.5 51l43 66q25 -27 69 -48t93 -21q51 0 77.5 21t26.5 53q0 17 -9.5 28.5t-25.5 20t-37.5 14t-44.5 10.5
q-31 7 -62.5 16t-57 24.5t-42 40.5t-16.5 64q0 29 12 55t35.5 45.5t58 31t78.5 11.5q63 0 108 -20t76 -49l-40 -63q-21 26 -59 42.5t-84 16.5t-72.5 -19t-26.5 -48q0 -15 9 -25.5t24.5 -17.5t35.5 -12.5t43 -10.5q31 -7 64 -16.5t59.5 -26t43.5 -42.5t17 -68q0 -60 -45 -101
t-132 -46l-17 -43q16 11 37 11q29 0 47.5 -18.5t18.5 -49.5q0 -38 -30.5 -60t-75.5 -22z" />
    <glyph glyph-name="uni0219" unicode="&#x219;" horiz-adv-x="468" 
d="M30 0zM298 -138q0 -42 -21.5 -78.5t-53.5 -59.5l-36 28q22 14 39.5 38t20.5 46q-2 -1 -6 -1.5t-7 -0.5q-20 0 -32.5 13.5t-12.5 34.5t14.5 36t35.5 15q23 0 41 -18.5t18 -52.5zM231 -12q-61 0 -112.5 18.5t-88.5 56.5l43 66q25 -27 69 -48t93 -21q51 0 77.5 21t26.5 53
q0 17 -9.5 28.5t-25.5 20t-37.5 14t-44.5 10.5q-31 7 -62.5 16t-57 24.5t-42 40.5t-16.5 64q0 29 12 55t35.5 45.5t58 31t78.5 11.5q63 0 108 -20t76 -49l-40 -63q-21 26 -59 42.5t-84 16.5t-72.5 -19t-26.5 -48q0 -15 9 -25.5t24.5 -17.5t35.5 -12.5t43 -10.5
q31 -7 64 -16.5t59.5 -26t43.5 -42.5t17 -68q0 -31 -12.5 -58t-37.5 -47t-61 -31.5t-84 -11.5z" />
    <glyph glyph-name="uni1E61" unicode="&#x1e61;" horiz-adv-x="468" 
d="M30 0zM231 -12q-61 0 -112.5 18.5t-88.5 56.5l43 66q25 -27 69 -48t93 -21q51 0 77.5 21t26.5 53q0 17 -9.5 28.5t-25.5 20t-37.5 14t-44.5 10.5q-31 7 -62.5 16t-57 24.5t-42 40.5t-16.5 64q0 29 12 55t35.5 45.5t58 31t78.5 11.5q63 0 108 -20t76 -49l-40 -63
q-21 26 -59 42.5t-84 16.5t-72.5 -19t-26.5 -48q0 -15 9 -25.5t24.5 -17.5t35.5 -12.5t43 -10.5q31 -7 64 -16.5t59.5 -26t43.5 -42.5t17 -68q0 -31 -12.5 -58t-37.5 -47t-61 -31.5t-84 -11.5zM234 552q-22 0 -37.5 15t-15.5 38q0 21 15.5 37t37.5 16t37 -16t15 -37
q0 -23 -15 -38t-37 -15z" />
    <glyph glyph-name="germandbls" unicode="&#xdf;" horiz-adv-x="610" 
d="M592 137q0 -30 -12.5 -57.5t-36.5 -47.5t-59.5 -32t-82.5 -12q-36 0 -64 6t-50 16.5t-40.5 25t-34.5 30.5l43 63q21 -28 59.5 -48t86.5 -20q53 0 78.5 22.5t25.5 51.5q0 17 -9 28.5t-24.5 20t-36 14.5l-42.5 12q-29 7 -58.5 16t-53.5 24.5t-39.5 40t-15.5 62.5
q0 23 7.5 40.5t19.5 32t27 25.5l30 21q23 15 39 29t16 33q0 15 -8.5 27t-21.5 20t-30 12t-33 4q-46 0 -78 -27.5t-32 -77.5v-492h-90v492q0 38 14 72t40 59t63.5 39.5t84.5 14.5q36 0 69 -9t58.5 -26t40.5 -41.5t15 -55.5q0 -23 -7.5 -40t-19.5 -30.5t-26.5 -24l-29.5 -20.5
q-24 -17 -43 -33.5t-19 -41.5q0 -15 8.5 -25t23 -17t33.5 -12.5t40 -10.5q30 -7 61 -16t56.5 -25.5t41.5 -43t16 -68.5z" />
    <glyph glyph-name="longs" unicode="&#x17f;" horiz-adv-x="296" 
d="M94 0v404h-80v79h80v32q0 78 41 120t106 42q47 0 79 -18l-21 -67q-19 11 -43 11q-34 0 -53 -22t-19 -66v-515h-90z" />
    <glyph glyph-name="tbar" unicode="&#x167;" horiz-adv-x="306" 
d="M205 -12q-57 0 -86 31t-29 88v114h-80v55h80v128h-80v79h80v132h90v-132h98v-79h-98v-128h70v-55h-70v-94q0 -26 12 -42.5t35 -16.5q16 0 29 5.5t20 13.5l23 -68q-14 -14 -36.5 -22.5t-57.5 -8.5z" />
    <glyph glyph-name="tcaron" unicode="&#x165;" horiz-adv-x="332" 
d="M10 0zM348 678q0 -42 -21.5 -78.5t-53.5 -59.5l-36 28q22 14 39.5 38t20.5 46q-2 -1 -6 -1.5t-7 -0.5q-20 0 -32.5 13.5t-12.5 34.5t14.5 36t35.5 15q23 0 41 -18.5t18 -52.5zM205 -12q-57 0 -86 31t-29 88v297h-80v79h80v132h90v-132h98v-79h-98v-277q0 -26 12 -42.5
t35 -16.5q16 0 29 5.5t20 13.5l23 -68q-14 -14 -36.5 -22.5t-57.5 -8.5z" />
    <glyph glyph-name="tcommaaccent" unicode="&#x163;" horiz-adv-x="306" 
d="M186 -193q-33 0 -60.5 9.5t-42.5 21.5l20 42q19 -15 40 -22t41 -7q23 0 41 9.5t18 29.5q0 32 -36 32q-22 0 -35 -15l-38 21l25 67q-69 21 -69 112v297h-80v79h80v132h90v-132h98v-79h-98v-277q0 -26 12 -42.5t35 -16.5q16 0 29 5.5t20 13.5l23 -68q-14 -14 -36 -22.5
t-57 -8.5l-17 -42q16 11 37 11q29 0 47.5 -18.5t18.5 -49.5q0 -38 -30.5 -60t-75.5 -22z" />
    <glyph glyph-name="uni021B" unicode="&#x21b;" horiz-adv-x="306" 
d="M10 0zM214 -138q0 -42 -21.5 -78.5t-53.5 -59.5l-36 28q22 14 39.5 38t20.5 46q-2 -1 -6 -1.5t-7 -0.5q-20 0 -32.5 13.5t-12.5 34.5t14.5 36t35.5 15q23 0 41 -18.5t18 -52.5zM205 -12q-57 0 -86 31t-29 88v297h-80v79h80v132h90v-132h98v-79h-98v-277q0 -26 12 -42.5
t35 -16.5q16 0 29 5.5t20 13.5l23 -68q-14 -14 -36.5 -22.5t-57.5 -8.5z" />
    <glyph glyph-name="uni1E6B" unicode="&#x1e6b;" horiz-adv-x="306" 
d="M10 0zM205 -12q-57 0 -86 31t-29 88v297h-80v79h80v132h90v-132h98v-79h-98v-277q0 -26 12 -42.5t35 -16.5q16 0 29 5.5t20 13.5l23 -68q-14 -14 -36.5 -22.5t-57.5 -8.5zM141 719q-22 0 -37.5 15t-15.5 38q0 21 15.5 37t37.5 16t37 -16t15 -37q0 -23 -15 -38t-37 -15z
" />
    <glyph glyph-name="uacute" unicode="&#xfa;" 
d="M72 0zM286 556h-66l144 144h89zM398 0v66q-28 -30 -72 -54t-100 -24q-154 0 -154 154v341h90v-311q0 -60 27.5 -82t74.5 -22q42 0 78 20.5t56 47.5v347h90v-483h-90z" />
    <glyph glyph-name="ubreve" unicode="&#x16d;" 
d="M72 0zM398 0v66q-28 -30 -72 -54t-100 -24q-154 0 -154 154v341h90v-311q0 -60 27.5 -82t74.5 -22q42 0 78 20.5t56 47.5v347h90v-483h-90zM455 624q-30 -41 -75.5 -64.5t-99.5 -23.5t-99.5 23.5t-76.5 64.5l43 36q23 -32 56.5 -50.5t76.5 -18.5q42 0 76 18.5t57 50.5
l42 -36v0z" />
    <glyph glyph-name="ucircumflex" unicode="&#xfb;" 
d="M72 0zM358 556l-80 101l-78 -101h-58l94 144h84l97 -144h-59zM398 0v66q-28 -30 -72 -54t-100 -24q-154 0 -154 154v341h90v-311q0 -60 27.5 -82t74.5 -22q42 0 78 20.5t56 47.5v347h90v-483h-90z" />
    <glyph glyph-name="udieresis" unicode="&#xfc;" 
d="M72 0zM436 606q0 -22 -15.5 -37.5t-37.5 -15.5t-37.5 15.5t-15.5 37.5t15.5 37t37.5 15t37.5 -15t15.5 -37zM227 606q0 -22 -15 -37.5t-37 -15.5t-37 15.5t-15 37.5t15 37t37 15t37 -15t15 -37zM398 0v66q-28 -30 -72 -54t-100 -24q-154 0 -154 154v341h90v-311
q0 -60 27.5 -82t74.5 -22q42 0 78 20.5t56 47.5v347h90v-483h-90z" />
    <glyph glyph-name="ugrave" unicode="&#xf9;" 
d="M72 0zM398 0v66q-28 -30 -72 -54t-100 -24q-154 0 -154 154v341h90v-311q0 -60 27.5 -82t74.5 -22q42 0 78 20.5t56 47.5v347h90v-483h-90zM272 556l-167 144h89l144 -144h-66z" />
    <glyph glyph-name="uhungarumlaut" unicode="&#x171;" 
d="M72 0zM398 0v66q-28 -30 -72 -54t-100 -24q-154 0 -154 154v341h90v-311q0 -60 27.5 -82t74.5 -22q42 0 78 20.5t56 47.5v347h90v-483h-90zM222 556h-56l92 144h79zM366 556h-56l92 144h79z" />
    <glyph glyph-name="umacron" unicode="&#x16b;" 
d="M72 0zM398 0v66q-28 -30 -72 -54t-100 -24q-154 0 -154 154v341h90v-311q0 -60 27.5 -82t74.5 -22q42 0 78 20.5t56 47.5v347h90v-483h-90zM97 569v55h363v-55h-363z" />
    <glyph glyph-name="uogonek" unicode="&#x173;" 
d="M488 0q-45 -18 -68.5 -40t-23.5 -49q0 -17 11 -26t27 -9q8 0 16 1.5t16 6.5l22 -53q-28 -17 -74 -17q-20 0 -38.5 4.5t-32.5 14t-22.5 24t-8.5 33.5q0 18 9 35t24.5 31t35 25t40.5 19h-23v66q-28 -30 -72 -54t-100 -24q-154 0 -154 154v341h90v-311q0 -60 27.5 -82
t74.5 -22q42 0 78 20.5t56 47.5v347h90v-483v0z" />
    <glyph glyph-name="uring" unicode="&#x16f;" 
d="M72 0zM280 539q-21 0 -39 8t-31.5 22t-21.5 32t-8 39t8 39t21.5 32t31.5 22t39 8t39 -8t31.5 -22t21 -32t7.5 -39t-7.5 -39t-21 -32t-31.5 -22t-39 -8zM280 584q23 0 39 16.5t16 39.5t-16 39t-39 16t-39 -16t-16 -39t16 -39.5t39 -16.5zM398 0v66q-28 -30 -72 -54
t-100 -24q-154 0 -154 154v341h90v-311q0 -60 27.5 -82t74.5 -22q42 0 78 20.5t56 47.5v347h90v-483h-90z" />
    <glyph glyph-name="utilde" unicode="&#x169;" 
d="M72 0zM398 0v66q-28 -30 -72 -54t-100 -24q-154 0 -154 154v341h90v-311q0 -60 27.5 -82t74.5 -22q42 0 78 20.5t56 47.5v347h90v-483h-90zM338 554q-30 0 -46.5 16t-29.5 33q-10 14 -20 25t-25 11q-19 0 -32 -18.5t-13 -60.5h-51q0 60 25.5 97t74.5 37q29 0 45.5 -16
t29.5 -33q11 -14 21 -25t25 -11q19 0 31.5 18.5t12.5 60.5h52q0 -60 -25.5 -97t-74.5 -37z" />
    <glyph glyph-name="uni1EE5" unicode="&#x1ee5;" 
d="M72 0zM398 0v66q-28 -30 -72 -54t-100 -24q-154 0 -154 154v341h90v-311q0 -60 27.5 -82t74.5 -22q42 0 78 20.5t56 47.5v347h90v-483h-90zM281 -186q-22 0 -37.5 15t-15.5 38q0 21 15.5 37t37.5 16t37 -16t15 -37q0 -23 -15 -38t-37 -15z" />
    <glyph glyph-name="uhorn" unicode="&#x1b0;" 
d="M398 0v66q-28 -30 -72 -54t-100 -24q-154 0 -154 154v341h90v-311q0 -60 27.5 -82t74.5 -22q42 0 78 20.5t56 47.5v347h90v-40q17 14 29 33.5t14 39.5q-1 -1 -5 -1.5t-6 -0.5q-19 0 -31 12t-12 32q0 19 13.5 32.5t33.5 13.5q22 0 38 -16.5t16 -48.5q0 -42 -24 -80
t-66 -63v-396h-90z" />
    <glyph glyph-name="uni1EE7" unicode="&#x1ee7;" 
d="M72 0zM398 0v66q-28 -30 -72 -54t-100 -24q-154 0 -154 154v341h90v-311q0 -60 27.5 -82t74.5 -22q42 0 78 20.5t56 47.5v347h90v-483h-90zM205 596q8 24 27 39.5t48 15.5t51.5 -16.5t22.5 -53.5q0 -16 -4.5 -28t-13.5 -25h-44q12 13 17 25.5t5 25.5q0 19 -9.5 28
t-24.5 9q-28 0 -39 -31z" />
    <glyph glyph-name="uni1EE9" unicode="&#x1ee9;" 
d="M72 0zM286 556h-66l144 144h89zM398 0v66q-28 -30 -72 -54t-100 -24q-154 0 -154 154v341h90v-311q0 -60 27.5 -82t74.5 -22q42 0 78 20.5t56 47.5v347h90v-40q17 14 29 33.5t14 39.5q-1 -1 -5 -1.5t-6 -0.5q-19 0 -31 12t-12 32q0 19 13.5 32.5t33.5 13.5q22 0 38 -16.5
t16 -48.5q0 -42 -24 -80t-66 -63v-396h-90z" />
    <glyph glyph-name="uni1EEB" unicode="&#x1eeb;" 
d="M72 0zM272 556l-167 144h89l144 -144h-66zM398 0v66q-28 -30 -72 -54t-100 -24q-154 0 -154 154v341h90v-311q0 -60 27.5 -82t74.5 -22q42 0 78 20.5t56 47.5v347h90v-40q17 14 29 33.5t14 39.5q-1 -1 -5 -1.5t-6 -0.5q-19 0 -31 12t-12 32q0 19 13.5 32.5t33.5 13.5
q22 0 38 -16.5t16 -48.5q0 -42 -24 -80t-66 -63v-396h-90z" />
    <glyph glyph-name="uni1EED" unicode="&#x1eed;" 
d="M72 0zM205 596q8 24 27 39.5t48 15.5t51.5 -16.5t22.5 -53.5q0 -16 -4.5 -28t-13.5 -25h-44q12 13 17 25.5t5 25.5q0 19 -9.5 28t-24.5 9q-28 0 -39 -31zM398 0v66q-28 -30 -72 -54t-100 -24q-154 0 -154 154v341h90v-311q0 -60 27.5 -82t74.5 -22q42 0 78 20.5t56 47.5
v347h90v-40q17 14 29 33.5t14 39.5q-1 -1 -5 -1.5t-6 -0.5q-19 0 -31 12t-12 32q0 19 13.5 32.5t33.5 13.5q22 0 38 -16.5t16 -48.5q0 -42 -24 -80t-66 -63v-396h-90z" />
    <glyph glyph-name="uni1EEF" unicode="&#x1eef;" 
d="M72 0zM398 0v66q-28 -30 -72 -54t-100 -24q-154 0 -154 154v341h90v-311q0 -60 27.5 -82t74.5 -22q42 0 78 20.5t56 47.5v347h90v-40q17 14 29 33.5t14 39.5q-1 -1 -5 -1.5t-6 -0.5q-19 0 -31 12t-12 32q0 19 13.5 32.5t33.5 13.5q22 0 38 -16.5t16 -48.5q0 -42 -24 -80
t-66 -63v-396h-90zM338 554q-30 0 -46.5 16t-29.5 33q-10 14 -20 25t-25 11q-19 0 -32 -18.5t-13 -60.5h-51q0 60 25.5 97t74.5 37q29 0 45.5 -16t29.5 -33q11 -14 21 -25t25 -11q19 0 31.5 18.5t12.5 60.5h52q0 -60 -25.5 -97t-74.5 -37z" />
    <glyph glyph-name="uni1EF1" unicode="&#x1ef1;" 
d="M72 0zM281 -186q-22 0 -37.5 15t-15.5 38q0 21 15.5 37t37.5 16t37 -16t15 -37q0 -23 -15 -38t-37 -15zM398 0v66q-28 -30 -72 -54t-100 -24q-154 0 -154 154v341h90v-311q0 -60 27.5 -82t74.5 -22q42 0 78 20.5t56 47.5v347h90v-40q17 14 29 33.5t14 39.5q-1 -1 -5 -1.5
t-6 -0.5q-19 0 -31 12t-12 32q0 19 13.5 32.5t33.5 13.5q22 0 38 -16.5t16 -48.5q0 -42 -24 -80t-66 -63v-396h-90z" />
    <glyph glyph-name="wacute" unicode="&#x1e83;" horiz-adv-x="744" 
d="M8 0zM379 556h-66l144 144h89zM491 0l-119 371l-119 -371h-93l-152 483h94l110 -368l121 368h78l121 -368l110 368h94l-152 -483h-93z" />
    <glyph glyph-name="wcircumflex" unicode="&#x175;" horiz-adv-x="744" 
d="M8 0zM451 556l-80 101l-78 -101h-58l94 144h84l97 -144h-59zM491 0l-119 371l-119 -371h-93l-152 483h94l110 -368l121 368h78l121 -368l110 368h94l-152 -483h-93z" />
    <glyph glyph-name="wdieresis" unicode="&#x1e85;" horiz-adv-x="744" 
d="M8 0zM528 606q0 -22 -15.5 -37.5t-37.5 -15.5t-37.5 15.5t-15.5 37.5t15.5 37t37.5 15t37.5 -15t15.5 -37zM319 606q0 -22 -15 -37.5t-37 -15.5t-37 15.5t-15 37.5t15 37t37 15t37 -15t15 -37zM491 0l-119 371l-119 -371h-93l-152 483h94l110 -368l121 368h78l121 -368
l110 368h94l-152 -483h-93z" />
    <glyph glyph-name="wgrave" unicode="&#x1e81;" horiz-adv-x="744" 
d="M8 0zM491 0l-119 371l-119 -371h-93l-152 483h94l110 -368l121 368h78l121 -368l110 368h94l-152 -483h-93zM365 556l-167 144h89l144 -144h-66z" />
    <glyph glyph-name="yacute" unicode="&#xfd;" horiz-adv-x="497" 
d="M1 0zM62 -108q8 -4 19.5 -6t20.5 -2q25 0 42 10t28 37l28 64l-199 488h96l151 -379l151 379h97l-238 -575q-23 -57 -62 -80t-92 -24q-11 0 -28 2t-28 5zM255 556h-66l144 144h89z" />
    <glyph glyph-name="ycircumflex" unicode="&#x177;" horiz-adv-x="497" 
d="M1 0zM62 -108q8 -4 19.5 -6t20.5 -2q25 0 42 10t28 37l28 64l-199 488h96l151 -379l151 379h97l-238 -575q-23 -57 -62 -80t-92 -24q-11 0 -28 2t-28 5zM327 556l-80 101l-78 -101h-58l94 144h84l97 -144h-59z" />
    <glyph glyph-name="ydieresis" unicode="&#xff;" horiz-adv-x="497" 
d="M1 0zM62 -108q8 -4 19.5 -6t20.5 -2q25 0 42 10t28 37l28 64l-199 488h96l151 -379l151 379h97l-238 -575q-23 -57 -62 -80t-92 -24q-11 0 -28 2t-28 5zM405 606q0 -22 -15.5 -37.5t-37.5 -15.5t-37.5 15.5t-15.5 37.5t15.5 37t37.5 15t37.5 -15t15.5 -37zM196 606
q0 -22 -15 -37.5t-37 -15.5t-37 15.5t-15 37.5t15 37t37 15t37 -15t15 -37z" />
    <glyph glyph-name="ygrave" unicode="&#x1ef3;" horiz-adv-x="497" 
d="M1 0zM62 -108q8 -4 19.5 -6t20.5 -2q25 0 42 10t28 37l28 64l-199 488h96l151 -379l151 379h97l-238 -575q-23 -57 -62 -80t-92 -24q-11 0 -28 2t-28 5zM241 556l-167 144h89l144 -144h-66z" />
    <glyph glyph-name="yacute.alt1" 
d="M66 0zM286 556h-66l144 144h89zM256 -196q-61 0 -106.5 17.5t-83.5 54.5l43 66q28 -34 66.5 -49t80.5 -15q67 0 104.5 36.5t37.5 103.5v61q-28 -31 -72 -54.5t-100 -23.5q-154 0 -154 153v329h90v-298q0 -60 27.5 -82t74.5 -22q42 0 78 20.5t56 47.5v334h90v-465
q0 -54 -18 -94t-49.5 -67t-74 -40t-90.5 -13z" />
    <glyph glyph-name="ycircumflex.alt1" 
d="M66 0zM359 556l-80 101l-78 -101h-58l94 144h84l97 -144h-59zM256 -196q-61 0 -106.5 17.5t-83.5 54.5l43 66q28 -34 66.5 -49t80.5 -15q67 0 104.5 36.5t37.5 103.5v61q-28 -31 -72 -54.5t-100 -23.5q-154 0 -154 153v329h90v-298q0 -60 27.5 -82t74.5 -22q42 0 78 20.5
t56 47.5v334h90v-465q0 -54 -18 -94t-49.5 -67t-74 -40t-90.5 -13z" />
    <glyph glyph-name="ydieresis.alt1" 
d="M66 0zM436 606q0 -22 -15.5 -37.5t-37.5 -15.5t-37.5 15.5t-15.5 37.5t15.5 37t37.5 15t37.5 -15t15.5 -37zM227 606q0 -22 -15 -37.5t-37 -15.5t-37 15.5t-15 37.5t15 37t37 15t37 -15t15 -37zM256 -196q-61 0 -106.5 17.5t-83.5 54.5l43 66q28 -34 66.5 -49t80.5 -15
q67 0 104.5 36.5t37.5 103.5v61q-28 -31 -72 -54.5t-100 -23.5q-154 0 -154 153v329h90v-298q0 -60 27.5 -82t74.5 -22q42 0 78 20.5t56 47.5v334h90v-465q0 -54 -18 -94t-49.5 -67t-74 -40t-90.5 -13z" />
    <glyph glyph-name="ygrave.alt1" 
d="M66 0zM256 -196q-61 0 -106.5 17.5t-83.5 54.5l43 66q28 -34 66.5 -49t80.5 -15q67 0 104.5 36.5t37.5 103.5v61q-28 -31 -72 -54.5t-100 -23.5q-154 0 -154 153v329h90v-298q0 -60 27.5 -82t74.5 -22q42 0 78 20.5t56 47.5v334h90v-465q0 -54 -18 -94t-49.5 -67t-74 -40
t-90.5 -13zM272 556l-167 144h89l144 -144h-66z" />
    <glyph glyph-name="zacute" unicode="&#x17a;" horiz-adv-x="474" 
d="M49 0zM243 556h-66l144 144h89zM49 0v69l252 335h-252v79h371v-67l-254 -338h258v-78h-375z" />
    <glyph glyph-name="zcaron" unicode="&#x17e;" horiz-adv-x="474" 
d="M49 0zM192 556l-97 144h58l81 -102l77 102h59l-94 -144h-84zM49 0v69l252 335h-252v79h371v-67l-254 -338h258v-78h-375z" />
    <glyph glyph-name="zdotaccent" unicode="&#x17c;" horiz-adv-x="474" 
d="M49 0zM49 0v69l252 335h-252v79h371v-67l-254 -338h258v-78h-375zM235 552q-22 0 -37.5 15t-15.5 38q0 21 15.5 37t37.5 16t37 -16t15 -37q0 -23 -15 -38t-37 -15z" />
    <glyph glyph-name="eth" unicode="&#xf0;" horiz-adv-x="572" 
d="M97 536l115 50l-36 23l-36 22l50 74q30 -18 59 -37.5t56 -40.5l106 47l20 -46l-82 -36q40 -35 73.5 -73.5t57.5 -81.5t37 -90t13 -99q0 -56 -17 -104t-48.5 -82.5t-76.5 -54t-102 -19.5q-55 0 -100 18.5t-77 51t-49.5 77t-17.5 96.5t16.5 96.5t45.5 76.5t69 50.5t88 18.5
t87 -21t71 -68q-26 48 -67 90t-92 79l-144 -64zM286 68q36 0 64 13t47 35.5t29 52t10 62.5q0 32 -10 61.5t-29 52t-47 36t-64 13.5t-64 -13.5t-47 -36t-29 -52t-10 -61.5q0 -33 10 -62.5t29 -52t47 -35.5t64 -13z" />
    <glyph glyph-name="thorn" unicode="&#xfe;" horiz-adv-x="575" 
d="M320 -12q-48 0 -88.5 21t-69.5 61v-254h-90v851h90v-253q26 36 67.5 58.5t90.5 22.5q47 0 86.5 -17.5t68 -50t44.5 -79.5t16 -106t-16 -106t-44.5 -80t-68 -50.5t-86.5 -17.5zM296 68q34 0 60.5 13t45.5 36t29 55t10 70q0 37 -10 69t-29 55t-45.5 36t-60.5 13
q-41 0 -78.5 -21t-55.5 -50v-205q18 -29 55 -50t79 -21z" />
    <glyph glyph-name="Aacute.smcp" horiz-adv-x="579" 
d="M3 0zM297 606h-66l144 144h89zM346 550l230 -550h-105l-47 112h-269l-46 -112h-106l230 550h113zM290 453l-107 -260h213z" />
    <glyph glyph-name="Abreve.smcp" horiz-adv-x="579" 
d="M3 0zM346 550l230 -550h-105l-47 112h-269l-46 -112h-106l230 550h113zM290 453l-107 -260h213zM466 674q-30 -41 -75.5 -64.5t-99.5 -23.5t-99.5 23.5t-76.5 64.5l43 36q23 -32 56.5 -50.5t76.5 -18.5q42 0 76 18.5t57 50.5l42 -36v0z" />
    <glyph glyph-name="Acircumflex.smcp" horiz-adv-x="579" 
d="M3 0zM370 606l-80 101l-78 -101h-58l94 144h84l97 -144h-59zM346 550l230 -550h-105l-47 112h-269l-46 -112h-106l230 550h113zM290 453l-107 -260h213z" />
    <glyph glyph-name="Adieresis.smcp" horiz-adv-x="579" 
d="M3 0zM447 664q0 -22 -15.5 -37.5t-37.5 -15.5t-37.5 15.5t-15.5 37.5t15.5 37t37.5 15t37.5 -15t15.5 -37zM238 664q0 -22 -15 -37.5t-37 -15.5t-37 15.5t-15 37.5t15 37t37 15t37 -15t15 -37zM346 550l230 -550h-105l-47 112h-269l-46 -112h-106l230 550h113zM290 453
l-107 -260h213z" />
    <glyph glyph-name="Agrave.smcp" horiz-adv-x="579" 
d="M3 0zM346 550l230 -550h-105l-47 112h-269l-46 -112h-106l230 550h113zM290 453l-107 -260h213zM283 606l-167 144h89l144 -144h-66z" />
    <glyph glyph-name="Amacron.smcp" horiz-adv-x="579" 
d="M3 0zM109 619v55h363v-55h-363zM346 550l230 -550h-105l-47 112h-269l-46 -112h-106l230 550h113zM290 453l-107 -260h213z" />
    <glyph glyph-name="Aogonek.smcp" horiz-adv-x="579" 
d="M346 550l230 -550h-16q-45 -18 -68.5 -40t-23.5 -49q0 -17 11 -26t27 -9q8 0 16 1.5t16 6.5l22 -53q-28 -17 -74 -17q-20 0 -38.5 4.5t-32.5 14t-22.5 24t-8.5 33.5q0 18 9 35t24.5 31t35 25t40.5 19h-22l-47 112h-269l-46 -112h-106l230 550h113zM290 453l-107 -260h213
z" />
    <glyph glyph-name="Aring.smcp" horiz-adv-x="579" 
d="M3 0zM290 572q-21 0 -39 8t-31.5 22t-21.5 32t-8 39t8 39t21.5 32t31.5 22t39 8t39 -8t31.5 -22t21 -32t7.5 -39t-7.5 -39t-21 -32t-31.5 -22t-39 -8zM290 617q23 0 39 16.5t16 39.5t-16 39t-39 16t-39 -16t-16 -39t16 -39.5t39 -16.5zM346 550l230 -550h-105l-47 112
h-269l-46 -112h-106l230 550h113zM290 453l-107 -260h213z" />
    <glyph glyph-name="Atilde.smcp" horiz-adv-x="579" 
d="M3 0zM346 550l230 -550h-105l-47 112h-269l-46 -112h-106l230 550h113zM290 453l-107 -260h213zM349 604q-30 0 -46.5 16t-29.5 33q-10 14 -20 25t-25 11q-19 0 -32 -18.5t-13 -60.5h-51q0 60 25.5 97t74.5 37q29 0 45.5 -16t29.5 -33q11 -14 21 -25t25 -11
q19 0 31.5 18.5t12.5 60.5h52q0 -60 -25.5 -97t-74.5 -37z" />
    <glyph glyph-name="uni1EA0.smcp" horiz-adv-x="579" 
d="M3 0zM346 550l230 -550h-105l-47 112h-269l-46 -112h-106l230 550h113zM290 453l-107 -260h213zM290 -186q-22 0 -37.5 15t-15.5 38q0 21 15.5 37t37.5 16t37 -16t15 -37q0 -23 -15 -38t-37 -15z" />
    <glyph glyph-name="uni1EA2.smcp" horiz-adv-x="579" 
d="M3 0zM346 550l230 -550h-105l-47 112h-269l-46 -112h-106l230 550h113zM290 453l-107 -260h213zM215 649q8 24 27 39.5t48 15.5t51.5 -16.5t22.5 -53.5q0 -16 -4.5 -28t-13.5 -25h-44q12 13 17 25.5t5 25.5q0 19 -9.5 28t-24.5 9q-28 0 -39 -31z" />
    <glyph glyph-name="uni1EA4.smcp" horiz-adv-x="579" 
d="M3 0zM370 606l-80 101l-78 -101h-58l94 144h84l97 -144h-59zM454 676h-66l144 144h89zM346 550l230 -550h-105l-47 112h-269l-46 -112h-106l230 550h113zM290 453l-107 -260h213z" />
    <glyph glyph-name="uni1EAC.smcp" horiz-adv-x="579" 
d="M3 0zM369 606l-80 101l-78 -101h-58l94 144h84l97 -144h-59zM346 550l230 -550h-105l-47 112h-269l-46 -112h-106l230 550h113zM290 453l-107 -260h213zM289 -186q-22 0 -37.5 15t-15.5 38q0 21 15.5 37t37.5 16t37 -16t15 -37q0 -23 -15 -38t-37 -15z" />
    <glyph glyph-name="uni1EA6.smcp" horiz-adv-x="579" 
d="M0 0zM370 606l-80 101l-78 -101h-58l94 144h84l97 -144h-59zM346 550l230 -550h-105l-47 112h-269l-46 -112h-106l230 550h113zM290 453l-107 -260h213zM125 676l-167 144h89l144 -144h-66z" />
    <glyph glyph-name="uni1EA8.smcp" horiz-adv-x="579" 
d="M3 0zM369 606l-80 101l-78 -101h-58l94 144h84l97 -144h-59zM346 550l230 -550h-105l-47 112h-269l-46 -112h-106l230 550h113zM290 453l-107 -260h213zM309 785q8 24 27 39.5t48 15.5t51.5 -16.5t22.5 -53.5q0 -16 -4.5 -28t-13.5 -25h-44q12 13 17 25.5t5 25.5
q0 19 -9.5 28t-24.5 9q-28 0 -39 -31z" />
    <glyph glyph-name="uni1EAE.smcp" horiz-adv-x="579" 
d="M3 0zM300 680h-66l144 144h89zM346 550l230 -550h-105l-47 112h-269l-46 -112h-106l230 550h113zM290 453l-107 -260h213zM466 664q-30 -41 -75.5 -64.5t-99.5 -23.5t-99.5 23.5t-76.5 64.5l43 36q23 -32 56.5 -50.5t76.5 -18.5q42 0 76 18.5t57 50.5l42 -36v0z" />
    <glyph glyph-name="uni1EAA.smcp" horiz-adv-x="579" 
d="M3 0zM369 573l-80 101l-78 -101h-58l94 144h84l97 -144h-59zM346 550l230 -550h-105l-47 112h-269l-46 -112h-106l230 550h113zM290 453l-107 -260h213zM349 732q-30 0 -46.5 16t-29.5 33q-10 14 -20 25t-25 11q-19 0 -32 -18.5t-13 -60.5h-51q0 60 25.5 97t74.5 37
q29 0 45.5 -16t29.5 -33q11 -14 21 -25t25 -11q19 0 31.5 18.5t12.5 60.5h52q0 -60 -25.5 -97t-74.5 -37z" />
    <glyph glyph-name="uni1EB0.smcp" horiz-adv-x="579" 
d="M3 0zM346 550l230 -550h-105l-47 112h-269l-46 -112h-106l230 550h113zM290 453l-107 -260h213zM282 680l-167 144h89l144 -144h-66zM466 664q-30 -41 -75.5 -64.5t-99.5 -23.5t-99.5 23.5t-76.5 64.5l43 36q23 -32 56.5 -50.5t76.5 -18.5q42 0 76 18.5t57 50.5l42 -36v0
z" />
    <glyph glyph-name="uni1EB2.smcp" horiz-adv-x="579" 
d="M3 0zM346 550l230 -550h-105l-47 112h-269l-46 -112h-106l230 550h113zM290 453l-107 -260h213zM216 748q8 24 27 39.5t48 15.5t51.5 -16.5t22.5 -53.5q0 -16 -4.5 -28t-13.5 -25h-44q12 13 17 25.5t5 25.5q0 19 -9.5 28t-24.5 9q-28 0 -39 -31zM467 664
q-30 -41 -75.5 -64.5t-99.5 -23.5t-99.5 23.5t-76.5 64.5l43 36q23 -32 56.5 -50.5t76.5 -18.5q42 0 76 18.5t57 50.5l42 -36v0z" />
    <glyph glyph-name="uni1EB4.smcp" horiz-adv-x="579" 
d="M3 0zM467 664q-30 -41 -75.5 -64.5t-99.5 -23.5t-99.5 23.5t-76.5 64.5l43 36q23 -32 56.5 -50.5t76.5 -18.5q42 0 76 18.5t57 50.5l42 -36v0zM346 550l230 -550h-105l-47 112h-269l-46 -112h-106l230 550h113zM290 453l-107 -260h213zM349 711q-30 0 -46.5 16t-29.5 33
q-10 14 -20 25t-25 11q-19 0 -32 -18.5t-13 -60.5h-51q0 60 25.5 97t74.5 37q29 0 45.5 -16t29.5 -33q11 -14 21 -25t25 -11q19 0 31.5 18.5t12.5 60.5h52q0 -60 -25.5 -97t-74.5 -37z" />
    <glyph glyph-name="uni1EB6.smcp" horiz-adv-x="579" 
d="M3 0zM346 550l230 -550h-105l-47 112h-269l-46 -112h-106l230 550h113zM290 453l-107 -260h213zM290 -186q-22 0 -37.5 15t-15.5 38q0 21 15.5 37t37.5 16t37 -16t15 -37q0 -23 -15 -38t-37 -15zM466 674q-30 -41 -75.5 -64.5t-99.5 -23.5t-99.5 23.5t-76.5 64.5l43 36
q23 -32 56.5 -50.5t76.5 -18.5q42 0 76 18.5t57 50.5l42 -36v0z" />
    <glyph glyph-name="AE.smcp" horiz-adv-x="828" 
d="M387 0v112h-209l-70 -112h-105l348 550h428v-82h-299v-146h293v-82h-293v-158h299v-82h-392zM387 453l-163 -260h163v260z" />
    <glyph glyph-name="AEacute.smcp" horiz-adv-x="828" 
d="M3 0zM441 606h-66l144 144h89zM387 0v112h-209l-70 -112h-105l348 550h428v-82h-299v-146h293v-82h-293v-158h299v-82h-392zM387 453l-163 -260h163v260z" />
    <glyph glyph-name="uni1E02.smcp" horiz-adv-x="563" 
d="M72 0zM72 0v550h272q79 0 122 -40t43 -101q0 -50 -28 -82t-66 -43q22 -5 41.5 -18t34 -31t22.5 -40t8 -46q0 -33 -11.5 -60t-33 -47t-53.5 -31t-72 -11h-279zM336 82q42 0 65.5 21t23.5 57q0 32 -23 56t-66 24h-171v-158h171zM331 322q40 0 61.5 20.5t21.5 52.5t-22 52.5
t-61 20.5h-166v-146h166zM289 602q-22 0 -37.5 15t-15.5 38q0 21 15.5 37t37.5 16t37 -16t15 -37q0 -23 -15 -38t-37 -15z" />
    <glyph glyph-name="Cacute.smcp" horiz-adv-x="583" 
d="M42 0zM345 606h-66l144 144h89zM338 -12q-63 0 -117 21t-94 59t-62.5 91t-22.5 116q0 64 22.5 116.5t62.5 90.5t94 59t117 21q78 0 133.5 -34.5t90.5 -86.5l-76 -40q-23 35 -62 56.5t-86 21.5q-43 0 -79.5 -15t-63.5 -42t-42 -64.5t-15 -82.5q0 -44 15 -81.5t42 -64.5
t63.5 -42.5t79.5 -15.5q47 0 86.5 21t61.5 56l76 -39q-35 -53 -90.5 -87t-133.5 -34z" />
    <glyph glyph-name="Ccaron.smcp" horiz-adv-x="583" 
d="M42 0zM300 606l-97 144h58l81 -102l77 102h59l-94 -144h-84zM338 -12q-63 0 -117 21t-94 59t-62.5 91t-22.5 116q0 64 22.5 116.5t62.5 90.5t94 59t117 21q78 0 133.5 -34.5t90.5 -86.5l-76 -40q-23 35 -62 56.5t-86 21.5q-43 0 -79.5 -15t-63.5 -42t-42 -64.5t-15 -82.5
q0 -44 15 -81.5t42 -64.5t63.5 -42.5t79.5 -15.5q47 0 86.5 21t61.5 56l76 -39q-35 -53 -90.5 -87t-133.5 -34z" />
    <glyph glyph-name="Ccedilla.smcp" horiz-adv-x="583" 
d="M337 -193q-33 0 -60.5 9.5t-42.5 21.5l20 42q19 -15 40 -22t41 -7q23 0 41 9.5t18 29.5q0 32 -36 32q-22 0 -35 -15l-38 21l23 62q-57 4 -106 27t-84.5 60.5t-55.5 87.5t-20 110q0 64 22.5 116.5t62.5 90.5t94 59t117 21q78 0 133.5 -34.5t90.5 -86.5l-76 -40
q-23 35 -62 56.5t-86 21.5q-43 0 -79.5 -15t-63.5 -42t-42 -64.5t-15 -82.5q0 -44 15 -81.5t42 -64.5t63.5 -42.5t79.5 -15.5q47 0 86.5 21t61.5 56l76 -39q-32 -50 -83 -82.5t-122 -37.5l-17 -43q16 11 37 11q29 0 47.5 -18.5t18.5 -49.5q0 -38 -30.5 -60t-75.5 -22z" />
    <glyph glyph-name="Ccircumflex.smcp" horiz-adv-x="583" 
d="M42 0zM419 606l-80 101l-78 -101h-58l94 144h84l97 -144h-59zM338 -12q-63 0 -117 21t-94 59t-62.5 91t-22.5 116q0 64 22.5 116.5t62.5 90.5t94 59t117 21q78 0 133.5 -34.5t90.5 -86.5l-76 -40q-23 35 -62 56.5t-86 21.5q-43 0 -79.5 -15t-63.5 -42t-42 -64.5
t-15 -82.5q0 -44 15 -81.5t42 -64.5t63.5 -42.5t79.5 -15.5q47 0 86.5 21t61.5 56l76 -39q-35 -53 -90.5 -87t-133.5 -34z" />
    <glyph glyph-name="Cdotaccent.smcp" horiz-adv-x="583" 
d="M42 0zM338 -12q-63 0 -117 21t-94 59t-62.5 91t-22.5 116q0 64 22.5 116.5t62.5 90.5t94 59t117 21q78 0 133.5 -34.5t90.5 -86.5l-76 -40q-23 35 -62 56.5t-86 21.5q-43 0 -79.5 -15t-63.5 -42t-42 -64.5t-15 -82.5q0 -44 15 -81.5t42 -64.5t63.5 -42.5t79.5 -15.5
q47 0 86.5 21t61.5 56l76 -39q-35 -53 -90.5 -87t-133.5 -34zM340 602q-22 0 -37.5 15t-15.5 38q0 21 15.5 37t37.5 16t37 -16t15 -37q0 -23 -15 -38t-37 -15z" />
    <glyph glyph-name="Dcaron.smcp" horiz-adv-x="618" 
d="M61 0zM259 606l-97 144h58l81 -102l77 102h59l-94 -144h-84zM61 0v550h208q68 0 122.5 -21t93 -57.5t59.5 -87t21 -110.5q0 -59 -21 -109.5t-59.5 -87t-93 -57t-122.5 -20.5h-208zM269 82q48 0 85.5 15t62.5 41t38 61t13 75t-12.5 75.5t-37 61.5t-62 41.5t-87.5 15.5
h-115v-386h115z" />
    <glyph glyph-name="Dcroat.smcp" horiz-adv-x="628" 
d="M71 0v246h-61v62h61v242h208q68 0 122.5 -21t93 -57.5t59.5 -87t21 -110.5q0 -59 -21 -109.5t-59.5 -87t-93 -57t-122.5 -20.5h-208zM279 82q48 0 85.5 15t62.5 41t38 61t13 75t-12.5 75.5t-37 61.5t-62 41.5t-87.5 15.5h-115v-160h128v-62h-128v-164h115z" />
    <glyph glyph-name="uni1E0A.smcp" horiz-adv-x="618" 
d="M72 0zM72 0v550h208q68 0 122.5 -21t93 -57.5t59.5 -87t21 -110.5q0 -59 -21 -109.5t-59.5 -87t-93 -57t-122.5 -20.5h-208zM280 82q48 0 85.5 15t62.5 41t38 61t13 75t-12.5 75.5t-37 61.5t-62 41.5t-87.5 15.5h-115v-386h115zM304 602q-22 0 -37.5 15t-15.5 38
q0 21 15.5 37t37.5 16t37 -16t15 -37q0 -23 -15 -38t-37 -15z" />
    <glyph glyph-name="Eacute.smcp" horiz-adv-x="512" 
d="M72 0zM274 606h-66l144 144h89zM72 0v550h391v-82h-298v-146h292v-82h-292v-158h298v-82h-391z" />
    <glyph glyph-name="Ebreve.smcp" horiz-adv-x="512" 
d="M72 0zM72 0v550h391v-82h-298v-146h292v-82h-292v-158h298v-82h-391zM442 674q-30 -41 -75.5 -64.5t-99.5 -23.5t-99.5 23.5t-76.5 64.5l43 36q23 -32 56.5 -50.5t76.5 -18.5q42 0 76 18.5t57 50.5l42 -36v0z" />
    <glyph glyph-name="Ecaron.smcp" horiz-adv-x="512" 
d="M72 0zM227 606l-97 144h58l81 -102l77 102h59l-94 -144h-84zM72 0v550h391v-82h-298v-146h292v-82h-292v-158h298v-82h-391z" />
    <glyph glyph-name="Ecircumflex.smcp" horiz-adv-x="512" 
d="M72 0zM347 606l-80 101l-78 -101h-58l94 144h84l97 -144h-59zM72 0v550h391v-82h-298v-146h292v-82h-292v-158h298v-82h-391z" />
    <glyph glyph-name="Edieresis.smcp" horiz-adv-x="512" 
d="M72 0zM424 656q0 -22 -15.5 -37.5t-37.5 -15.5t-37.5 15.5t-15.5 37.5t15.5 37t37.5 15t37.5 -15t15.5 -37zM215 656q0 -22 -15 -37.5t-37 -15.5t-37 15.5t-15 37.5t15 37t37 15t37 -15t15 -37zM72 0v550h391v-82h-298v-146h292v-82h-292v-158h298v-82h-391z" />
    <glyph glyph-name="Edotaccent.smcp" horiz-adv-x="512" 
d="M72 0zM72 0v550h391v-82h-298v-146h292v-82h-292v-158h298v-82h-391zM269 602q-22 0 -37.5 15t-15.5 38q0 21 15.5 37t37.5 16t37 -16t15 -37q0 -23 -15 -38t-37 -15z" />
    <glyph glyph-name="Egrave.smcp" horiz-adv-x="512" 
d="M72 0zM72 0v550h391v-82h-298v-146h292v-82h-292v-158h298v-82h-391zM260 606l-167 144h89l144 -144h-66z" />
    <glyph glyph-name="Emacron.smcp" horiz-adv-x="512" 
d="M72 0zM72 0v550h391v-82h-298v-146h292v-82h-292v-158h298v-82h-391zM85 619v55h363v-55h-363z" />
    <glyph glyph-name="Eogonek.smcp" horiz-adv-x="512" 
d="M464 -169q-28 -17 -74 -17q-20 0 -38.5 4.5t-32.5 14t-22.5 24t-8.5 33.5q0 18 9 35t24.5 31t35 25t40.5 19h-325v550h391v-82h-298v-146h292v-82h-292v-158h298v-82h1q-45 -18 -68.5 -40t-23.5 -49q0 -17 11 -26t27 -9q8 0 16 1.5t16 6.5z" />
    <glyph glyph-name="uni1EB8.smcp" horiz-adv-x="512" 
d="M72 0zM72 0v550h391v-82h-298v-146h292v-82h-292v-158h298v-82h-391zM269 -186q-22 0 -37.5 15t-15.5 38q0 21 15.5 37t37.5 16t37 -16t15 -37q0 -23 -15 -38t-37 -15z" />
    <glyph glyph-name="uni1EBA.smcp" horiz-adv-x="512" 
d="M72 0zM72 0v550h391v-82h-298v-146h292v-82h-292v-158h298v-82h-391zM194 649q8 24 27 39.5t48 15.5t51.5 -16.5t22.5 -53.5q0 -16 -4.5 -28t-13.5 -25h-44q12 13 17 25.5t5 25.5q0 19 -9.5 28t-24.5 9q-28 0 -39 -31z" />
    <glyph glyph-name="uni1EBC.smcp" horiz-adv-x="512" 
d="M72 0zM72 0v550h391v-82h-298v-146h292v-82h-292v-158h298v-82h-391zM327 604q-30 0 -46.5 16t-29.5 33q-10 14 -20 25t-25 11q-19 0 -32 -18.5t-13 -60.5h-51q0 60 25.5 97t74.5 37q29 0 45.5 -16t29.5 -33q11 -14 21 -25t25 -11q19 0 31.5 18.5t12.5 60.5h52
q0 -60 -25.5 -97t-74.5 -37z" />
    <glyph glyph-name="uni1EBE.smcp" horiz-adv-x="512" 
d="M72 0zM346 606l-80 101l-78 -101h-58l94 144h84l97 -144h-59zM431 676h-66l144 144h89zM72 0v550h391v-82h-298v-146h292v-82h-292v-158h298v-82h-391z" />
    <glyph glyph-name="uni1EC0.smcp" horiz-adv-x="512" 
d="M0 0zM346 606l-80 101l-78 -101h-58l94 144h84l97 -144h-59zM72 0v550h391v-82h-298v-146h292v-82h-292v-158h298v-82h-391zM101 676l-167 144h89l144 -144h-66z" />
    <glyph glyph-name="uni1EC2.smcp" horiz-adv-x="512" 
d="M72 0zM346 606l-80 101l-78 -101h-58l94 144h84l97 -144h-59zM72 0v550h391v-82h-298v-146h292v-82h-292v-158h298v-82h-391zM288 785q8 24 27 39.5t48 15.5t51.5 -16.5t22.5 -53.5q0 -16 -4.5 -28t-13.5 -25h-44q12 13 17 25.5t5 25.5q0 19 -9.5 28t-24.5 9
q-28 0 -39 -31z" />
    <glyph glyph-name="uni1EC4.smcp" horiz-adv-x="512" 
d="M72 0zM346 573l-80 101l-78 -101h-58l94 144h84l97 -144h-59zM72 0v550h391v-82h-298v-146h292v-82h-292v-158h298v-82h-391zM326 732q-30 0 -46.5 16t-29.5 33q-10 14 -20 25t-25 11q-19 0 -32 -18.5t-13 -60.5h-51q0 60 25.5 97t74.5 37q29 0 45.5 -16t29.5 -33
q11 -14 21 -25t25 -11q19 0 31.5 18.5t12.5 60.5h52q0 -60 -25.5 -97t-74.5 -37z" />
    <glyph glyph-name="uni1EC6.smcp" horiz-adv-x="512" 
d="M72 0zM347 606l-80 101l-78 -101h-58l94 144h84l97 -144h-59zM72 0v550h391v-82h-298v-146h292v-82h-292v-158h298v-82h-391zM269 -186q-22 0 -37.5 15t-15.5 38q0 21 15.5 37t37.5 16t37 -16t15 -37q0 -23 -15 -38t-37 -15z" />
    <glyph glyph-name="uni1E1E.smcp" horiz-adv-x="496" 
d="M72 0zM270 602q-22 0 -37.5 15t-15.5 38q0 21 15.5 37t37.5 16t37 -16t15 -37q0 -23 -15 -38t-37 -15zM72 0v550h391v-82h-298v-146h292v-82h-292v-240h-93z" />
    <glyph glyph-name="Gbreve.smcp" horiz-adv-x="623" 
d="M42 0zM339 -12q-62 0 -116.5 21t-94.5 58.5t-63 90.5t-23 117t23 117t63 91t94.5 58.5t116.5 20.5q75 0 131 -30.5t92 -75.5l-74 -47q-25 31 -63.5 50.5t-85.5 19.5q-43 0 -79.5 -15t-63.5 -42t-42 -64.5t-15 -82.5q0 -44 15 -81.5t42 -65t63.5 -43t79.5 -15.5
q46 0 80.5 17t54.5 35v93h-158v78h252v-206q-42 -45 -100.5 -72t-128.5 -27zM515 674q-30 -41 -75.5 -64.5t-99.5 -23.5t-99.5 23.5t-76.5 64.5l43 36q23 -32 56.5 -50.5t76.5 -18.5q42 0 76 18.5t57 50.5l42 -36v0z" />
    <glyph glyph-name="Gcircumflex.smcp" horiz-adv-x="623" 
d="M42 0zM339 -12q-62 0 -116.5 21t-94.5 58.5t-63 90.5t-23 117t23 117t63 91t94.5 58.5t116.5 20.5q75 0 131 -30.5t92 -75.5l-74 -47q-25 31 -63.5 50.5t-85.5 19.5q-43 0 -79.5 -15t-63.5 -42t-42 -64.5t-15 -82.5q0 -44 15 -81.5t42 -65t63.5 -43t79.5 -15.5
q46 0 80.5 17t54.5 35v93h-158v78h252v-206q-42 -45 -100.5 -72t-128.5 -27zM418 606l-80 101l-78 -101h-58l94 144h84l97 -144h-59z" />
    <glyph glyph-name="uni0122.smcp" horiz-adv-x="623" 
d="M42 0zM339 -12q-62 0 -116.5 21t-94.5 58.5t-63 90.5t-23 117t23 117t63 91t94.5 58.5t116.5 20.5q75 0 131 -30.5t92 -75.5l-74 -47q-25 31 -63.5 50.5t-85.5 19.5q-43 0 -79.5 -15t-63.5 -42t-42 -64.5t-15 -82.5q0 -44 15 -81.5t42 -65t63.5 -43t79.5 -15.5
q46 0 80.5 17t54.5 35v93h-158v78h252v-206q-42 -45 -100.5 -72t-128.5 -27zM395 -138q0 -42 -21.5 -78.5t-53.5 -59.5l-36 28q22 14 39.5 38t20.5 46q-2 -1 -6 -1.5t-7 -0.5q-20 0 -32.5 13.5t-12.5 34.5t14.5 36t35.5 15q23 0 41 -18.5t18 -52.5z" />
    <glyph glyph-name="Gdotaccent.smcp" horiz-adv-x="623" 
d="M42 0zM339 -12q-62 0 -116.5 21t-94.5 58.5t-63 90.5t-23 117t23 117t63 91t94.5 58.5t116.5 20.5q75 0 131 -30.5t92 -75.5l-74 -47q-25 31 -63.5 50.5t-85.5 19.5q-43 0 -79.5 -15t-63.5 -42t-42 -64.5t-15 -82.5q0 -44 15 -81.5t42 -65t63.5 -43t79.5 -15.5
q46 0 80.5 17t54.5 35v93h-158v78h252v-206q-42 -45 -100.5 -72t-128.5 -27zM341 602q-22 0 -37.5 15t-15.5 38q0 21 15.5 37t37.5 16t37 -16t15 -37q0 -23 -15 -38t-37 -15z" />
    <glyph glyph-name="Gbreve.smcp.alt1" horiz-adv-x="639" 
d="M42 0zM335 -12q-61 0 -114.5 21t-93 58.5t-62.5 90.5t-23 117t23 117t63 91t94.5 58.5t116.5 20.5q75 0 131 -30.5t92 -75.5l-74 -47q-25 32 -63.5 51t-85.5 19q-43 0 -79.5 -15t-63.5 -42t-42 -64.5t-15 -82.5q0 -44 15 -81.5t42 -65t63.5 -43t79.5 -15.5q31 0 59.5 9.5
t51 28.5t38 45.5t21.5 61.5h-193v78h292q0 -71 -19.5 -127.5t-55.5 -96t-86.5 -60.5t-111.5 -21zM515 674q-30 -41 -75.5 -64.5t-99.5 -23.5t-99.5 23.5t-76.5 64.5l43 36q23 -32 56.5 -50.5t76.5 -18.5q42 0 76 18.5t57 50.5l42 -36v0z" />
    <glyph glyph-name="uni0122.smcp.alt1" horiz-adv-x="639" 
d="M42 0zM395 -138q0 -42 -21.5 -78.5t-53.5 -59.5l-36 28q22 14 39.5 38t20.5 46q-2 -1 -6 -1.5t-7 -0.5q-20 0 -32.5 13.5t-12.5 34.5t14.5 36t35.5 15q23 0 41 -18.5t18 -52.5zM335 -12q-61 0 -114.5 21t-93 58.5t-62.5 90.5t-23 117t23 117t63 91t94.5 58.5t116.5 20.5
q75 0 131 -30.5t92 -75.5l-74 -47q-25 32 -63.5 51t-85.5 19q-43 0 -79.5 -15t-63.5 -42t-42 -64.5t-15 -82.5q0 -44 15 -81.5t42 -65t63.5 -43t79.5 -15.5q31 0 59.5 9.5t51 28.5t38 45.5t21.5 61.5h-193v78h292q0 -71 -19.5 -127.5t-55.5 -96t-86.5 -60.5t-111.5 -21z" />
    </font>
</defs>
</svg>
